<svg aria-labelledby="ctc_development_icon" role="img" xmlns="http://www.w3.org/2000/svg" viewBox="0 0 684 684">
  <title id="ctc_development_icon">Cottontail Creative Web Development Services</title>
  <path class="svg-bg" d="M410.38 43.49C340.72 35.32 273.85 26.09 201.5 52c-66.82 23.9-98.64 43.75-142.7 115.93C31.26 213 16.26 280.15 15.27 333c-1.08 56.89-.87 116.34 24.92 167.06 30.54 60.08 79.32 108.15 141.72 133.62 63.61 26 144.92 45 198.18 32.56C522 633 554.92 618.14 611.49 526.37s65.59-185.48 34.87-288.82c-8.89-29.91-14.8-67.47-44.88-97.55-57.63-57.63-123.31-88.56-191.1-96.51z" fill="#b2c4d2" id="Development_Circle" data-name="Development Circle"/>
  <style>
    @media (prefers-color-scheme: dark) {
      .svg-bg {
        fill: #8f8a99;
      }
    }
  </style>
  <g id="Redrawn_Black_Outlines_Dev" data-name="Redrawn Black Outlines Dev">
    <path style="fill:#f9f9fa;" d="M492.39 390.28c-.06.1-.12.19-.17.29h-.19a1.29 1.29 0 00-1.59.22l-.38.4a2 2 0 00-.73-.13c-1.94 0-3 2.2-3.64 3.69a13.54 13.54 0 00-1 6.44 1.31 1.31 0 00.17.55 39.23 39.23 0 01-1.28 8.2 58.65 58.65 0 00-3.88-11.68 1.42 1.42 0 00-2.2-.28c-3 3.24-2.91 7.53-2.36 11.63.59 4.36 1.37 8.51.39 12.89a23.31 23.31 0 01-6.3 11.53c-1.41 1.4-3.29 2.57-4 4.54a4 4 0 00-.16 2.06 3.71 3.71 0 001.29 3.75 3.76 3.76 0 004.32.15 1.13 1.13 0 001.32.3c.12 0 .22-.1.34-.15a15.13 15.13 0 006.84-5.94 40.79 40.79 0 006.15-6.89l.21-.31a1.47 1.47 0 00.91-.9c.13-.35.23-.71.35-1.06a42.11 42.11 0 005.91-22.14c0-3.72-.24-7.61.48-11.3a11.37 11.37 0 00.33-1.4c.06-.22.11-.45.18-.68s.11-.26.15-.4c-.45-1.12-.94-2.26-1.46-3.38z"/>
    <path style="fill:#f9f9fa;" d="M503.39 375.65a1.41 1.41 0 00-2.33-.62 13.85 13.85 0 00-4 10.64l-.14.06a9.93 9.93 0 00-1.71 1.13 46 46 0 01-3.63-7.54c-.5-.65-.9-1.45-1.32-2.11-.58-.88-1.16-1.76-1.75-2.63q-1.75-2.56-3.62-5.05a99.51 99.51 0 00-8.2-9.57.64.64 0 01.37-1.07c-2.54-2.44-5.22-4.73-8-6.91-3.56-2.81-7.23-5.46-10.95-8.06-1.72-1.78-3.46-3.54-5.17-5.3q-6.17-6.31-12.56-12.41-12.87-12.27-26.6-23.58-14.06-11.58-28.95-22.1a1.26 1.26 0 000-1.32 17.23 17.23 0 00-7.7-6.11 1.4 1.4 0 00-1.58.64c-1.73 3.33-3.51 6.83-6.46 9.28a10.06 10.06 0 01-6.26 2.41l.16-.28c.4-.56.79-1.13 1.16-1.72a1.31 1.31 0 00.2-.87c.06-.13.13-.25.18-.38a1.46 1.46 0 00.05-1.12 1.33 1.33 0 001.2-.63 13.12 13.12 0 001.72-6.88c.18-.69.35-1.38.49-2.07a1.94 1.94 0 00-3.13-1.7 56.36 56.36 0 01-9.73 16.59c0 .05-.06.11-.1.17a48.44 48.44 0 01-12.61 8.82c-1.49.72-.39 2.85 1.08 2.55 1-.2 1.92-.45 2.86-.74a1.47 1.47 0 00.59.57c-.46.58-.92 1.15-1.37 1.74a12.91 12.91 0 01-5.61 1.95 14.71 14.71 0 01-7.09-1.4c-4.59-2-8.65-5-13.52-6.35-2.49-.71-5.1-1.21-7.37-2.52a13.58 13.58 0 01-4.46-4.27 15.16 15.16 0 01-2.38-11.11 5.51 5.51 0 001.2.64 1.43 1.43 0 001.66.81 12.84 12.84 0 001.35-.5c2.41-.4 4.32-2.28 5.84-4.11 1.13-1.36-.77-3.33-2-2a13.34 13.34 0 01-4.31 3.24c.11-2.79 1.54-5.42 3.13-7.66a58.33 58.33 0 016.9-7.83 78.13 78.13 0 018.78-7.37l7-2.94c1.38-.58 2.78-1.11 4.14-1.73a3.08 3.08 0 002-2.75 10.35 10.35 0 00-.8-3.23q-.58-1.86-1.05-3.75c-.12-.48-.22-1-.32-1.43a1.27 1.27 0 00.38-1.21 25.35 25.35 0 00-1.13-3c-.08-.56-.15-1.13-.21-1.69a62.14 62.14 0 01-.32-6.39 94.75 94.75 0 011-10.76 60.51 60.51 0 013.53-12.07 56.49 56.49 0 016.08-11.11c.14.23.27.46.4.69s.3.73.48 1.08a1.29 1.29 0 00.38.49c.19.38.39.76.57 1.16l1.08 2.83a1.47 1.47 0 00.59.72l.5 1.09c.66 1.6 3.2 1 2.69-.75l-.46-1.6c3.9 9.85 2.4 21.56-.84 31.52-1.4 4.3-3.1 8.49-4.87 12.64a1.4 1.4 0 002.41 1.41c.27-.41.53-.82.79-1.24a1.47 1.47 0 002.43-.53c2.77-8.21 5.65-16.6 10.32-23.95a35.44 35.44 0 0113.76-11.82c.66-.26 1.31-.51 2-.73a1.38 1.38 0 00.64-.44l.25-.1c3.66 1.17 5.24 6.9 5.26 10.34 0 6.06-2.85 11.81-6.31 16.63-1 1.46 1.37 2.86 2.41 1.41 3.34-4.64 6-10 6.56-15.78a1.31 1.31 0 001-1.31 44.1 44.1 0 00-2.18-12c-.29-.86-.52-2.16-1.37-2.66a1.7 1.7 0 00-.62-.22 3 3 0 00-.7-.61 4.33 4.33 0 00-2.54-.56 17.89 17.89 0 00-5.7 1.76 1.11 1.11 0 00-.58.64c-3.42 1.34-6.56 4.42-8.78 6.79l-.1.11a35.3 35.3 0 00-3.19 3 1.29 1.29 0 00-1.06-.14 3.11 3.11 0 00-2.34 2.72 34.52 34.52 0 00-2 3.35 41.47 41.47 0 00-1.71-20.29 31.32 31.32 0 00-6.07-10.29 1.34 1.34 0 00-.42-.31 1.25 1.25 0 00-1.16-.8 1.41 1.41 0 00-2.6-.7c-1.27 2-2.52 4-3.73 6a36.58 36.58 0 00-7.43 13.94 46.45 46.45 0 00-1.38 6.69 41.91 41.91 0 00-.95 14.59 37.12 37.12 0 001 5.41c.05.46.09.92.14 1.38a1.47 1.47 0 00.61 1.06 2 2 0 01.08.22 61.55 61.55 0 001.4 6.82c.34 1.26.74 2.49 1.15 3.72.2.62.46 1.08-.16 1.46a9.21 9.21 0 01-1.56.69 1.47 1.47 0 00-2.08-.94 83.36 83.36 0 00-7.66 5c-.32.14-.63.3-.95.43a1.44 1.44 0 00-.84.89 80.08 80.08 0 00-8.46 7.48c-4.16 4.23-9.16 9.5-9.83 15.63a2 2 0 01-.22-.55c-.32-1.4-2.17-1.16-2.6 0a17.92 17.92 0 00.75 13.6 17.54 17.54 0 0010.8 9.3 56.55 56.55 0 018.5 2.94c2.47 1.23 4.82 2.69 7.32 3.86a20.22 20.22 0 007.63 2.14 13.73 13.73 0 004-.44 92.995 92.995 0 00-3.34 5.25c-2.26 3.85-4.26 8.2-4.07 12.77s2.71 8.62 5.06 12.45l6.6 10.8a72.91 72.91 0 01-33.59-.55q3.42-4.61 7.21-8.94a1.41 1.41 0 00-.61-2.33c-.46-.16-.9-.34-1.35-.51a1.36 1.36 0 00-.53-.62 44.35 44.35 0 00-9.74-4.62c-.72-.46-1.42-.94-2.12-1.43-1.77-1.27-3.7-3.26-6.11-2.71a6.36 6.36 0 00-2.73 1.75L294 328q-12.32 11-25.39 21.2-7.46 5.81-15.14 11.32a1.42 1.42 0 00.33 2.55l15.2 5.76 7.82 3c2.09.8 4.46 2 6.6.69a15.2 15.2 0 002.42-2.11l3.14-3 5.72-5.54q5.69-5.58 11.28-11.24c1.35-1.37 2.68-2.74 4-4.11a1.37 1.37 0 00.43.23 75.58 75.58 0 0037.84.89l.92 1.5a1.41 1.41 0 002.55-.34c.14-.57.26-1.14.36-1.72q.66 2.82 1.22 5.66c-.32.23-.64.47-1 .68-1.47.94-3.22 1.89-5 1.63s-2.52 2.45-.75 2.7c2.87.4 5.37-.72 7.67-2.24-.34.7-.74 1.34-.86 1.62a6.45 6.45 0 00-.58 2.3 10.51 10.51 0 00-3 .89c-.45.19-.91.35-1.36.52a112.91 112.91 0 00-25.38 3.65 1.23 1.23 0 00-.66.44 7.69 7.69 0 00-4.81.77 7.59 7.59 0 00-3.62 9.07c1.33 3.66 5 5.73 8.7 6.32 4.57.73 9.4.24 14 .16 4.79-.07 9.65.08 14.41-.46a43.56 43.56 0 006.5-1.33 19.54 19.54 0 014.61-.86 1.2 1.2 0 00.61 1.57c3.31 1.44 6.66 2.9 9.42 5.29 1.31 1.15 2.52 2.41 3.77 3.63a18.85 18.85 0 003.25 2.79 116.8 116.8 0 008.19 8.46c6.19 5.75 14.39 11.88 23.33 8.79a1.52 1.52 0 00.86-.81l.16.08c1.34.58 2.95-1 1.69-2.2a95.4 95.4 0 01-16.44-20 1.33 1.33 0 00-.84-.62 32 32 0 00-4.64-6.45c-1-1.82-1.95-3.66-2.86-5.53a1.41 1.41 0 00-2.55.34c-.36 1.29-.72 2.59-1.09 3.89-1.61-2.42-3.15-4.89-4.59-7.42a1.4 1.4 0 00-2.41 1.41l.94 1.61a5.86 5.86 0 00-.97-.43l-.12-.12a1.26 1.26 0 00-1.92 0c-2.63.35-4.78 2.47-6.48 4.38a1.37 1.37 0 00-.37.8 11.74 11.74 0 00-8.47-2.18 55.07 55.07 0 00-5.94 1.4 33.64 33.64 0 01-6.4.87c-4.25.22-8.53.19-12.78.26l-6.56.11a28.84 28.84 0 01-6.16-.32c-3.35-.67-7.6-3.46-6.13-7.45a4.69 4.69 0 014.56-3.15 1 1 0 00.13.28 4.72 4.72 0 002.6 2c.08.06.15.13.24.19a8.55 8.55 0 005.4 1.26h1.34a39.27 39.27 0 006.13.37c1.29 0 2.57-.13 3.84-.28a32.71 32.71 0 003.69-.27c2.83-.37 6.14-.92 8.55-2.58a6.31 6.31 0 001.46-1.36c1.6-.89 3.1-2.14 3.1-4.09a3.54 3.54 0 00-1.87-3c-.42-.71-.07-1.47.33-2.28a13.64 13.64 0 001.09-2.36 5.35 5.35 0 00.17-2.3 45.43 45.43 0 007.05-7c1-1.24 1.81-2.69 1.29-4.32-.39-1.2-1.63-2.11-2.75-1.56l-.77-.53a1.17 1.17 0 00-1.09-.14l-1.9-3.94a1.4 1.4 0 00-2.53.3 1.35 1.35 0 00-1.38 1.69 1.85 1.85 0 00-.41-.07l-.57-1.13c-1.07-2.09-2-4.8-4.5-5.51a1.4 1.4 0 00-1.72 1.71q.81 2.52 1.55 5.06a30.26 30.26 0 010 6.66h-.09l-5.49-9c-2.26-3.69-5.08-7.47-6-11.78s.91-8.67 3-12.38a86.05 86.05 0 016.45-9.71 26.87 26.87 0 008.15-9c.63-.46 1.25-.94 1.84-1.44a1.21 1.21 0 001.52-.27c.75-.88 1.44-1.8 2.11-2.74a12 12 0 008.74-2.15c3.12-2.17 5.18-5.38 7-8.68a12.41 12.41 0 00.38 2.44c0 .16.1.32.15.48h-.09a1.43 1.43 0 00-1 1.35 9.71 9.71 0 001.64 5 1.76 1.76 0 00.15.46l.58 1.15a5.1 5.1 0 00.29.57l.13.24c.07.1.12.2.2.3a1.1 1.1 0 001 .47c1.9 2.43 3.82 4.85 5.73 7.27l6.49 8.22c2.06 2.61 4 5.33 6.21 7.85 1.49 1.72 3.84 3.51 6.25 2.75a3.76 3.76 0 001.48-.9c.4-.37.73-1.08 1.2-1.33 1.14-.63 2.3 1.65 2.75 2.39l5.23 8.65c1.46 2.4 2.79 5 4.71 7.11s4.36 3.2 7 2.33a5.62 5.62 0 002.95-2.19l11.1 12.85c4.12 4.78 8.07 9.82 12.48 14.33a21.6 21.6 0 007.42 5.29 1 1 0 00.26.3l2.78 2.21a1.41 1.41 0 002.33-.62c.11-.47.19-.94.27-1.41h.12c1.39-.33 1.85-1.13 2.11-2.5a8.19 8.19 0 00.13-1.31 19.71 19.71 0 012.65 2.44 1.22 1.22 0 001.39.34 141 141 0 0111.92 13.91.58.58 0 011-.05c1.24 1.6 2.39 3.26 3.48 5a1.57 1.57 0 00.3-.05c.21.52.43 1 .66 1.55a62.85 62.85 0 014 7.9c.14-.25.26-.51.41-.74a13.94 13.94 0 001.58 1.38 11.79 11.79 0 004.62 2.08c2.12 4.33 8.88 2.48 10.06-1.8 1.86-7.31-6.25-11.27-8.04-17.31zm-88.7-58.1a42 42 0 00-2.39-3.93l.69.66q.5.69 1 1.35c.25.58.52 1.15.8 1.71a2.25 2.25 0 00-.1.21zm52.08 36.12A97.21 97.21 0 01479.11 365a59.12 59.12 0 016.21 8.16 143.48 143.48 0 00-18.55-19.49zm30.16 35.43c.09-.07.16-.15.24-.22s.24-.18.37-.26a10.65 10.65 0 00.53 1.5 8.1 8.1 0 01-1.14-1.02z"/>
    <path style="fill:#f9f9fa;" d="M353 266.22a5.37 5.37 0 00-2.45-1.86 8.39 8.39 0 00-6.32-2.74 5.45 5.45 0 00-3.69 1.26 3.8 3.8 0 00-.84 4 6.48 6.48 0 002.76 3.18 19.86 19.86 0 003.63 2 6.2 6.2 0 004.09.34 5.07 5.07 0 003-2.39 3.67 3.67 0 00-.18-3.79zm-89 30.99l-6.6-59.31-3.72-33.51a1.54 1.54 0 00-.79-1.24c-.2-1.72-2.82-1.78-2.79 0v.2q-11 2.1-22.07 3.75a1.29 1.29 0 00-.84-.22q-4.27.21-8.53.68c-1.91.19-3.81.42-5.71.72a1.36 1.36 0 00-.51-.09 4.05 4.05 0 00-2.2.62l-.1.05a4.78 4.78 0 00-.8.69l-.65.07a1.53 1.53 0 00-1.17 2.2 1.22 1.22 0 00-.69 1.57c.22.77.43 1.54.65 2.31 0 .66 0 1.33.09 2l.58 6.72q1.14 13.32 2.29 26.64c1.52 17.64 2.78 35.33 4.7 52.93a231 231 0 004.69 28.74 1.4 1.4 0 002.74-.38v-.55l24.4-15.79 12.59-8.14c1.61-1 3.67-2 4.5-3.88.94-1.99.15-4.65-.06-6.78zm-35.65-81.15a1.29 1.29 0 00.63-.92l.32-.19v.61a1.38 1.38 0 00-1.06 1.17 1.42 1.42 0 00-.07.22l-.18-.66c.01-.09.19-.15.33-.23zm-14.53 42l-.25-2.84c.17.88.34 1.75.53 2.63a1 1 0 00-.31.22zm228.05 101.26a10.2 10.2 0 00-1.13-1.24c-.38-.39-.75-.8-1.1-1.21a27.68 27.68 0 01-1.9-2.52.7.7 0 10-1.2.71 30.38 30.38 0 002 2.73c.36.41.72.82 1.1 1.22a6.12 6.12 0 001.31 1.18c.58.3 1.27-.32.92-.87zm-8.4.1a5.15 5.15 0 00-.67-1.27c-.27-.39-.57-.78-.88-1.15a12.92 12.92 0 00-1.91-1.86.7.7 0 00-1 1 12.73 12.73 0 011.86 1.81 2.11 2.11 0 01.19.23l.09.11.05.06c.13.17.25.34.37.52a6.65 6.65 0 01.36.56 7 7 0 00.45.62c.44.48 1.26-.05 1.09-.63zm-10.57-14.91l-.51-.5c-.35-.36-.7-.73-1-1.1-.64-.7-1.32-1.51-1.86-2.21a.72.72 0 00-1-.25.71.71 0 00-.25 1c.65.83 1.32 1.65 2 2.43.34.37.68.74 1 1.1l.54.53c.24.24.51.58.89.53a.66.66 0 00.64-.64c.1-.4-.2-.65-.45-.89zm-11.49-17.66l-.92-1.43-1.9-3a.7.7 0 00-1.21.7l1.91 3c.3.48.61 1 .92 1.44l.49.77a2.1 2.1 0 00.65.77.63.63 0 00.95-.55 4.16 4.16 0 00-.89-1.7zm-2.53 5.6a7.05 7.05 0 00-1.15-1.23l-1.19-1.15-2.36-2.27a.7.7 0 00-1 1l2.35 2.27 1.16 1.12a7.43 7.43 0 001.3 1.14.64.64 0 00.89-.88z"/>
    <path style="fill:#231f20;" d="M514.53 391a4.82 4.82 0 00-.6-3.89 3.89 3.89 0 00-3-1.93 2.43 2.43 0 00.22-.55 5 5 0 00-.5-3.35 6.13 6.13 0 00-1.56-2.22 2.43 2.43 0 00-1-.51 3.71 3.71 0 00-.68-3.46 5.12 5.12 0 00-4.9-1.42 7.27 7.27 0 00-4.85 3.7c-1.17 1.94-2.6 4.15-2.66 6.49q-2.69-3.72-5.44-7.39c-.21-.48-.43-1-.64-1.42l-.31-.47q-1.75-2.56-3.62-5.05a99.51 99.51 0 00-8.2-9.57.59.59 0 01-.1-.72c-.59-.54-1.19-1.07-1.76-1.63-1.2-1.18-2.18-2.55-3.39-3.73-.56-.55-1.16-1.08-1.76-1.59-1.7-1.92-3.41-3.83-5.15-5.72q-8.61-9.37-17.81-18.19t-18.84-17q-9.7-8.21-19.92-15.78l-.56-.41-19.95-16.51-6.88-5.7c-.6-1.11-1.17-2.24-1.69-3.38v-.08a23.12 23.12 0 00-9.33-15.77 12.69 12.69 0 00-6.69-3.72.79.79 0 00-.41 0l-.66-.25a.69.69 0 00-.76 1 .71.71 0 00.3.59l2.07 1.54 2.34 2.06c4.82 5.55 10.17 12.35 8.64 20.12a19.53 19.53 0 01-5.21 9.49 22.24 22.24 0 001.25-12.35.71.71 0 00-1.28-.17l-8.86 15.75a30.12 30.12 0 01-7.17 4.81c-6.69 3.25-14.21 4.06-21.62 4.19-4.72-.34-9.47-1.94-13.83-3.45a28.9 28.9 0 01-7.17-3.45 3.73 3.73 0 00.36-.43 4 4 0 00.49-1 4.3 4.3 0 003 1.06 4.17 4.17 0 002.68-1.2 3.75 3.75 0 00.8-1.27 2.24 2.24 0 00-.12-1.79 1.23 1.23 0 00-1.26-.6 1.33 1.33 0 00-1.06.9c-.18.44-.16.71-.57 1a1.23 1.23 0 01-1.11.14 4 4 0 01-2.08-2.66c-.26-.75-.45-1.52-.68-2.28-.05-.18-.11-.36-.17-.54s-.06-.19-.1-.29l.44-.53q1.78-2 3.55-4.09a1.43 1.43 0 000-2 1.4 1.4 0 00-2 0l-.86 1a23.45 23.45 0 01-2.83 2.63l-.39.28c-.27-.27-.88-.72-1-.81l-2.25-2a1.68 1.68 0 00-.53-.31 22.44 22.44 0 012.82-6.94c3-5 7.46-9.18 11.89-12.91a84.18 84.18 0 0117-11.08 1.16 1.16 0 00.7-1.16c1 1 2.92-.15 2.29-1.49a.58.58 0 00.4-.45c1.68-6.65-.43-13.32-1.17-19.94a36 36 0 01.38-10.52 22.09 22.09 0 011.64-4.22c.76-1.52 1.54-3 2.37-4.52 1-1.68 1.84-3.4 2.84-5a20.93 20.93 0 001.15-2.07c.13-.25.27-.6.44-.92a.54.54 0 00.07.13 2.36 2.36 0 00.24.56 4.78 4.78 0 00.66.69l.91 1.52a19.64 19.64 0 012.08 7.72 28.38 28.38 0 01-.34 6.38c-.17 1.06-.38 2.11-.63 3.16-.13.54-.27 1.08-.41 1.62a6.63 6.63 0 00-.35 1.56.64.64 0 001.19.32 6.58 6.58 0 00.57-1.74c.14-.54.28-1.08.4-1.62.25-1.09.47-2.18.63-3.28a29.3 29.3 0 00.3-6.81 22.44 22.44 0 00-1-5 .68.68 0 00.1-.79v-.05a.6.6 0 000-.29c0-.05-.05-.1-.08-.16l-.09-.17a20.17 20.17 0 00-1.23-2.35c-.43-.82-.86-1.65-1.3-2.47a.6.6 0 00-.73-.32.63.63 0 00-.23-.23.31.31 0 00-.07-.09l-.1-.07c-.09-.1-.17-.2-.26-.29a.71.71 0 00-1 0c-.76 1-1.48 2-2.17 3a36.71 36.71 0 00-6.91 15.26l-.06.37a35.49 35.49 0 00-.66 9.08c.06 3.55-.14 7.13.55 10.63.61 3.06 2 6.63.88 9.71a42.79 42.79 0 01-5.67-23.48 49.46 49.46 0 018.21-24.62 119.64 119.64 0 018.34-10.58c1.06 4.28 3 8.24 4.76 12.31 2.19 5.09 3.92 10.87 1.85 16.28a1.12 1.12 0 00.08 1.08 22.82 22.82 0 00-.69 5.46c-3.72 9.35-9.51 18.22-7.63 28.64.2 1.1 1.64.82 1.91-.07l.3-.2h.05a.61.61 0 00.45-.11 15.46 15.46 0 004.31-4.72 23.86 23.86 0 002.11-2.8 53 53 0 004.62-10.38 38.79 38.79 0 015.39-10.52 46.69 46.69 0 018.27-8c.84-.66 1.69-1.31 2.56-1.93a11.06 11.06 0 012.71-1.6 3.39 3.39 0 012.77.06 2 2 0 011.25 1.9.75.75 0 00.43.78 12.9 12.9 0 01-.13 3.39 1.27 1.27 0 00-.07.12 67.77 67.77 0 01-4.48 10.78c-.17.24-.34.49-.52.73-1 1.42-2.05 2.85-3 4.36-.39.67.57 1.46 1.1.85a30.58 30.58 0 003.42-5 37.22 37.22 0 004.59-7.53 15 15 0 001.55-6.65c0-2-.52-4.25-2.15-5.52-2.67-2.08-6.39.12-8.68 1.73a53.86 53.86 0 00-9.13 8.53q-1.58 1.77-3 3.66a39.87 39.87 0 00-4.09 7c-1.54 3.25-2.72 6.63-4.08 9.95a36.55 36.55 0 01-2.53 5.14 15.6 15.6 0 01-2.14 2 13.86 13.86 0 01-1.59 1 71.36 71.36 0 0111-30.2l2.21-2.43a53.91 53.91 0 0111-9.32l.67-.32c.61-.27 1.24-.5 1.86-.75q1.62-.57 3.27-1a50.25 50.25 0 016.68-1.2c2.66 8.49 4.94 17.72-.06 25.82a49.75 49.75 0 01-8.42 9.62 93.51 93.51 0 01-10.38 8.44q-2.93 2-6 3.86a1 1 0 00-.51.22l-.36.28q-2.94 1.69-6 3.2c-1 .5-.31 2.16.77 1.83a20 20 0 006.22-3.29 96.22 96.22 0 0017-12.54 55.66 55.66 0 008.92-9.92 22.67 22.67 0 003.76-13c-.1-5.58-1.76-11-3.45-16.26a1 1 0 00-1-.73c-6.6-.11-12.26 2.49-17.26 6.24h.02a14.09 14.09 0 00-5 3.11.79.79 0 00-.54.29c-1.23 1.48-2.4 3-3.51 4.57l-.74 1a1 1 0 00-.17.38l-.34.5-.27.3c.08-.36.17-.72.24-1.09a1 1 0 00-.31-.94c2.68-10.75-6.46-20.17-7.75-30.54-.12-1-1.54-2.07-2.38-1-3.08 4-6.56 7.62-9.46 11.74a55.28 55.28 0 00-6.47 12.23 48.61 48.61 0 00-2.2 27.29 43.61 43.61 0 005.38 13.54 1.38 1.38 0 00-1.3 0 87.78 87.78 0 00-16.39 10.56c-4.95 4-9.85 8.63-13.26 14.08-3.25 5.18-5 11.78-2.91 17.74a15.24 15.24 0 003.4 5.48 1.31 1.31 0 00.67 1.15 2.66 2.66 0 00.82.24 26.13 26.13 0 006.82 4 79.74 79.74 0 009.21 3l.36.09a1.22 1.22 0 00.06.42l6.43 19.17-43.8-6-3.08-.43c-.91-.12-1.84-.31-2.75-.34a3.25 3.25 0 00-2.43.79.62.62 0 00-.37.15q-13.17 10.55-27.1 20.1c-.05-.68-.21-1.38-.29-2l-.66-4.66.58-.39 4.78-3.23a.5.5 0 00.13-.05c1.43-.86 2.84-1.75 4.25-2.66l14.06-8.81a.68.68 0 00.34-.6c-1.79-15.37-3.55-30.73-5.38-46.09s-3.75-30.61-5.95-45.87c-1.07-7.43-2.68-15-2.36-22.57a2.26 2.26 0 000-.45c0-.9.12-1.79.23-2.69a.71.71 0 00-.7-.7c-11 1.48-22.07 3-33.06 4.71l-3.23.22a3 3 0 00-1.63.58c-4.54.76-9.07 1.57-13.59 2.46-1.09.21-2.17.45-3.26.67l-1.75.17a11.65 11.65 0 00-4.66 1.21c-1.61.36-3.22.71-4.82 1.09a.71.71 0 00-.52.67q1 17.78 2.49 35.51.69 8.15 1.47 16.28a4 4 0 00-.09 1.58q.44 3.09.86 6.16c.39 3.75.78 7.5 1.2 11.25q2 17.63 4.39 35.2 1.22 8.78 2.55 17.53c.44 2.92.9 5.84 1.36 8.76a17.37 17.37 0 00.78 3.87 4 4 0 002.4 2.08c2.63 1.05 5.31 2.05 8 3a3.63 3.63 0 003.32-.38c1.1-.71 2.13-1.56 3.21-2.33a154.84 154.84 0 0114.25-9.1l1.2-.66c.14 1.92.33 3.83.61 5.74a6.06 6.06 0 01-.88 1.43l-2.26 1.45-.32.17a4.89 4.89 0 00-.5.35c-1.11.71-2.21 1.43-3.33 2.13a.62.62 0 00-.31.56l-22.87 15.53L184.56 377l-13.86 9.4h-.2a.74.74 0 00-.87.8.7.7 0 00-.11.61v.15l-.18 1.07a.78.78 0 00.07.54q.25 19.88.95 39.75.72 20.2 1.91 40.38.57 9.67 1.26 19.35a3.11 3.11 0 00.13 1.95c0 .34 0 .68.07 1a.62.62 0 00-.12 1.12 6.72 6.72 0 001.88.55.44.44 0 00.17.07c1.68.33 3.37.59 5.06.8a.7.7 0 01.46-.07c.75.13 1.5.24 2.25.35 1.18.1 2.37.17 3.55.21a1.23 1.23 0 00.11.23l.74.05h.36a.59.59 0 00.15-.45c0-.8-.07-1.61-.11-2.42a3.53 3.53 0 00.18-1.74c-.14-1.05-.26-2.1-.4-3.15q-.54-12-.95-24-.53-15.66-.81-31.31-.25-8.58-.25-17.24c2.94.37 5.89.75 8.83 1.16 6.55 1.31 13.1 2.63 19.66 3.91q16.15 3.18 32.35 6.26 9.09 1.74 18.2 3.44h.06a.87.87 0 000 .25q.41 14.08.73 28.18t.53 28.05q.12 7.71.22 15.4a.71.71 0 00-.1.48c.19 1.26.31 2.53.38 3.8a.71.71 0 00.69.7l10.84.49 2.62.12c.69 0 1.64.25 2.25-.18a1.23 1.23 0 00.43-.58 2.74 2.74 0 003.41-2.64l.72-52.49.17-13c.06-3.88-.17-7.95.94-11.72.09-.3.21-.59.32-.88l.15-.19q3-3.58 6.11-7.06l.52-.57c1.7-1.62 3.4-3.24 5.08-4.87 4.72-4.6 9.37-9.28 14-14l1-.9a.64.64 0 00.19-.32l.86-.87a.64.64 0 01.17-.45c3.65-4.23 7.41-8.37 11.06-12.6l.11-.08a.7.7 0 00-.51-.1 1.74 1.74 0 000-.22c.32 0 .64 0 1 .06a.6.6 0 01.57 0 95.68 95.68 0 0016.16-.61q5.6-.61 11.11-1.76c1.8 1.72 3.55 3.5 5.28 5.29.74.77 1.46 1.54 2.19 2.29a2.72 2.72 0 00.16.35l.87.88 26.65 27.05a.62.62 0 01.12.78c.21.2.42.41.64.6a5.6 5.6 0 00-.87 1.6 25.85 25.85 0 00-1.7 7.31c-.05 1.15.07 2.28.06 3.43a2.77 2.77 0 01-1.64 2.65c-1 .68-2.07 1.46-3.15 2.09a22.49 22.49 0 01-3.64 1.46c-1.3.48-2.56 1-3.86 1.53a23.47 23.47 0 00-3.34 1.33c-1.09.62-2 1.49-3.12 2.12a9.75 9.75 0 00-2.17 1.47 7.9 7.9 0 00-2.31 5.16c-.2 1.84-.27 3.76 1.06 5.22 1.63 1.79 4.15 2.13 6.42 2.33 1.24.11 2.47.26 3.72.32a32.62 32.62 0 004.18-.29c1.15-.11 2.3-.22 3.45-.35a8.56 8.56 0 00-1.18.85l-.32.17a13.35 13.35 0 00-4.81 4.31 6.46 6.46 0 00-.89 6.54 8 8 0 004.41 4.71c1.92.29 3.85.55 5.79.8l1.21.16 1.49-.2h.1c.51.1 1 .19 1.53.25a65.7 65.7 0 0011.48-.11q6.91-.42 13.79-1.08c3.17-.31 6.34-.67 9.5-1.06 1.1 0 2.2.08 3.3.07a30.78 30.78 0 004.48-.54 35.87 35.87 0 014.13-.53.67.67 0 01.51-.28c2.62-.14 5.24-.38 7.86-.59 1.92-.2 3.85-.42 5.76-.69 2.25-.32 4.49-.68 6.72-1.1 1.64-.3 3.26-.68 4.89-1 .69-.31 1.38-.6 2.06-.93a48.54 48.54 0 003.68-2c1.85-1.09 3.62-2.29 5.35-3.55l.16-.16a.76.76 0 00-.16 0 13.06 13.06 0 011.12-1.24 59.91 59.91 0 0012.58-12.51 82 82 0 0011.57-26.45c.23-2.67.54-5.33.89-8v-.22l-.12-.5a54.25 54.25 0 00-1.29-13.21 6.35 6.35 0 005 2 13.59 13.59 0 005.42-2.06c1.25-.69 2.72-1.55 2.74-3.17a2.54 2.54 0 00-1-2 3.37 3.37 0 00.95-1.51zM308.69 286.13l.06.31a6 6 0 010 .85 4.42 4.42 0 01-.14.52 1.65 1.65 0 01-.15.25l-.17.17a12.83 12.83 0 01-2.54-3.49 13.31 13.31 0 01-1.3-6.26l1.76 1.55a6.09 6.09 0 001.61 1.12 15.31 15.31 0 00.65 2.25c.15.51.29 1 .47 1.54a1.41 1.41 0 00-.25 1.19zm134.86 41.13q3.51 3.33 6.94 6.74a13.22 13.22 0 01-2.26-1.92 19.63 19.63 0 00-1.89-1.87c-.34-.29-.79-.57-1.18-.9a1.74 1.74 0 00-.18-.22c-.12-.12-.24-.25-.37-.37s-.11-.14-.15-.22a1.16 1.16 0 00-.7-.65l-15.88-14.62q8.01 6.82 15.67 14.03zM209.82 209.57l-3 .49v-.22zm-3.67 107.08l.63 3.93c0 .29.05.57.08.86-.24-1.6-.48-3.19-.71-4.79zm22.57 11.47c-1.95 1.33-3.87 2.69-5.81 4-1.23.67-2.48 1.32-3.73 1.95-.16-1-.31-2-.47-3a2.47 2.47 0 00-.06-1.17c-.1-.33-.18-.66-.27-1q-2-13.33-4.09-26.66c-.62-7.78-1.16-15.56-1.86-23.34-1.07-12-2.34-24.06-3.71-36.07q-.27-4.1-.53-8.21-.52-8.13-1.06-16.25a41.41 41.41 0 00-.08-7l37.15-6.12 5.21-.85 2.59-.4a5.1 5.1 0 01.65-.09q1 14 3.23 27.83a.48.48 0 00.07.18q.24 3.18.66 6.36 1.31 9.9 2.64 19.8 1.37 12.87 2.79 25.74 1.17 10.53 2.4 21.05-18.13 11.2-35.72 23.25zM247 317.59l-4.22 2.83h-.05c1.43-.96 2.84-1.9 4.27-2.83zm20.72 172c0-2.4-.07-4.8-.11-7.2.05 1.56.09 3.12.14 4.68zm20.68-90.22l-.39.21c-.24.16-.45.34-.68.5l3.59-3.75zm22.06-33.86a7.34 7.34 0 00-1.39 7.45 12.72 12.72 0 00.72 1.64l-24.1 25.17c-2.24 2.34-4.54 4.64-6.72 7a.66.66 0 00-.49-.24c-14.16-.72-28.07-4-41.93-6.78l-42.32-8.55-21.62-4.37 24.12-16.36 26.34-17.86 12.75-8.61a2.88 2.88 0 001.26 3.27 4.45 4.45 0 002.07 1.23c2.87.79 6.11-1.08 8.45-2.57.61-.39 1.2-.8 1.8-1.19a29.16 29.16 0 003.35-2.24l2.72-1.86a3.07 3.07 0 001.28-1.74 5.25 5.25 0 001.38-2.24 4 4 0 00.36-3.35 3.88 3.88 0 00-3.82-2.15q7.59-5.28 15-10.86 4.33-3.3 8.6-6.71a.68.68 0 00.84-.41c.33-1.06 2.29-.59 3-.49l5.18.7 10.61 1.45 21.21 2.9 11.73 1.6 3.33 9.92c.85 2.53 1.7 5 2.54 7.58a13.38 13.38 0 01.82 2.84c.13 1.24-.48 1.62-1.67 1.69-4.75.28-9.58-.49-14.26.72l.54-.65c.6-.72 1.2-1.43 1.81-2.13l.92-1.06a3.92 3.92 0 00.88-1.19.58.58 0 00-.43-.75c-.08-.29-.18-.63-.3-1a.58.58 0 000-.45.83.83 0 01-.09-.16l-.2-.33c-.09-.15-.17-.3-.27-.44l-.12-.19a.68.68 0 00-.27-.24c-1.37-1.4-3.59-2-5.33-2.71-2.94-1.21-5.86-2.5-8.74-3.84s-5.64-2.69-8.41-4.11c-1.26-.65-2.4-1-3.73-.32a19.93 19.93 0 00-3.31 2.7q-14.12 12.18-29 23.4-8.38 6.3-17 12.28a.82.82 0 00-.34.62 6.28 6.28 0 00-1 3.7 3.75 3.75 0 002.12 2.74c1.31.72 2.73 1.27 4.1 1.87s2.8 1.21 4.2 1.79q8.6 3.58 17.44 6.49 4.95 1.64 10 3.06a.63.63 0 00.58-.12.61.61 0 00.46-.21l20.89-22.2c1.64-1.75 3.29-3.49 4.93-5.23a7.7 7.7 0 003.65 4.94 20.57 20.57 0 009.74 2.71 3 3 0 00-.34.2.72.72 0 00-.23.93c-2.18.06-4.37.14-6.54.32-2.76.23-5.78.82-7.75 2.95zm5.1-30.71c-4.55 4.34-8.94 8.88-13.39 13.34s-8.77 8.76-13.17 13.17l-7.23 7.32c-1.75-.48-3.49-1-5.23-1.53a277.43 277.43 0 0121.54-20.88c2.17-1.89 4.37-3.73 6.59-5.55.7-.56-.29-1.55-1-1a274.52 274.52 0 00-22.36 20.36q-2.72 2.77-5.35 5.62a2.62 2.62 0 00-.34.24 1.45 1.45 0 00-.22.21 3.47 3.47 0 00-.3.37l-.08.15c-2.33-.75-4.65-1.56-6.95-2.4l23.47-21 6.88-6.17c.67-.61-.32-1.59-1-1L273.1 357.9l-6.47 5.8q-2.2-.82-4.39-1.73 13.14-10.87 26.22-21.82l7.42-6.22c.69-.58-.3-1.56-1-1q-13.2 11.08-26.48 22.1l-7.4 6.2a.91.91 0 00-.13.16c-1.44-.6-2.87-1.21-4.29-1.85l1.48-1.1q4.89-3.65 9.76-7.31 9.62-7.26 19.15-14.63 5.35-4.15 10.69-8.34c.71-.55-.29-1.53-1-1q-18.36 14.4-37.06 28.36c-1.64 1.23-3.27 2.51-5 3.66a10.22 10.22 0 01-3.93 1.86q14-9.8 27.42-20.43 7-5.6 13.92-11.43c1.15-1 2.29-1.95 3.42-2.93l1.62-1.4a6.63 6.63 0 011.68-1.25 2 2 0 011.75.2c.67.33 1.33.68 2 1l1.87.92c-.66.78-1.36 1.53-2.09 2.24q-.69.66-1.41 1.26c-.24.21-.49.41-.74.61s-.69.44-.77.83a.65.65 0 00.61.81c.41 0 .73-.32 1-.56l.75-.61c.51-.42 1-.86 1.48-1.32a30.15 30.15 0 002.43-2.62l.93.46 2.78 1.3a42.095 42.095 0 00-4.87 3.96 7.4 7.4 0 00-1.52 1.64.64.64 0 00.87.86 10.57 10.57 0 001.56-1.44c.51-.49 1-1 1.58-1.43a40.29 40.29 0 013.28-2.53.76.76 0 00.32-.49l2.61 1.15a.62.62 0 00-.17.11q-1.38 1.58-2.88 3.06c-.49.48-1 1-1.49 1.43s-1.1.92-1.56 1.44a.67.67 0 00-.06.89.68.68 0 00.88.17 16 16 0 001.65-1.43c.52-.49 1-1 1.53-1.48q1.52-1.5 2.92-3.09a.73.73 0 00.17-.66l1.69.75q2.29 1 4.61 1.91a10.48 10.48 0 012.14 1c-.56.39-1.08.89-1.59 1.31-.71.6-1.41 1.21-2.09 1.84-2.63 2.38-5.1 4.93-7.58 7.46l-15.9 16.18-9 9.16a.25.25 0 000 .07l-1.3 1.18a5.68 5.68 0 00-1.59 1.84 230.79 230.79 0 01-26.63-8.85c-1.66-.67-3.3-1.36-4.94-2.07a9.62 9.62 0 001.42-.58 19.17 19.17 0 001.85-1.1.5.5 0 00.12.08q5.37 2.45 10.9 4.52a.74.74 0 00.5.19q7.41 2.76 15.06 4.84a.68.68 0 00.68-.18q13.18-13.36 26.47-26.63c2.53-2.52 5.09-5 7.57-7.56a.68.68 0 00-.97-.89zm70.91 64.1c-2.79-2.69-6-5-8.6-7.88-1.14-1.26-1.88-2.82-3.18-3.94-.48-.42-1-.74-1.52-1.14a11.22 11.22 0 00-2.21-2.56 1.28 1.28 0 00-1.4-.32 8.61 8.61 0 00-3-1.54c-1.22-.24-2-.14-3.09-.9a7.57 7.57 0 00-1-.64c2.28-.59 4.54-1.23 6.78-2a1.26 1.26 0 00.9-.18l.48-.26.19-.06a1.54 1.54 0 00.49-.28 21.57 21.57 0 004.39-2.29c.76-.6 1.43-1.31 2.13-2l.9 1.22a.72.72 0 00.76.28c2.68 3.42 5.46 6.77 8.34 10a.71.71 0 001.2-.49l-.53-3.92a102.29 102.29 0 0016.9 23c1.82 1.85 3.73 3.62 5.69 5.33a26.46 26.46 0 01-9.26.25 22.91 22.91 0 01-8.51-3.44c-2.6-1.74-4.63-4.14-6.85-6.29zM382 468.37a5.85 5.85 0 01-1.22-3.66 3 3 0 01.25-.87 7.6 7.6 0 002.91 6 5.8 5.8 0 01-1.94-1.47zm115.42-42.52c-.72 1.73-1.52 3.43-2.17 5.18a38.83 38.83 0 01-3.38 7.28A71.25 71.25 0 01487 445a83.15 83.15 0 01-5.72 6.45c-1 1-1.92 2-2.92 2.9s-1.93 1.54-2.81 2.39a50.3 50.3 0 01-8 4.68l-3.58.75c-4 .86-8.07 1.7-12.13 2.46Q440 466.88 428 468.36c-1.47 0-2.94.05-4.42.15q-10.24 1.1-20.56 1.4l-1 .13c-3 .29-5.95.15-8.95.22-.56 0-1.11.07-1.66.14l-.36-.09a8.19 8.19 0 01-2-.32 5.32 5.32 0 01-3.25-.48c-3-1.46-3.68-5.16-2.16-8a6.33 6.33 0 012.29-2.41l.2-.2c.51-.28 1-.54 1.52-.77a4.61 4.61 0 01.79-.27 3 3 0 01.83.1 11.37 11.37 0 011.31-.09l1.57-.16a2.3 2.3 0 000-.26 29.82 29.82 0 002.95-.51c1.4-.33 2.74-.87 4.14-1.17s2.64-.41 3.95-.64 2.64-.67 4-1c2.25-.48 4.83-.85 6.5-2.6a9.92 9.92 0 003.08-5.73 10.33 10.33 0 00-.37-3.54c-.25-1.2-.22-2.45-.46-3.66a7.87 7.87 0 01-.13-1.59 4.68 4.68 0 000-1.06v-1.18a10.55 10.55 0 00-.35-2c.17-1 .63-1.9.78-2.89a15.67 15.67 0 00.09-2.27 16.93 16.93 0 011.51-3.33 12 12 0 001.47-3.17 22.1 22.1 0 012.05-4.17 40.15 40.15 0 014.93-6.93l2.51-2.89a10.67 10.67 0 013.31-2.35c2.45-1.31 4.75-2.91 7.4-3.84 1.33-.47 2.67-1 4-1.37a34.22 34.22 0 004.07-.88 6.18 6.18 0 011.88-.69 7.52 7.52 0 012.11.24 11 11 0 001.79.26 5.38 5.38 0 011.88.13c1.61.69 3-1.57 1.41-2.42a17.54 17.54 0 00-5.59-1.35c-2.33-.32-4.47.33-6.78.54a22.42 22.42 0 00-6.72 1.43 50.33 50.33 0 00-6.44 3.44 38.51 38.51 0 00-12.41 12.07c0-.22.09-.44.13-.66s.38-.6.55-.92c.9-1.68 1.7-4.93-1.24-5.08a5.72 5.72 0 00-3 1 13.5 13.5 0 01-2.55 1.15 100.93 100.93 0 01-20.42-24q-2.37-3.9-4.38-8c-.29-.59-1.39-.33-1.3.36q.36 2.77.73 5.57-4.26-4.89-8.2-10a11.1 11.1 0 001.21-1.26 43.24 43.24 0 003.65-4.79c1-1.77 2.26-3.51 3.18-5.33a28.49 28.49 0 003.06-12.95c0-.87-.17-1.69-.23-2.55a4.11 4.11 0 00-.94-2.67 6.26 6.26 0 00-2.17-1.24 3.43 3.43 0 00-2.66.26c-1.86.85-3 2.71-4.38 4.09-1.56 1.54-3.27 2.91-4.87 4.39s-3.36 3.38-5 5.09c-1.48 1.54-3 3.19-4.29 4.86a48.78 48.78 0 01-9.64 9.4 19.15 19.15 0 01-5.91 2.86c-2.25.65-4.53 1.18-6.83 1.61a24.87 24.87 0 01-7.74.47c-2.62-.33-5.23-.17-7.85-.38a9.79 9.79 0 01-6.47-2.61c-.45-.45-1.79-1.53-1.26-2.24s2.38-.46 3.15-.89a1.44 1.44 0 00.64-1.58h.09a14.57 14.57 0 012-.18c1.21.07 2.32.4 3.54.37a38.2 38.2 0 004.28-.19c1.52-.2 3-.59 4.56-.74 1-.09 1.93-.27 2.89-.37a.59.59 0 00.6 0h.4a26.45 26.45 0 003.67-.3c.16 0 .32 0 .47-.06 2.39-.35 5-.67 7.14-1.9a1.5 1.5 0 001.31.08 27.07 27.07 0 0012.58-11.58 1.44 1.44 0 00-.13-1.56.65.65 0 00.59-.85 20.2 20.2 0 00-1.46-3.29 1.6 1.6 0 00-.61-1c-.14-.23-.28-.45-.43-.67a.67.67 0 00-.82-.28c-.32-.47-.65-.94-1-1.42-.68-1.07-1.28-2.2-1.95-3.29-.1-.28-.22-.55-.31-.83a.71.71 0 00-1.35 0l-.82 2a24.51 24.51 0 00-2.37-3 .69.69 0 00-.85-.11 2.44 2.44 0 00-1 2c0 .42.15 1.91-.44 2.09-.28.09-.52-.4-.65-.59-.32-.47-.63-.95-1-1.43-.65-1-1.31-2-2-3a.7.7 0 00-1.3.35v1.49a20.54 20.54 0 01-2.18-4c-1.59-4.15-.61-9.27.14-13.51a19.91 19.91 0 012-6.22 19.4 19.4 0 013.74-4.54c2.71-2.59 5.77-4.95 7.61-8.3 1-1.79 1.55-3.76 2.55-5.53a12.21 12.21 0 014.51-4.11 23.67 23.67 0 0010.85-15.77l.56.43a21.44 21.44 0 005.27 6.2c1.23.92 2.57 1.65 3.76 2.62s2.44 2.11 3.76 3a33.75 33.75 0 003.9 2.06 27.83 27.83 0 014.09 3c1.18.95 2.37 1.89 3.58 2.8a42.88 42.88 0 014 2.93c1.11 1.06 12.72 11.46 16.42 14.47 15.86 12.95 48.26 45.66 49.8 47.07a31.89 31.89 0 014.11 4.27c1.19 1.57 2.28 3.21 3.57 4.71a32.37 32.37 0 013.64 4.46c1.07 1.8 1.8 3.78 2.71 5.67.12.24.26.48.38.73q1.26 1.79 2.4 3.66c1.07 1.79 2.05 3.65 2.95 5.54a21.16 21.16 0 001.32 1.79 2.7 2.7 0 000 .28 17.91 17.91 0 001.08 3.57 11 11 0 01.32 1.12.14.14 0 000 .06 64.26 64.26 0 011.88 6.68c.24 1.11.46 2.23.64 3.35.13.79.33 1.65.39 2.48.22.71.43 1.42.61 2.14a56.64 56.64 0 01-2.22 14.71zm-85 23.12a8.34 8.34 0 00.67-1.46 7.58 7.58 0 00.9-2.26 4.91 4.91 0 01-.79 2.72 8.87 8.87 0 01-.78 1.03zm-66-92.19l1.58-.42.43.47a.66.66 0 00-.65.1.63.63 0 00-.47-.21h-.08a.66.66 0 00-.28 0h-.37zm6.34-13.5a19.46 19.46 0 00-1.67-3.08c-.08-.52-.13-1-.16-1.57l1 1.52c.56.83 1.16 2.16 2.32 2.21a2 2 0 001.83-1.61 5 5 0 00.13-1.39 5.71 5.71 0 010-.69 22.29 22.29 0 012.32 3.22.71.71 0 001.28-.17l.66-1.61a36.45 36.45 0 002.55 5.26 80.77 80.77 0 00-9 7.85c-1.17-.82-.77-3.05-.62-4.26a11 11 0 00-.67-5.68zm158.84 47.16a11.82 11.82 0 00-1.78 1.49 1.41 1.41 0 00.84 2.05l.72.3c.18.06.27.19.31.19a4.3 4.3 0 01-1.2.71c-1.36.73-2.74 1.67-4.33 1.76-1.79.09-2.75-1.2-3.95-2.28s-2.59-2.34-3.78-3.64l-.89-1a12 12 0 010-2.16c.06-.62.22-1.21.26-1.83s-.07-1.3-.06-1.95a8.17 8.17 0 011.37-3.72c1-1.8 2-3.83 4.3-4a2.15 2.15 0 011.83.54c.51.69-.11 1.62-.48 2.21a1.41 1.41 0 001.21 2.1c.48 0 1.06-.13 1.46.14a3.58 3.58 0 01.78 1.37 1.62 1.62 0 01.05 1.54c-.26.45-.69.78-.93 1.28a1.42 1.42 0 00.83 2.05c.93.16 2.54-.05 3.23.69.5.58.78 1.6.18 2.16z"/>
    <path style="fill:#231f20;" d="M354.64 266.77a5.23 5.23 0 00-1.4-2.74 10.16 10.16 0 00-5.74-2.56 12.68 12.68 0 00-6.67.8.7.7 0 00.37 1.35 22.31 22.31 0 013.45-.64 10.8 10.8 0 011.51 0l-.38.2h-.09a1.73 1.73 0 00-.77.52 2.4 2.4 0 00-1.43 1.46 2 2 0 000 1.13 2.21 2.21 0 00-.08.37c-.26 1.94.88 3.89 3 3.88 2.77 0 4.33-3.13 3.89-5.67h.06a.67.67 0 00.61-.16 4.76 4.76 0 012.33 2.41 4.06 4.06 0 01-.62 2.88 6.08 6.08 0 01-2.33 1.46c-3.88 1.33-7.59-1-10.3-3.63-.64-.62-1.63.36-1 1 2.67 2.59 6.15 4.85 10 4.36l.21-.05a.68.68 0 00.79.37 6.61 6.61 0 001-.38h.18a.92.92 0 00.87-.61 6.32 6.32 0 001.76-1.81 4.4 4.4 0 001.05-2 3.74 3.74 0 00-.27-1.94zM238 238.65a1.57 1.57 0 00-1.29-.86 1.37 1.37 0 00-1.25 1.15 13.75 13.75 0 00-.11 2.57c0 .91-.05 1.81-.07 2.72v.72c-.5 5.4-.81 10.8-.89 16.22q-.07 5.06.11 10.11 0 1.11.09 2.22a17.5 17.5 0 00.15 2.61 1.51 1.51 0 002.51.82c1-.86.79-2.61.81-3.81l.06-5.11.12-10.09c0-3.37.09-6.73.13-10.1l.06-5.11c.01-1.3.3-2.89-.43-4.06zm-1 2.31v.3a.54.54 0 00-.26-.56v-.52c0-.17.06-.46.06-.7a3.18 3.18 0 01.25 1.52zm-.83 35c-.23 0-.13-.23-.15-.45 0-.37 0-.75-.06-1.13a.69.69 0 00.34-.39c.11-.35.21-.71.3-1.07v1.74c.02.22.07 1.25-.38 1.26zm15.89-22.31a4.13 4.13 0 00.66-1.56.69.69 0 00-.15-.75c-.39-.68-1.34-1.09-2-1.51l-5.17-3.45h-.1l-.23-.18c-.62-.47-1.23.39-.92 1a.7.7 0 00-.51 1.27l5.87 4.22-.09.09c-.52.78-1 1.57-1.54 2.37a26.92 26.92 0 00-2.12 3.44c-.38.57-.76 1.15-1.15 1.72a.58.58 0 000 .57l-.31.57a.75.75 0 00-.08.31l-.22.24c-.4.53.22 1.1.76 1a.65.65 0 001.07.15 32.75 32.75 0 005.72-8.33c.14-.22.29-.44.42-.67a.66.66 0 00.08-.41 1 1 0 000-.1zm-21.15 9.79l-1.29-.59a1 1 0 00-.22-.17c-1.43-.71-2.91-1.35-4.41-1.92l-2-.92a.85.85 0 00-1 1.22l-.12-.06a3.6 3.6 0 01-.76-.48c.29-.3.55-.61.82-.92a.64.64 0 00.72-.15 19.44 19.44 0 004.89-9.35.74.74 0 00-.21-.65.72.72 0 00-1.28-.17l-.23.37c-.18.21-.35.43-.52.65a.62.62 0 00-.94.22l-1.54 3a52.94 52.94 0 00-3.56 5.75.67.67 0 00.07.76 2.14 2.14 0 00.16.65 3.5 3.5 0 001.8 1.63c2 1 4 2.07 6 3.06a3.48 3.48 0 002.66.44 2 2 0 001.36-1.74.68.68 0 00-.4-.63zm15.54 16.17a7 7 0 00-1.49.71l-1.51.78c-.94.48-1.89 1-2.85 1.41q-3 1.44-6 2.7c-.82.34-.46 1.69.37 1.35a126.1 126.1 0 006.18-2.74c1-.49 2.05-1 3.06-1.51a13.62 13.62 0 002.91-1.64.64.64 0 00-.67-1.06zm2.44 7.19a17.3 17.3 0 00-2.43 1.05l-2.25 1-4.83 2.23-9.56 4.4c-.81.37-.1 1.58.71 1.2l9.44-4.35 4.61-2.12 2.36-1.08a17.93 17.93 0 002.45-1.2.64.64 0 00-.5-1.13zm-.09 7.2a7.75 7.75 0 00-1.66.93l-1.69 1.07-3.38 2.11-6.77 4.23c-.76.48-.06 1.69.71 1.21l6.76-4.23 3.38-2.11 1.7-1.06a7.69 7.69 0 001.57-1.08.64.64 0 00-.62-1.07zm2.45 8.56c-1.46.53-2.85 1.24-4.26 1.89l-4.41 2-8.7 4c-.82.38-.11 1.58.7 1.21l8.6-4 4.18-1.93c1.46-.67 3-1.29 4.38-2.09.61-.26.2-1.33-.49-1.08zM240.59 227a34.35 34.35 0 00-4 1l-4.1 1.13-8.07 2.23a.7.7 0 00.37 1.34l8.07-2.22 4-1.1a34 34 0 004.08-1.19.63.63 0 00-.35-1.19zm.01-6.93a11.48 11.48 0 00-1.81.56c-.6.19-1.2.38-1.81.55-1.18.34-2.36.63-3.56.88a51.63 51.63 0 01-7.43 1c-.89.05-.9 1.45 0 1.39a55.46 55.46 0 007.69-1c1.23-.26 2.46-.56 3.67-.91.65-.18 1.29-.38 1.92-.59a8.39 8.39 0 001.82-.71.64.64 0 00-.49-1.17zm-1.75-6.27a7.66 7.66 0 00-2 .28l-2 .37c-1.36.26-2.73.53-4.09.81q-4.08.86-8.12 1.86a.7.7 0 00.37 1.35q4-1 8.13-1.86c1.32-.27 2.64-.54 4-.79l2-.37a8.89 8.89 0 002.07-.46c.6-.29.2-1.14-.36-1.19zm165.36 92.85a8 8 0 00-1-1.44l-1.08-1.38-2.13-2.73a.71.71 0 00-1 0 .73.73 0 000 1l2.08 2.69 1.05 1.34a7.11 7.11 0 001.08 1.3.64.64 0 001-.78zm-2.62 5.35c-.6-.85-1.35-1.59-2-2.42a27 27 0 01-1.76-2.6.7.7 0 00-1.21.71 27.66 27.66 0 001.79 2.63 12.9 12.9 0 002.15 2.45.64.64 0 001-.77zm22.91 20.93c-.47-.62-1-1.16-1.53-1.74s-1-1.18-1.52-1.79a38.87 38.87 0 01-2.62-3.76.7.7 0 00-1.2.71 42.73 42.73 0 002.75 3.94c.49.61 1 1.21 1.51 1.79a12.3 12.3 0 001.75 1.71c.49.38 1.24-.37.86-.86zm4.92-6.08a16.44 16.44 0 00-1.19-1.68l-1.23-1.61-2.47-3.25a.71.71 0 00-1-.25.7.7 0 00-.25 1l2.5 3.3 1.32 1.64a14.12 14.12 0 001.33 1.65.63.63 0 00.99-.8zm6.14 22.01c-.12-.44-.61-.61-1-.8s-.61-.33-.9-.5l-.85-.54-.4-.28-.22-.17-.09-.07a.75.75 0 00-.49-.21.73.73 0 00-.5.21.71.71 0 000 1 18.41 18.41 0 001.85 1.28c.29.17.59.34.9.5a4.44 4.44 0 00.49.24l.33.14a.78.78 0 00.6-.07.63.63 0 00.28-.73zm6.81-5.19a12.83 12.83 0 00-1.2-1.45l-1.26-1.39-2.47-2.75a.7.7 0 00-1 1l2.44 2.71 1.19 1.31a11.85 11.85 0 001.3 1.35.63.63 0 001-.77zm4.63-4.26a30.32 30.32 0 00-2.3-3l-2.31-2.91a.69.69 0 00-1 0 .69.69 0 000 1l2.27 2.88a30.09 30.09 0 002.32 2.83.64.64 0 001.02-.8zM457.44 359l-.43-.74-.9-1.56-1.81-3.14a.7.7 0 00-1.21.7l1.81 3.14.91 1.57.42.73a1.75 1.75 0 00.66.81.62.62 0 00.92-.53 1.77 1.77 0 00-.37-.98zm-3.51 3.09a4.82 4.82 0 00-1-1.37l-1-1.18c-.66-.78-1.32-1.57-2-2.36a.71.71 0 00-1 0 .72.72 0 000 1l2.07 2.32 1 1.14a4.85 4.85 0 001.11 1.15c.35.26 1.01-.18.82-.7z"/>
  </g>
</svg>