<svg xmlns="http://www.w3.org/2000/svg" viewBox="0 0 684 684">
  <path class="svg-bg" d="M363.93 30.23c-146.42 0-297.22 81.91-331.73 224.21C21.1 300.17 21 347.75 21 394.81c0 47.83 12 91.41 34.79 133.45 37.54 69.14 74.19 86 130.05 103.45 82.25 25.68 170.18 28 254.8 11.81C542.92 624 614.24 571.9 637.76 488.84c11.5-40.61 27-80 31-122.07 7.37-77.61-2.68-161.17-50.86-222.46C553.52 62.39 452.58 30.23 363.93 30.23z" id="Management_Circle" data-name="Management Circle"/>
  <g id="Black_Outlines_Objects" data-name="Black Outlines Objects">
    <path style="fill:#f9f9fa;" d="M508.31 424a3.33 3.33 0 00-.73-1.66 3.86 3.86 0 00.06-.49 2.85 2.85 0 000-2.94 2.13 2.13 0 00-.37-.46 6 6 0 00-1.85-5.13 5 5 0 00-7.13.5 5.57 5.57 0 00-1.4 4.89 1.12 1.12 0 00-.18.2 2.14 2.14 0 00-.37 1 19.17 19.17 0 00-.85 1.77c-.22.21-.42.44-.63.67a.84.84 0 00-.25-.28v-.15c-.07-.28-.15-.56-.22-.84-.17-.64-.34-1.28-.5-1.92l-.92-3.48c0-.22-.11-.43-.16-.65q-.57-2.6-1.34-5.14c-1.09-5.15-2.33-10.28-3.74-15.35-.54-2-1.12-3.89-1.7-5.82.78-1.55.43-3.19.5-4.84a2.78 2.78 0 01.79-2 4.28 4.28 0 012.06-.85c1.55-.31 3.11-.41 4.64-.87a18.85 18.85 0 004.41-2 19.42 19.42 0 006.65-6.83c1.46-2.54 3-6.27 1.46-9.1a3.32 3.32 0 00-1.88-1.63 2.13 2.13 0 00-1.7-1.47 3.92 3.92 0 00-2.66.73l-3 1.81-5.87 3.57c-.94.57-1.87 1.18-2.84 1.7a3.76 3.76 0 01-2.83.47 15.26 15.26 0 01-4.89-2.75 26.16 26.16 0 01-4-3.76 38.31 38.31 0 01-6-9.86 103.51 103.51 0 01-4.14-12c-.28-.92-.55-1.85-.82-2.77a17.09 17.09 0 00-1.34-4.7c-.48-1.72-.93-3.45-1.32-5.19-.49-2.14-.91-4.3-1.19-6.48-.25-1.89-.36-3.78-.51-5.67-.26-3.13-.68-6.53-2.68-9.09-.14-.17-.3-.32-.45-.48 1.15-.14 2.28-.32 3.41-.55a36 36 0 0015.77-6.1.71.71 0 00.86.19 14.15 14.15 0 002.18-1.36 18.25 18.25 0 005.64-6.28 7.43 7.43 0 00.89-5.4 5.14 5.14 0 00-.38-.94 5.61 5.61 0 00-1.64-2.34.55.55 0 00-.22-.46l-.15-.1h-.06a5.75 5.75 0 00-3.66-1.14 8.62 8.62 0 00-4 .68.56.56 0 00-.31.33 19.41 19.41 0 00-5.24 2.69 30.58 30.58 0 00-4.81 4.13 31.34 31.34 0 00-2.61 3.24c-.05.06-.11.12-.16.19a7.53 7.53 0 00-1.68 2.62c-.19.89.9 1.84 1.65 1.08a.86.86 0 00.14-1.06 36.09 36.09 0 015.59-5.53 23.88 23.88 0 014.07-2.21 24.45 24.45 0 015.49-1.58 11 11 0 013.31-.17 3.68 3.68 0 011.75 2.75.7.7 0 00.85.65 5.86 5.86 0 01-.65 1.55 31.11 31.11 0 01-2.35 2.78c-.63.58-1.28 1.13-1.93 1.66a41.91 41.91 0 01-4.27 3.06.71.71 0 00-1-.85 60.92 60.92 0 01-18.1 6.6.55.55 0 00-.39.25.7.7 0 00-.52 1l2.84 4.81a24.16 24.16 0 01.89 6.43 14.07 14.07 0 01-.37 4.51q-3.34 4.3-7.07 8.29l-6.65 3c-1.95.87-4.16 2.28-6.39 1.82a7.35 7.35 0 01-4.56-3.34 7.74 7.74 0 01-.43-.73.58.58 0 00.35-1v-.06a4.76 4.76 0 012.63-2 .67.67 0 00.32-.21 17.44 17.44 0 004.33.21 12.33 12.33 0 0012.45-5.41.73.73 0 00.09-.23 4.85 4.85 0 00.53-1.61.71.71 0 00-1.06-.6l-3 2a30.13 30.13 0 01-18.67 2.09.67.67 0 00-.64.17.69.69 0 00-.72.86c.05.2.12.42.17.63-4.54-.62-8.58-3.89-11.14-7.66a36.4 36.4 0 01-2.3-3.93.58.58 0 00.43-.76c-.29-.69-.85-1.25-1.16-1.95a7.57 7.57 0 01-.61-2.15 10.68 10.68 0 01.54-4.79 21.69 21.69 0 012.29-4.63 8.16 8.16 0 012.77-3 3.21 3.21 0 00-.48.7.72.72 0 00.21.87 2.42 2.42 0 00.14.51.72.72 0 001 .42 5.13 5.13 0 012.2-.79l2.13.16c.8.07.93-1.17.19-1.37a6.46 6.46 0 00-2.35-.19l-.93-.07a12.1 12.1 0 013.68-.46 31 31 0 014 .09c4 .68 7.86 2.2 11.79 3.34a31.79 31.79 0 012.79 1.58.63.63 0 00.66 0h.07l.38.14a.91.91 0 00.17.09l.9.27a.56.56 0 00.44 0h.06a4.2 4.2 0 00.87.18 2.68 2.68 0 002.62-1.39.63.63 0 00.33-.76v-.06a5.62 5.62 0 00.12-1.47.69.69 0 00.15-.59c-.14-.72-.23-1.43-.3-2.15-.27-3.89.93-7.8 2.44-11.35.18-.42.37-.84.56-1.26a22.68 22.68 0 014.41-4.81 27.56 27.56 0 016-3.67 20 20 0 012.64-.79.6.6 0 00.48-.45l.74-.26c.6-.19.72-1.21 0-1.35-4.28-.8-8.43 1.18-11.32 4.26a22.08 22.08 0 00-8.29 15.6 22.22 22.22 0 00.85 7.86 9.41 9.41 0 01-2.24-.34 38.18 38.18 0 00-18.86-5.93 12.17 12.17 0 00-4.62.1.61.61 0 00-.55-.07 16.94 16.94 0 00-7.69 5.22c-2.13 2.57-3.8 6-3.29 9.38a20.25 20.25 0 001.79 5.16 37 37 0 002.43 4.62 21.17 21.17 0 006.89 7.1 15.35 15.35 0 006.4 2.15c.05.21.1.41.16.62a3.38 3.38 0 00.13.42 19.57 19.57 0 00.9 2.39A11.47 11.47 0 00432 330a44.65 44.65 0 00-.78 4.88 22.4 22.4 0 01-1.14 4.49c-2.06 5.63-5.88 10.5-7.11 16.45a14.31 14.31 0 00.91 9.41.88.88 0 00.12.15 1.28 1.28 0 000 .19c-.09 1.45-.15 2.91-.17 4.37v3.83c0 .57 0 1.15.07 1.72a6.43 6.43 0 00.15 1.87.83.83 0 00.38.42c0 .19.05.39.08.58a.7.7 0 001 .42 4.45 4.45 0 001.34-1.53.73.73 0 00.79.05l1.39-.88a5.5 5.5 0 01.42.46 5.88 5.88 0 011 2.69 30 30 0 01.1 7.15c-.16 2.27-.29 4.53-.3 6.81a82.36 82.36 0 001.09 13.39q.24 1.47.54 2.94c.34 6.74 1.4 13.48 4.23 19.62.33 1 .67 1.92 1.06 2.86 1.06 2.6 2.3 5.83 4.91 7.27a4.18 4.18 0 002.55.49c.14.19.25.4.39.59a.71.71 0 001.1.14 1.39 1.39 0 00.51-1.34 5.81 5.81 0 001.35-.34.7.7 0 00-.23-1.36 9.11 9.11 0 00.51-1 24.73 24.73 0 001.64-9.79 89.61 89.61 0 00-.95-10.58l-.45-3.52q.11-3.62-.09-7.24a.55.55 0 00.12-.35 40.67 40.67 0 00-.57-9.22 21.22 21.22 0 00-2.96-10.74l-1.35-10.61a30.71 30.71 0 00.13-5.25.77.77 0 00-.88-.68c-.1-.52-.76-1-1.19-.46a2.58 2.58 0 01-.34.32.84.84 0 00-.88.5 3.08 3.08 0 01-3.25-.61 5.29 5.29 0 01-.32-1.58c-.07-1.31 0-2.82-.74-4a2 2 0 00-3.14-.3 4.56 4.56 0 00-.91 2.14 6.82 6.82 0 00-.39.64 22.22 22.22 0 00-1.52-3.59c-.14-.32-.27-.63-.41-.94a.71.71 0 00-1.1-.14 1.14 1.14 0 00-.11.11 5.45 5.45 0 00-1.14-2.13.61.61 0 00-.79-.12.65.65 0 00-1-.05 7.69 7.69 0 00-1.62 2.8c-.69-4.3 1.08-8.87 3-12.65 1.27-2.53 2.67-5 3.77-7.61a24.73 24.73 0 001.34-4c.35-1.48.49-3 .7-4.48a18.21 18.21 0 01.53-2.58 8.82 8.82 0 004.2 3.68 6.44 6.44 0 003.07.47 11.08 11.08 0 003.3-1.06l7.24-3.22a.65.65 0 00.34.23 1.79 1.79 0 001.37-.22.63.63 0 00.52.08c1.68-.63 3.05 1.2 3.32 2.67a9.66 9.66 0 01.1 2.28.7.7 0 00-.64 1.16 1.55 1.55 0 00.54.33 13.28 13.28 0 000 2.6c.42 3.16 2.14 5.88 4 8.4a4.66 4.66 0 00-1 .11.7.7 0 00-.48.86 54.74 54.74 0 008.17 15.9.74.74 0 001 .25 6.62 6.62 0 001.34-.85 22.5 22.5 0 001.45 3.61c.51 1 1.73 3.91 3.27 2.64a2.29 2.29 0 00.73-1.68 4 4 0 012.17.68 12.8 12.8 0 001.74 2 15.35 15.35 0 004.66 2.16.62.62 0 00.59-.13 10.64 10.64 0 004.75.92.66.66 0 00.4-.16 8.91 8.91 0 002-.27.6.6 0 00.45-.4h.05a18.66 18.66 0 004.51-1.31 16.33 16.33 0 006.38-5 1.34 1.34 0 00.11-.14.62.62 0 00-.22-.91 6.7 6.7 0 001.88-3.54 3.05 3.05 0 01.93 1.95 9 9 0 01-.78 4.28 16.62 16.62 0 01-2.07 3.76 18.23 18.23 0 01-6.54 5.54 17 17 0 01-4.06 1.42 39.15 39.15 0 00-4.17.75 4 4 0 00-2.88 3.26 14.45 14.45 0 000 2.46c-.06-.12-.1-.24-.16-.36a.85.85 0 000-.17c-.4-.8-.79-1.6-1.18-2.4a13.23 13.23 0 00-.83-1.69.64.64 0 00-.59-.34l-1.13-1.93a.69.69 0 00-1-.18l-.43-.4a.71.71 0 00-1.17.68 69.44 69.44 0 002.21 10.28c-.84.41-.88 1.52-.76 2.35.41 2.82.88 5.63 1.32 8.45.49 3.11 1 6.21 1.46 9.32-.47 5.65 1 11.19 2.59 16.57l.06.41a.69.69 0 00.16.32l.12.42v.06a3.45 3.45 0 001 3.3 89.25 89.25 0 013.08 15.27 56.63 56.63 0 01.18 9.39c-.09 1.37-.38 2.94.39 4.18a3.06 3.06 0 00.7.78v.69l-.12.49a.7.7 0 00.12.58v2.43a.7.7 0 001.39 0c.06-.54.12-1.07.17-1.6a.58.58 0 00.63-.18 7 7 0 00.44-.67.81.81 0 00.39-.42 8.59 8.59 0 011.44-3.7 13 13 0 00.79-3.86 90.28 90.28 0 00.1-9.45c-.08-3.37-.28-6.72-.59-10.07q.36-3.44.79-6.87a8.13 8.13 0 004.9 4.73c1.29.44 3 .56 4-.57a2.09 2.09 0 00.49-1.25c.13-.24.25-.5.36-.75.27-.6.6-1.16.92-1.73a5.76 5.76 0 00.94-3.75zm-64.4-36.23l1.2 9.43c-.2-.58-.42-1.17-.65-1.74 0-.5-.07-1-.11-1.48a.59.59 0 00.18-.49c-.17-1.73-.39-3.45-.63-5.17l-.06-.78c.02.03.05.11.07.18zm-12.19 4l.06-1.46c.06 2.5.05 5 0 7.5-.08-2.03-.11-4.05-.06-6.06zm1.52-66.69a13.52 13.52 0 001.41-.16l.68.08a6.54 6.54 0 00-1.61 1.45 6.75 6.75 0 01-.48-1.39zm53.88 44.37a5.63 5.63 0 00-.62-.37l-.37-.25a4.43 4.43 0 001.32-.09.71.71 0 00.38.86zm13.23-6.88a10.8 10.8 0 00-1.77 1.12 2 2 0 00-.65.28c-.47.15-.94.32-1.41.5l.27-.16c1.25-.78 2.48-1.67 3.78-2.37a2.1 2.1 0 00-.22.61zm5 55.09a2.68 2.68 0 00-.69-.17 3 3 0 00-1.5.23 1.57 1.57 0 00.05-.3 2.85 2.85 0 00-.76-2.17l-.24-.2-.2-.53a.72.72 0 00-1-.25 7.14 7.14 0 00-2.81 2.33 4.6 4.6 0 012.54-2.94 3.48 3.48 0 014.16 1.19 4.55 4.55 0 01.94 2.84 3.08 3.08 0 00-.5-.05z"/>
    <path style="fill:#f9f9fa;" d="M449.69 306.61q-.33-.33-.69-.63a4.92 4.92 0 00-2-1.64 4.67 4.67 0 00-1.18-.39 2.27 2.27 0 00-2.58-.13l-.09.06a1.74 1.74 0 00-1.29.78c-.84 1.32-.07 2.63 1 3.63a6.42 6.42 0 001.43 1.27 8.32 8.32 0 003.37 1.42c1.12.17 2.65 0 3.3-1.09s-.47-2.48-1.27-3.28zm-1.25 2.71a.61.61 0 00.19-.2 1 1 0 00.49-.29c.13.11.25.24.24.34s-.63.18-.78.18zM345 436.14c-8.57-6.16-19.25-1.11-28.42.74h-2a.71.71 0 00-.52-.26 59.44 59.44 0 00-10.67.18.74.74 0 00-.52.3l-4.58.19a6.69 6.69 0 00.37-4.12c-.82-3.56-4.26-5.86-6.16-8.81-2.24-3.49-3.39-7.6-4.56-11.55-1.24-4.22-2.31-8.5-3.2-12.81-1.63-7.9-3.43-16.69-1-24.61 2.23-7.41 8.52-12.2 14.38-16.73 11.52-8.9 22.25-18.89 31.08-30.5 8.67-11.4 15.44-24.5 18.19-38.64.73-3.77 1.32-8-.19-11.69-1.18-2.87-3.66-5.36-6.86-5.7-3.57-.37-7.33 1.82-10.11 3.85a27.07 27.07 0 00-6.93 7.46 26.78 26.78 0 00-2.26 4.59.77.77 0 000 .25 69.277 69.277 0 00-5.64 4l-.23.19c-2.12 1.3-4.17 2.7-6.18 4.17-3 1.94-6.09 3.84-9.19 5.66q-4.51 2.15-8.82 4.67l-10.69 4.46c-4.41 1.05-8.79 3-13.22 4.15q-7.78-1.87-15.44-4.25l-1-1.72a9 9 0 005.46-2c1.71-1.59 2-4 2.08-6.24.05-2.77 0-5.52.22-8.29a56.7 56.7 0 011.55-8.88c.63-2.46 1.34-5.12 3.31-6.86s4.75-2.49 7.16-3.4l8.66-3.3c1.37-.52 2.75-1 4.11-1.56a12.24 12.24 0 003.13-1.62 5.2 5.2 0 001.5-1.82.64.64 0 00.67-.49 45.62 45.62 0 00.79-15.32h.05a.71.71 0 00-.14-1.1 2.38 2.38 0 00-.47-.16 2.34 2.34 0 00-.83-.1 1.42 1.42 0 00-.39-.29s-.07-.11-.12-.17c-1.22-1.31-2.94-1-4.48-.57.11-.47-.31-1.08-.86-.89l-.67.24a.78.78 0 00-.05-.14.7.7 0 00-.46-.94 22.79 22.79 0 01-14.26-8.61c-.82-1.08-1.48-2.47-2.82-3s-2.92.23-4.21.88a8.68 8.68 0 01-4.59.94 7.52 7.52 0 01-.83-.09h-.05a29.78 29.78 0 00-7-2.88 31 31 0 00-3.51-.87c-1.56-.34-3.13-.62-4.69-.89a.67.67 0 00-.37-.33 13.65 13.65 0 00-2-.59.6.6 0 00-.25-.22l-.17-.07a8.87 8.87 0 00-6.86-.06 9.56 9.56 0 00-3 1.89 14.19 14.19 0 00-3.52 2.69l-.64-.68a.71.71 0 00-.6-.18l-1.42-2.3a24 24 0 00-1.95-2.93 3.89 3.89 0 00-2.69-1.49 3.71 3.71 0 00-2.48 1l-.38.35h-.14a2.15 2.15 0 00-.27.1 1.64 1.64 0 00-.93.15 2.62 2.62 0 00-1.16 1.45 4.69 4.69 0 00-.5 1 2.27 2.27 0 00-.81 1.31 8.55 8.55 0 00.39 3.58 16.9 16.9 0 003.42 6.66c.84 1 1.84 1.93 3.23 1.67a.71.71 0 00.49-.86l-.83-4.23c0-.08 0-.16-.05-.24a7.16 7.16 0 00-.24-1.78 9.25 9.25 0 00-.32-.93 9.91 9.91 0 01-.12-1.08 1.82 1.82 0 01.34-1.4.7.7 0 01.2-.15 1.85 1.85 0 00.45-.11 2.57 2.57 0 00.72-.11h.09a15.63 15.63 0 013 1.16 10.35 10.35 0 001.92 1.76 3.83 3.83 0 002.59.74 3.49 3.49 0 002.29-1.5 15.71 15.71 0 011.78-2.2 8.13 8.13 0 012.25-1.46l.23-.09a13.5 13.5 0 015.3-.1l1.77.71a.72.72 0 00.28.05.87.87 0 00.27.15l10.38 3.42a32.5 32.5 0 004.79 1.28l.49.3a14.37 14.37 0 00-5.73 6c-.29.56.35 1.4 1 1a32.19 32.19 0 014.13-2.6.67.67 0 01.23.1 1.46 1.46 0 01.21.16c0 .18-.08.36-.1.52a4.61 4.61 0 000 .52l-.07.07a2.68 2.68 0 00-.86 2.11.6.6 0 00-.05.35 1.49 1.49 0 00-.15.4.71.71 0 00.49.86l.46.11a3.18 3.18 0 002.13 1.07 5.39 5.39 0 003.82-1.45.7.7 0 00.11-.84l-.19-.37a.52.52 0 000-.42 2.17 2.17 0 00-1.34-1.23 2.68 2.68 0 00-.83-.41 2.41 2.41 0 00-1.87.3.81.81 0 01-.17-.24 1.91 1.91 0 00.08-1.65 3.09 3.09 0 00-.1-1.88.86.86 0 00-.18-.39.88.88 0 00-.41-.23.66.66 0 00-.59.13.72.72 0 00-.27.15h-.23a13.87 13.87 0 012.3-1.35.61.61 0 00.31-.77 9.63 9.63 0 002-.22c1.53-.35 2.79-1.42 4.31-1.74s2.35 1.36 3.15 2.43a23.92 23.92 0 0013.41 8.89l-4 .34a10.38 10.38 0 01-4.86-2.04 9.22 9.22 0 01-2.88-3.38c-.7-1.39-1-3.12-2.54-3.87a.71.71 0 00-1 .79c1 3.79 2.91 7.5 6.19 9.79a10.32 10.32 0 0010.34 1c.29 0 .58-.08.86-.14a3.35 3.35 0 001.58.8 5.42 5.42 0 002.59-.22l.47-.17a3.35 3.35 0 00-1 1.08.72.72 0 00.42 1 3.4 3.4 0 002.88-.34v.15a.63.63 0 00-.09.31l-.57 11a5.26 5.26 0 01-1.13 2.8 7.7 7.7 0 01-2.91 1.8c-1.28.52-2.59 1-3.88 1.48L271 272.3a42.87 42.87 0 00-7.26 3.05 10.18 10.18 0 00-4.25 5.59 46.37 46.37 0 00-1.93 8 59.29 59.29 0 00-.77 8.51c0 2.53.46 5.51-.69 7.87s-4.11 2.79-6.58 3a.71.71 0 00-.6 1.05l.32.58a15.75 15.75 0 00-2.55-2.13 5.6 5.6 0 00-5.11-.39 3.15 3.15 0 00-1.75 1.91c-.92-.65-1.85-1.28-2.78-1.91a20.21 20.21 0 00-3.56-2.81 20.09 20.09 0 00-21.17.28.71.71 0 000 1.21l20.45 12.21a2.45 2.45 0 002.08 1.24l2.44 1.45a.61.61 0 00.53.08 1.22 1.22 0 001.38.19 1.56 1.56 0 00.81-1.1 2 2 0 001.11-.8 2.33 2.33 0 00.32-.31.7.7 0 00.12-.71 5.15 5.15 0 00.37-3c0-.35-.09-.71-.14-1.08l.52.47a25.6 25.6 0 002.81 2.13 28.93 28.93 0 002.86 1.61.68.68 0 001.06.49c7.91 3.49 17.1 3.18 25.43 1.15a98.43 98.43 0 0015.12-5.18 118.62 118.62 0 0013.7-6.9A120.25 120.25 0 00316 299.4c2-1.54 3.86-3.25 5.87-4.77l.63-.47c.57-.34 1.13-.71 1.69-1.09a7.74 7.74 0 014-1.17 5.53 5.53 0 013 1.18 3.88 3.88 0 003 .78c2-.43 3.19-2.51 3.92-4.2a16.05 16.05 0 001.06-3.07 3.69 3.69 0 00.24-3.4.73.73 0 00.23-.61c.43-.32.47-1.14-.18-1.24h-.19a15.74 15.74 0 00-2.65-.13 3.52 3.52 0 00-.86 0 2.94 2.94 0 00-.78.11 15.39 15.39 0 00-7.44 3.23l-.09.11c-1.5.76-3 1.59-4.42 2.46a24.63 24.63 0 0113.68-13 7 7 0 015.52 0 7.91 7.91 0 013.34 3.24c2.07 3.58 1.41 7.86.63 11.71-2.72 13.57-9 26.1-17.17 37.18-8.39 11.34-18.71 21.18-29.76 29.89-5.41 4.26-11.43 8.32-14.88 14.45-3.75 6.68-3.37 14.58-2.28 21.9a154.42 154.42 0 005.84 24.67 29.79 29.79 0 004.86 9.84c2 2.46 5.2 5 4.73 8.53a4.21 4.21 0 01-.61 1.75l-.84-.12a.75.75 0 00-.87.72h-.56a.71.71 0 00-.68.88 4.75 4.75 0 002.84 3.28 10.08 10.08 0 005.42.36c2.81-.38 5.63-.77 8.44-1.17.75-.07 1.5-.13 2.24-.21a72.35 72.35 0 008.2 0 56.7 56.7 0 005.83.07 21.75 21.75 0 015.42 1.1 12.76 12.76 0 014.38 2.51 10.4 10.4 0 012.69 4.09c1 2.35 2.53 5.77 5.72 4.69a3.6 3.6 0 001.47-1 2.36 2.36 0 00.59-.35 2.39 2.39 0 00.74-1.34 2.06 2.06 0 00.75-2.31 10.24 10.24 0 00.78-2.58 10.06 10.06 0 00-4.49-9.76zM215.87 229a.65.65 0 00-.24 0 1.52 1.52 0 00-.27-.68 2.64 2.64 0 011.76 1.1 6.59 6.59 0 00-1.25-.42zm67.55 19.89h-.37a8.61 8.61 0 011.39-.36 3.22 3.22 0 01.76 0 5.22 5.22 0 01-1.78.34zm-40.55 64a.79.79 0 00-.27.15 10.42 10.42 0 01-.78-.83.54.54 0 010-.1.72.72 0 00.36-.35h.14a5.29 5.29 0 00.32.5c.13.2.26.4.41.59zm89.25 127.76l1-.14a1.8 1.8 0 00.06.22l.19.35c-.37-.15-.83-.29-1.25-.42z"/>
    <path style="fill:#231f20;" d="M360.22 423.21a4.79 4.79 0 00-3.17-.58c-3.08.32-6 1.69-8.82 2.94-1.6.73-3.19 1.49-4.79 2.21l-1.05.47c.09-.12.16-.25.25-.37a1.28 1.28 0 00.9-.93 5.74 5.74 0 00.16-1 25.42 25.42 0 001.72-6.53 48.69 48.69 0 00.67-6.26 6.92 6.92 0 00-1.19-4.52 6.21 6.21 0 00-4.78-1.86 32.14 32.14 0 00-8.61 1.21 102.22 102.22 0 00-17.32 6.46c-2.86 1.3-5.68 2.66-8.64 3.72a31.21 31.21 0 01-5 1.42 9 9 0 01-4.16 0 3 3 0 01-2.11-2.23 7 7 0 01-.15-2.37c0-.25.05-.5.07-.75.08-.48.15-1 .22-1.41a40.58 40.58 0 00.42-7.06 51.21 51.21 0 00-1.27-15.46 97 97 0 00-3.72-12 38.23 38.23 0 00-2.39-5l.34.41a15.27 15.27 0 011.46 2.58c1.14 2.34 2.27 4.69 3.23 7.11 3.43 8.68 4.06 18.31 3.75 27.55a41.55 41.55 0 01-.8 7.21.71.71 0 001 .79l1.12-.7h.13a20.2 20.2 0 005.46-1.39c1.71-.68 3.36-1.51 5.1-2.11 1.21-.41 2.63-.46 3.51-1.52a3.82 3.82 0 00.37-3.72c-.39-1.28-1-2.47-1.38-3.75-.57-2-.89-4-1.27-6.07-.79-4.16-1.48-8.35-2.48-12.47-.43-1.77-.95-3.51-1.47-5.25a.64.64 0 00.14-.61c-.61-2.1-.7-4.37-1.58-6.35a54.08 54.08 0 00-3.28-10.92 7.4 7.4 0 01-.62-4.66.69.69 0 00.36-.16c8.25-7.46 16.95-14.52 24.12-23.08a112.43 112.43 0 009.74-13.89 97.31 97.31 0 007.78-15.59c1.18-3.08 2.08-6.26 3.09-9.4s1.91-6 2.6-9.08a.75.75 0 00.06-.13c.05-.28.11-.56.16-.84a26.3 26.3 0 00-.15-9.65c-.09-.44-.2-.89-.32-1.36a1.48 1.48 0 00-.17-.62 14.68 14.68 0 00-.9-2.27 3.77 3.77 0 00-1.94-3 1.47 1.47 0 00-.51-.58 3.68 3.68 0 00-3.11-.48 4.26 4.26 0 00-3.33 1.2 13.43 13.43 0 00-1.29.7 115.06 115.06 0 00-13.27 8.25 23 23 0 00-8 5.67 193.81 193.81 0 01-4.79 3.3q-7.32 4.86-14.9 9.39a136.89 136.89 0 01-15.65 8.18 73.15 73.15 0 01-7 2.78c-2 .65-4.64 1.42-6.73.59-2.12-4.32-1-9.83-3.59-13.94a2.62 2.62 0 01.14-.45 1.4 1.4 0 001.56-2.3 2.73 2.73 0 001.23-1.55 3.48 3.48 0 00-1.31-3.58 4.08 4.08 0 00-.62-1.78l.45-.23a6.54 6.54 0 003-3 1.4 1.4 0 00-1.56-2 2.63 2.63 0 01-.47.06 3.7 3.7 0 00.19-1.89 6 6 0 001.87-2.4 3.2 3.2 0 011.4-1.71 4.16 4.16 0 01.54-.23l1.65-.25a22.08 22.08 0 005.33-.36 8 8 0 002.56-1.15 1.18 1.18 0 001-.39l1.1-1.23a1.42 1.42 0 00.38-.85c.39 0 .79 0 1.18-.05s.76-.06 1.15-.12a1.05 1.05 0 00.35-.13 8.36 8.36 0 004.56-3.6 1.3 1.3 0 00.2-.66 10.34 10.34 0 001-8.12 11 11 0 002.65-6.26c.22-1.54.52-3.21-.64-4.47s-2.83-1.3-4.38-1.15a1.24 1.24 0 00-.66-.31c-3.87-.66-7.86-1.09-11.66-2a7.63 7.63 0 01-4.3-2.4c-1.1-1.36-1.74-3-2.81-4.43a6.82 6.82 0 00-3.92-2.69c-1.87-.37-3.5.73-5.32.6s-3.58-1.43-5.15-2.38a31.54 31.54 0 00-5-2.41 30.45 30.45 0 00-11.45-2c1.83-2.39 2.45-5.67.59-8.25a4.08 4.08 0 00-.31-.39 3.56 3.56 0 00-.66-1.15 2.47 2.47 0 00-2.54-.82l-.39-.07a6.58 6.58 0 00-4.63 1.58 23.89 23.89 0 00-3.88 3.64 20.56 20.56 0 00-1.42 1.88 1.15 1.15 0 00-.6.53c-.06.11-.09.22-.14.33l-1.11 2.66a1.26 1.26 0 000 .43 1.94 1.94 0 00.27 2.46l-.19-.23c-1.08-1.29-2.18-2.82-3.87-3.35a.58.58 0 00-.37 0 3.91 3.91 0 00-2.64-.2.69.69 0 00-.56-.08 15.31 15.31 0 00-1.64.5c-2.31.65-4.79 1.28-6.08 3.41a6.72 6.72 0 00-.37 5.19 24.45 24.45 0 001.93 5c.18.35.39.73.63 1.11a.63.63 0 00-.21.12c-.27.23-.53.48-.79.71l-.43.41-.31.29c-5.81 5.42-11.69 10.77-17 16.63a.63.63 0 00-.62.18c-1.62 1.8-3.52 3.31-5.2 5a59.07 59.07 0 00-4.71 6c-3.07 4.13-6.49 8-9.57 12.09s-6 8.4-8.87 12.65-5.73 8.64-8.34 13.12c-1.47 2.53-2.86 5.11-4.28 7.67-1.17 2.09-3.18 3.63-4.1 5.86a.7.7 0 00.67.88h.09a12.86 12.86 0 01-1.23 4.82c-.72 1.76-1.6 3.45-2.36 5.19-1.92 4.45-3.44 9.11-5.05 13.68-2.48 7-5.11 14-7 21.2a.65.65 0 00-.26.28l-.06.16a24.27 24.27 0 00-1.61 6c-.35 2-.8 4-1.32 5.93-.75 2.85-1.63 6-1.52 9a207.17 207.17 0 00-3.17 21.77c-.3 3.65-.49 7.31-.59 11a60.67 60.67 0 00-.2 6.19 4.32 4.32 0 00.15 1.11v3.36c0 1.7.07 3.4.13 5.11-.12 1.51-.24 3-.34 4.55a3.51 3.51 0 00.77 2.53 75.51 75.51 0 001.18 8.48l.18.85v.35a4.1 4.1 0 00.51 1.92 29.35 29.35 0 002.13 6.05 19.19 19.19 0 004.41 5.67 1.37 1.37 0 00.13.2 28.25 28.25 0 0011.65 8.62 21.06 21.06 0 005.77 2.79c1.2.68 2.42 1.33 3.65 1.95a4.15 4.15 0 001.26 1.06c9.06 4.95 19.64 5.21 29.81 5.43 5 .49 10 .75 15 1.27 1.86.2 3.72.37 5.58.46a4.58 4.58 0 001.13.43c9.74 2.15 19.48.09 29.22-.93 11.93-1.25 23.87-1.21 35.85-1.22a322.07 322.07 0 0032.28-1.25h2.87c9.43-.12 19.29-1.25 28-5.22a36.65 36.65 0 003.93-1.81 4.17 4.17 0 001.33-1.08 29.44 29.44 0 002.77-2.08 16 16 0 002.18-1.38 19.85 19.85 0 003.11-3.17 7.35 7.35 0 001.48-1.94A40 40 0 00350 465a31.28 31.28 0 002.61-7.07.72.72 0 00-.3-.75c.1-.22.21-.45.33-.68a15.25 15.25 0 002.62-4.73c.47-1.22.85-2.47 1.2-3.72.76-1.77 1.41-3.59 2-5.42a81.59 81.59 0 002.28-8.55c.22-1 .43-2 .61-3.06a10.81 10.81 0 00.64-3 3.38 3.38 0 00-.28-1.43 4 4 0 00-1.49-3.38zm-76.54-172.08l2.13-.59c.44-.1.87-.2 1.31-.27a1 1 0 00.49-.23l1.34-.37a1 1 0 00.33-.16v.37c0 .12 0 .35-.06.48a1.68 1.68 0 00-1 .67 8.49 8.49 0 01-1.61 1.72 2.36 2.36 0 01-1 .42h-.5s-.3-.09-.18 0h-.13l-.34-.5a8.33 8.33 0 01-.86-1.35v-.08zm-59.57-19l.08.1a4.72 4.72 0 01-2.24-1.73 8.41 8.41 0 002.16 1.62zM175 284.43a189.58 189.58 0 0113.31-18 30.82 30.82 0 002.22-2.35 26.13 26.13 0 004.47-4.78 26.23 26.23 0 002.09-2.13 24.84 24.84 0 002.31-3.09 34.53 34.53 0 007.75-8.43.63.63 0 000-.66l1.35-1.38c.29-.28.59-.56.89-.82a3.17 3.17 0 001.55 1 1.53 1.53 0 001.81-.85 2.82 2.82 0 00-.24-2c-.58-1.45-1.28-2.82-2-4.21s-1.7-3.26-1.17-4.83c.46-1.34 2.1-2.36 3.26-3a6.74 6.74 0 013.27-1.09.62.62 0 00.44.4 6.81 6.81 0 001.18.22c1.63 1.71 2.66 4 4.62 5.37a3.49 3.49 0 003.44.52 1.17 1.17 0 00.63-.82 23.46 23.46 0 003.3-1.05 26.68 26.68 0 003.78-1.09 5.48 5.48 0 002.6-1 28.67 28.67 0 0110.63 1.58 28.06 28.06 0 015.1 2.43 20.94 20.94 0 004.8 2.46 9.35 9.35 0 005-.23c1.94-.45 3.19.59 4.21 2.16a29.7 29.7 0 002.86 4.38 9.61 9.61 0 004 2.43 35.26 35.26 0 005.84 1.23l4.8.81a4.05 4.05 0 00-.35.21 1.58 1.58 0 00-.37.36h-.05a3.4 3.4 0 00-1.5 3.88 8.14 8.14 0 001.07 1.91c.41.6.8 1.21 1.23 1.79a4.25 4.25 0 003.19 1.91 7.58 7.58 0 01-1.33 7.61c-.16.13-.33.25-.51.37a1.12 1.12 0 00-1.08-.12 25 25 0 01-3 .88c-2.43.21-5-.61-7.3-1.17-2.77-.67-6.63-1-8.43-3.49a1.36 1.36 0 00-2.51.67c-.34 4.25 5.16 5.82 8.38 6.44.76.15 1.52.25 2.28.34a8.4 8.4 0 001 .19 22.47 22.47 0 003.35.63 6.27 6.27 0 01-2.75 1.17 21.22 21.22 0 01-2.64.13 1.47 1.47 0 00-.82-.09q-2.1.38-4.2.6a1.49 1.49 0 00-1-.19 43.42 43.42 0 01-4.81.54c-1.55 0-3.11-.11-4.66-.22-2.68-.2-5.37-.43-8-.88-5.13-.87-10.22-2.54-14-6.28l-1.29-1.61a15.29 15.29 0 01-2.91-7.28c-.1-.87-1.44-.91-1.39 0a21.33 21.33 0 001.49 6.75 1.11 1.11 0 000 .19c.22 3 2 5.48 3.8 7.79.47.59 1 1.17 1.41 1.77a8.75 8.75 0 011 1.35 1.3 1.3 0 01-.31.95 1.7 1.7 0 00-1.22.79 1.23 1.23 0 00-.28.64 1.46 1.46 0 00-.1.47.59.59 0 00.13.41 2.7 2.7 0 001.37 1.55c1.13.62 2.37 1 3.5 1.61a19.62 19.62 0 012.35 1.57c-.38.21-.77.42-1.18.6l-5.41-.76a1.4 1.4 0 00-1.35 2.33 6.06 6.06 0 001.44 1.1 5.28 5.28 0 00-1.24 3c-2.88-1.18-6.35-.89-9.37-.72-3.77.21-7.55 0-11.33.07a49.69 49.69 0 00-6.57-.21 42.45 42.45 0 00-8.07 1.39 13.69 13.69 0 00-6.27 2.83c-1.43 1.32-2.66 3.28-4.5 4.08a2.77 2.77 0 01-2 .07A12.3 12.3 0 00184 295a5.53 5.53 0 00-2.84.41 38.69 38.69 0 00-3.69 1.73c-4.63 2.38-9.55 4.17-14.14 6.62 4.16-6.33 7.67-13.01 11.67-19.33zm185 146.35c-.26.91-.46 1.83-.69 2.76-.14.61-.32 1.2-.5 1.8a.68.68 0 00-.91-.24c-1.46.77-2.84 1.67-4.23 2.55-.69.43-1.37.86-2.08 1.26s-1.48.73-2.17 1.17a.64.64 0 00.49 1.16 9.66 9.66 0 002.26-1.05c.72-.41 1.43-.85 2.14-1.29 1.37-.87 2.73-1.76 4.16-2.52-.13.4-.25.79-.39 1.19-.55 1.6-1.08 3.2-1.58 4.82a.74.74 0 00-.84-.12 36.68 36.68 0 00-3.52 2 18.93 18.93 0 01-1.72.92c-.62.29-1.28.46-1.9.76a.64.64 0 00.32 1.18 5.85 5.85 0 002.07-.63c.63-.29 1.23-.62 1.83-1 1.12-.66 2.22-1.36 3.39-1.91l-.21.75c-1.95 2.51-3 5.54-4.27 8.44a.74.74 0 00-.75-.28c-1 .16-2 .3-3 .39s-2.06 0-3.09.1a.63.63 0 00-.62.55.62.62 0 00.45.69 11.26 11.26 0 003.33 0c1.06-.09 2.12-.25 3.18-.42l-.22.45a1.86 1.86 0 00-.22.19 9.24 9.24 0 00-2 4.41 24 24 0 01-2.86 3 1.45 1.45 0 00-.46.39c-.3.25-.61.48-.92.72a2.57 2.57 0 00-1.33.72l-.87.86c-.32.22-.64.44-1 .65a40.83 40.83 0 01-10.38 4.47c-2.27.35-4.49.9-6.72 1.43H324c-2.45.45-4.91.83-7.39 1.12-1.16.13-2.32.25-3.48.34-1.52.06-3 .14-4.56.22a66.19 66.19 0 01-6.76-.18 143.87 143.87 0 01-14.81-2.17c-4.91-.91-9.81-1.89-14.74-2.69a42.66 42.66 0 00-7.13-.72 24.17 24.17 0 00-6.8 1.1 8 8 0 01-5 .17 28 28 0 01-5.33-2.89 39.38 39.38 0 01-9.59-7.89c-1-1.24-2-2.55-3-3.86a1.73 1.73 0 00-.2-.41 24.59 24.59 0 00-2-2.52 34.49 34.49 0 00-2.33-2.65c-.18-.18-.38-.35-.57-.52l-1.31-1.91a1.57 1.57 0 00-.33-.49.66.66 0 00-.2-.14l-.28-.35-.05-.05a.68.68 0 00-1.32.25c-.05 2.7-.28 5.3.79 7.86a16.64 16.64 0 001.19 2.25c.12.35.25.7.38 1a25.93 25.93 0 005.38 8.52 15.4 15.4 0 002.35 2 52.85 52.85 0 01-8.9.29.63.63 0 00-.54-.27 72.25 72.25 0 01-18.7-2.78 35.06 35.06 0 01-8-2.79c-2.41-1.33-4.18-3.41-6.31-5.11a12.38 12.38 0 00-4.86-2.46h-.07a1.32 1.32 0 00-.39-.06 10.49 10.49 0 00-2.46-.2.71.71 0 00-.61 1.05c1.85 2.78 4.87 4.44 7.47 6.41 1.44 1.11 2.83 2.3 4.29 3.37a46.41 46.41 0 01-10.64-3.8 43.47 43.47 0 01-12.24-10 64.81 64.81 0 01-5.36-7.08.7.7 0 00-1.21.71c.91 2.11 2.2 4.15 2.92 6.36a1.34 1.34 0 01-.11-.14 10.13 10.13 0 00-.68-1.53 21.49 21.49 0 00-2-3.1c-.52-.7-1.7-.07-1.2.71.68 1.06 1.11 2.25 1.74 3.34.05.09.11.17.16.25-.48-.1-1 .25-.83.83a1.55 1.55 0 01.06.23 4 4 0 01-1.12-.76 21 21 0 01-.68-2 52.67 52.67 0 00-2.11-5.57c-1-2.47-2.12-4.93-3.17-7.39-1.22-2.82-2.41-5.64-3.53-8.49a.71.71 0 00-1.35 0c-.71 2.18 0 4.35.18 6.54-3.55-2.12-6-5.86-8.49-9.07a45.9 45.9 0 01-7.36-12.82.7.7 0 00-1.35.37c.41 2.34.93 4.67 1.19 7a22.74 22.74 0 01.15 3.87 6.86 6.86 0 01-.34 1.84c-1.77-2.5-2.08-5.88-2.41-8.82a49 49 0 00-.68-5 11.62 11.62 0 00-2.22-4.61c-.79-1-2.11-2.23-1.86-3.66a27.12 27.12 0 01.72-2.64c.33-1.16.67-2.31 1-3.47.66-2.28 1.31-4.57 1.86-6.88s.84-4.5 1.33-6.74c1-4.62 2.81-9.23 2.55-14a.7.7 0 00-.88-.67 11 11 0 00-2.57 1.43 5.78 5.78 0 01-2.59 1.27c-.8 0-.82-1.2-.8-1.77a11.85 11.85 0 01.8-3.36c.87-2.43 1.92-4.84 3-7.21a34.09 34.09 0 014.72-8.41c2-2.43 4.94-4.17 6.46-7a.71.71 0 00-.61-1c-2.92-.22-5.28 1.32-7.67 2.75.16-2.24 1.44-4.35 2.06-6.47.86-2.95 1.86-5.86 2.45-8.89a.72.72 0 00-.05-.42 13.51 13.51 0 001.28-5.43h.07c.34-.08.49-.16.74.12.42.45.3 1 .28 1.59a3.19 3.19 0 00.42 1.94.7.7 0 00.95.25 27.29 27.29 0 004.74-3.84c1.54-1.44 3.25-2.66 4.79-4.11 3.13-2.95 5.93-6.54 9.78-8.62a7.53 7.53 0 011.91-.73h.05l.17.07a5.42 5.42 0 003.1.49h.08a.56.56 0 00.3-.08l.54-.13c4 .26 7.45-3 10.33-5.39a22.87 22.87 0 015.15-3.4 46.72 46.72 0 017.57-2.62 45 45 0 0116.13-1.15c1.38.15 2.75.38 4.13.54a22.79 22.79 0 004.13 0c2.78-.19 5.62-.61 8.37.12 2.39.64 5.06 1.07 7.19 2.39l.08.06.88.64a28.78 28.78 0 014.33 5c.28.36 1 .55 1.21 0a3.14 3.14 0 00.17-.55c4.12 4.69 9.3 8.49 15.58 9.58a23.64 23.64 0 006.06.25 7.5 7.5 0 005.26-.47c1.79-.7 3.45-1.68 5.18-2.52 4.49-2.2 9.33-3.57 13.85-5.72 9.4-4.47 18.08-10.16 26.69-16 4.36-2.95 8.7-5.95 12.92-9.11a51.58 51.58 0 017.57-5.12 10.62 10.62 0 014.81-1.46 6 6 0 012.45 1.09 5.31 5.31 0 011.05 2.11 20.85 20.85 0 01.4 6.16c-.28 7.12-2.74 13.8-6.16 19.95-.47.73-.9 1.48-1.31 2.26-.23.38-.46.76-.7 1.14-2.26 3.6-4.76 7-7.3 10.43l-2.14 2.9a26.65 26.65 0 00-2.85 3.85l-.7.93a7.93 7.93 0 01-1.13 1.18 1.14 1.14 0 00-.47.91c-.25.33-.5.67-.76 1-3.1 3.94-6.46 7.67-9.92 11.29q-2.61 2.73-5.27 5.38c-1.73 1.73-3.43 3.5-5.28 5.09a44.12 44.12 0 01-10.51 6.64c-2.28 1-5 2.15-6.81 4.08a.93.93 0 00-.24-.05 10.78 10.78 0 00-6.75 2.5 27.7 27.7 0 01-5.47 1.28 37.77 37.77 0 01-9.2-.16l-.83-.12c.54-.09 1.08-.19 1.61-.31q1.2-.27 2.37-.6h.38c6.91-.71 13.22-4 19.41-6.95 4.57-2.16 9.37-3.88 13.68-6.54 3.44-2.12 8.87-6 7.42-10.74a.68.68 0 00-.49-.48c-4.47-.81-8.68 1.64-12.17 4.18-3.74 2.72-7.08 6.06-11.21 8.22-5 2.61-10.58 3.51-16.07 4.44a47.57 47.57 0 01-18.57-.14c-5.7-1.3-11.21-4.7-17.21-4.19a.7.7 0 00-.6 1.05 5.68 5.68 0 00.82 1 .65.65 0 00.43.41h.05a12.24 12.24 0 002.24 1.48 37.87 37.87 0 005.24 2.24c1.69.62 3.4 1.17 5.09 1.78 2 .73 3.92 1.74 5.86 2.66a23.66 23.66 0 004.08 1.53h-4.11c-2.2-1.18-4.69-2.51-7.15-2.59a29.85 29.85 0 00-3.4-1.81 17.23 17.23 0 00-5.7-2.92.65.65 0 00-.83.5c-3-2-5.78-4.23-8.59-6.26-.82-.6-1.65-1.18-2.49-1.75l-.15-.13a1.4 1.4 0 00-.45-.24c-.65-.43-1.31-.86-2-1.25a.7.7 0 00-1 .95 49.44 49.44 0 0015.15 16.93c-2.63.55-5.44-.23-8-1-1.93-.61-3.84-1.35-5.79-1.92a1.17 1.17 0 00-.81-.21 22.18 22.18 0 00-2.92-.58c-.68-.09-.81.78-.49 1.19a33.31 33.31 0 009.27 7.94 41.12 41.12 0 0011.85 4.85 33.66 33.66 0 003.45.61 12.87 12.87 0 00-4.52 2.21c-.52.44 0 1.13.49 1.2 6.57.79 13.29-1.07 19.78.56a22.75 22.75 0 012.59.81c3.86 2 8 3.73 11.21 6.65a23.82 23.82 0 014.63 6.34l.54 1.07a.72.72 0 00.1.29c.13.21.24.43.37.64.45.88.91 1.74 1.44 2.57l.07.07c.36.67.69 1.34 1 2 .43.89.84 1.78 1.23 2.68.89 2.12 1.62 4.33 2.49 6.44a90.09 90.09 0 012.13 7.38 43.23 43.23 0 011.4 7.29c.15 2.24 0 4.56.54 6.76a8.1 8.1 0 003.61 4.74A14.27 14.27 0 00295 438a34.54 34.54 0 007.47.06c2.8-.24 5.57-.68 8.37-.92s5.66-.42 8.48-.85 5.61-.91 8.42-1.33 5.62-.84 8.41-1.4a124.27 124.27 0 0016-4.76c1.35-.46 2.7-.91 4.06-1.35.81-.26 1.61-.62 2.45-.81l-.1.07a27.55 27.55 0 01-3.57 3.83 12.44 12.44 0 01-2.14 1.53 6.9 6.9 0 01-1.07.49c-.4.14-.93.15-1.23.47a.63.63 0 00.12 1 1.79 1.79 0 001.43-.1 8.08 8.08 0 001.25-.53 13.6 13.6 0 002.39-1.66 26.9 26.9 0 003.81-4 .73.73 0 000-1 .77.77 0 00-.21-.14h.12a1 1 0 01.78.44 19.14 19.14 0 01-.24 3.74zm-76.86-63a6.8 6.8 0 00.39.76 9.9 9.9 0 00-.88-.69 10 10 0 00-1.94-1 3.91 3.91 0 01.24-.68l1.8-.9a5.45 5.45 0 00.35 2.47zm225.28 54.28c.85-1.37 1.2-3.12-.14-4.35a3.93 3.93 0 00-3.87-.68 3.15 3.15 0 00-.38-2.11 3.49 3.49 0 00-2.92-1.64c-3.18-.1-4.63 3.22-5.09 5.86v.38h-.14l-.06-.44a.57.57 0 00-.69-.5 140.78 140.78 0 01-3.88-15.65q-1.2-5.73-2.76-11.36c-.52-1.92-1.15-3.84-1.53-5.79a5.11 5.11 0 010-2.66c3.11 2 7.51-.5 10.19-2.49.69-.51 1.36-1.06 2-1.62a6.29 6.29 0 00.91-.79c.61-.53 1.21-1.08 1.78-1.64a21.07 21.07 0 005-6.88 13.41 13.41 0 00.62-1.92.6.6 0 00.28-.54v-.81a14.84 14.84 0 00.07-3.94.68.68 0 00.67-1 17.2 17.2 0 00-1.43-2.26.82.82 0 00-1-.22.79.79 0 00-1.07-.43 2.52 2.52 0 00-1.52-.05 15 15 0 00-3.67 2c-1.55 1-3.09 1.94-4.66 2.86-2.45 1.44-5.08 3-8 3.14a9.2 9.2 0 01-5.6-1.56c-3.71-2.42-6-6.72-7.82-10.62a125.39 125.39 0 01-6.24-16.65c-1.75-5.78-3.19-11.64-4.61-17.5a35.8 35.8 0 00-1.18-5.24.74.74 0 00.06-.45c-.05-.3-.08-.59-.12-.89a10.47 10.47 0 00-.22-3.15 27.57 27.57 0 00-1.46-3.57 10.32 10.32 0 01-.38-1.07 26.93 26.93 0 007.64-1.95c3-1.13 5.93-2.43 8.81-3.81a36.84 36.84 0 008.16-5.09c2.11-1.8 4.05-4.08 4.54-6.89a7.94 7.94 0 00-1.75-6.77c-1.67-1.8-4.19-2.21-6.53-2.07a24.9 24.9 0 00-12 4.6c.16-.29.31-.59.44-.89a26.6 26.6 0 002.31-8.38 13.64 13.64 0 00-.11-3.88 3.74 3.74 0 00-1.23-2.55 2.81 2.81 0 00-2.43.12c-1.48.53-3 1.05-4.43 1.64a21.26 21.26 0 00-7.71 5 18.88 18.88 0 00-4.39 7.62 27 27 0 00-.88 5.05 28.68 28.68 0 000 7 7.87 7.87 0 00.83 2.7c-3.29-1.38-6.22-3.53-9.59-4.76a27.84 27.84 0 00-12.11-1.81 19.94 19.94 0 00-10.13 3.78 12.62 12.62 0 00-4.77 8.12 22 22 0 00-.12 7.06 13.84 13.84 0 001 3.37c0 .22.07.44.11.66a30.09 30.09 0 002 6.35 45.44 45.44 0 002.78 5.55c1.2 2 2.64 3.91 3.86 5.93a14 14 0 012.3 6.81c.08 2.65-1 5.16-1.83 7.61s-1.6 4.75-1.27 7.23v.1a.62.62 0 00-.29.55c0 3.2-.1 6.41-.12 9.61a12.11 12.11 0 00-3.73-.5 14 14 0 00-2.33-.72 11 11 0 01-3.48-4.2c-1.11-2-2.06-4.29-3.78-5.9-1.38-1.31-3.72-2.43-5.59-1.48-1.59.81-2.08 2.79-2.27 4.42-.59 5.08 1.39 10 3.92 14.29a27.78 27.78 0 007 8.39 31.93 31.93 0 008.42 4.21 2 2 0 00.26.18c0 .44 0 .88-.07 1.31-.17 2.5-.21 5-.22 7.51a18.81 18.81 0 000 2.49v1.5c-.13 2.91 0 5.82 0 8.73v5.08c-.08 2.85 0 5.71 0 8.57s-.05 5.71.11 8.57a57 57 0 003 15.34 33.42 33.42 0 003.35 7c.68 1.07 1.38 2.13 2 3.24a9.14 9.14 0 011.32 3.25c.18 1.61-1.58 1.76-2.79 1.83s-2.61.09-3.91.11a59.46 59.46 0 00-8.43.53c-2.38.38-5.42 1.05-6.83 3.23s-.28 5.07 1.64 6.48c2.32 1.7 5.58 1.87 8.35 2s5.89-.15 8.74.41a7.74 7.74 0 011 .28 4.78 4.78 0 00-.52 1.3 5.5 5.5 0 00.94 4.85 7.4 7.4 0 004 2.2c4.42 1.08 9.22.77 13.69.27 5.27-.6 10.53-1.52 15.77-2.31 4.72-.72 9.4-1.7 14.06-2.71a.65.65 0 00.2 0 14.32 14.32 0 006.34-1.5.62.62 0 00.33-.39 26.66 26.66 0 0010.19-7.05 16.85 16.85 0 002.8-5 .41.41 0 00.1-.13c2.87-5.91 2.59-12.57 2-19v-.54a29.49 29.49 0 000-3.76v-2.52a.63.63 0 00-.3-.55l-.3-2.74A5.48 5.48 0 00506 432a3.23 3.23 0 001.05-3.27c2.41-1.05 3.52-5.16 1.37-6.67zm-91.77-122.29a1.88 1.88 0 01.36-.63.57.57 0 00.12-.51 10.63 10.63 0 012.32-2.72c.34-.29.7-.56 1.06-.81a5.13 5.13 0 00-.05 2.72 5 5 0 00-1 .76 5.34 5.34 0 00-1.39 2.21l-.69-.34a1.87 1.87 0 01-.67-.48c-.1-.08-.09-.09-.06-.2zm9.13 28.85c-.17-.19-.34-.39-.49-.59a21 21 0 00-2.19-4.49c.26.33.52.65.79 1l.1.15a30.27 30.27 0 011.89 3.88zm-2.3-12.17a68.08 68.08 0 01-6.79-8.71.71.71 0 00-1.28.17c0 .08-.05.17-.08.25a22.75 22.75 0 01.11-4.3 14.85 14.85 0 01.55-2.62l.11.09a7.82 7.82 0 001.21.65 3.51 3.51 0 01.57.32 4 4 0 001.62 2.87 2.85 2.85 0 003.81-.46c.64-.66-.3-1.54-1-1a1.07 1.07 0 01-1.72-.15c-.5-.57-.86-1.24-1.33-1.83a3.53 3.53 0 01.64-1.61c1.42-2 4.46-2 6.66-2.38.83-.13.54-1.31-.19-1.37a15.49 15.49 0 00-4.72.63 8.33 8.33 0 01.54-2.94c5.44-2.9 12.18-2.52 17.95-.55 4.14 1.41 7.62 4.21 11.77 5.56a.61.61 0 00.81-.43c.4.07.93-.17.88-.67 0-.17 0-.34-.05-.51a.77.77 0 000-.27c-.07-1.31-.23-2.63-.36-4a18.76 18.76 0 01.8-6.84 22.8 22.8 0 016.7-9.64 23.11 23.11 0 015.46-3.56c.76-.35.19-1.42-.54-1.27-4.09.79-7.12 3.8-9.49 7.06a29.67 29.67 0 00-3.37 5.55 13.76 13.76 0 00-1.13 5.66c0 .79.06 1.57.12 2.35q0 1.41.18 2.82a.72.72 0 00-.26.4 8.77 8.77 0 01-.34-1.41 24.24 24.24 0 01-.09-5.71 34 34 0 01.58-4.5 17.54 17.54 0 013.07-6.78 17.72 17.72 0 016.36-5.26 39.27 39.27 0 014.52-1.84 14.41 14.41 0 013-1c.16 0 .24 0 .31.08a3 3 0 01.44 1.2 10.94 10.94 0 01.21 3.47 24.37 24.37 0 01-1.91 7.65 23.05 23.05 0 01-2.59 4.46c-3.56 2.91-6.93 6.64-8.29 11.06a10.61 10.61 0 00-.35 1.48c-.11.72.88 1.3 1.28.54a61.77 61.77 0 015.81-8.72c.86-1.13 1.76-2.27 2.61-3.43a28.37 28.37 0 0112-6.17c1.91-.4 4.26-.6 6.07.28a5.69 5.69 0 013 5.31c0 2.62-1.42 4.74-3.23 6.52a30.2 30.2 0 01-7.49 5.11c-2 1-4 2-6.1 2.83 1.25-.59 2.47-1.25 3.67-1.94a41.87 41.87 0 008.77-6.55 6.36 6.36 0 002.07-4.95 3.7 3.7 0 00-.14-1.65 4.38 4.38 0 00-2.87-2.72 7.75 7.75 0 00-4.94.6c-1.59.64-3.06 1.5-4.6 2.25-.75.36-.19 1.42.54 1.28 1.49-.3 2.91-.89 4.36-1.32a7.05 7.05 0 014.37-.26 2.85 2.85 0 011.87 1.92 5.79 5.79 0 01-.64 1.68 18.63 18.63 0 01-4.85 5.28c-2.95 2.35-6.49 3.56-9.74 5.37-.73.41-1.45.83-2.18 1.22l-.3.1a47.9 47.9 0 00-6.5 2.12 3.66 3.66 0 00-.59.31 7.72 7.72 0 00-1.54.84.71.71 0 00.36 1.31h.37a11.82 11.82 0 001 2.57 11.25 11.25 0 011.1 3.41.72.72 0 00-.16.43v1.73a.74.74 0 000 .45l.06.22a11.49 11.49 0 01-.51 1.89c-1.11 3-3.37 5.46-5.38 7.89a26.6 26.6 0 01-6.27 5.75 12.9 12.9 0 01-5.68 2.14 5.88 5.88 0 00-1.39 0 4.5 4.5 0 01-1.63-.45 19.72 19.72 0 013.35-1.22 18.69 18.69 0 004.54-1.91 17.84 17.84 0 006.75-7 .7.7 0 00-1.2-.71c-3 4.58-9 5.56-14.07 4.65-5.88-1.03-10.97-4.88-15.05-9.17zm2.21 39.13a2 2 0 00.35-.21.68.68 0 00.32-.18l.22-.17a.6.6 0 00.42-.02l.08-.06a.75.75 0 00.26 0 3.58 3.58 0 01-1.34.72.75.75 0 01-.47 0zm3.77 66.78c-.32-3.34-.39-6.7-.65-10.05a76.17 76.17 0 00-2-11.39c-.46-2-.89-3.94-1.16-5.94s-.32-4.12-.41-6.19c-.12-2.74-.25-5.49-.48-8.23a.72.72 0 00.95.25c1-.55 1.72-1.54 2.66-2.18l.11.07a.56.56 0 00.29.3c1 .48 1 1.93 1 2.89a28.47 28.47 0 01-.46 4.61 33.36 33.36 0 00-.45 4.57c-.06 2.63.06 5.27.2 7.9a113.19 113.19 0 005.32 30 49.75 49.75 0 002.87 7.16c.58 1.16 1.17 2.34 1.64 3.56l-.24-.12a17.59 17.59 0 01-4.22-3.26 15.44 15.44 0 01-2.7-4.24 31.41 31.41 0 01-2.27-9.71zM495 458.57a16 16 0 01-2 3.95c-.11.16-.25.29-.37.45q.12-.3.21-.6c.55-2.13-1.71-2.24-3.44-2.18a16.76 16.76 0 00.81-1.78 3.66 3.66 0 00.17-2.77 2.35 2.35 0 00-2.61-1 9.36 9.36 0 00-4.35 1.87c-1.37 1-2.6 2.2-3.9 3.3a24.73 24.73 0 01-3.86 2.62c-2.87 1.67-5.85 3.16-8.67 4.92a24.68 24.68 0 00-7.94 7.2.7.7 0 00-.07.51c-2.67.41-5.34.79-8 1.19a60.36 60.36 0 01-15.12.84c-2.65-.27-6.66-.93-6.84-4.28-.21-3.75 3.56-5.22 6.59-6 4.78-1.21 9.72-1.88 14.58-2.61 1.83-.28 3.92-.38 5.49-1.45a4.18 4.18 0 001.79-3.72v-.15a47.64 47.64 0 000-12c.08-1.5.13-3 .12-4.49 0-4.55-.57-9.18.27-13.69.06-.32.12-.64.2-1a8.48 8.48 0 01.55-1.33c1.12-2.09 3-4.05 3.15-6.52a.6.6 0 00-.18-.47c.42-.54-.2-1.45-.89-1-3 1.87-4.25 5.34-4.78 8.69-.56 3.51-.48 7.07-.75 10.6a95.48 95.48 0 00.25 16.13c0 .33.08.65.12 1-.07 1.33-.09 2.66 0 4-.08.42-.18.84-.24 1.26-.06.19-.1.38-.17.56a.42.42 0 000 .1l-.09.21c-.07.14-.14.27-.22.4s-.27.39-.37.6h-.1a10.42 10.42 0 00.26-3.55 15.1 15.1 0 00-2.09-7.11c-.92-1.47-2-2.81-3-4.24s-1.43-2.87-2.69-3.9a10.66 10.66 0 00-3.78-1.73 23.44 23.44 0 01-2.4-.84c-1-3.47-3.18-6.61-4.31-10a123.8 123.8 0 01-4-15.13 110.35 110.35 0 01-1.85-15.59 61.59 61.59 0 01.16-12.95 28 28 0 00.5-5.32 7.6 7.6 0 00-.26-1.8.92.92 0 00.1-.32 2.55 2.55 0 00-.34-1.34 7.09 7.09 0 00-.58-.95.72.72 0 00-.33-.29.61.61 0 00-.46 0 .58.58 0 00-.39 0c-1.37.42-2.2 1.54-3.28 2.36a12.57 12.57 0 01-.83-3.07 42.48 42.48 0 01-.46-4.38c-.07-1.1-.1-2.19-.14-3.29a9.54 9.54 0 00-.06-3.2v-3.68c.62 1.08.77 2.41 1.35 3.51a.7.7 0 001.09.14 4.54 4.54 0 011.27-.87 6.46 6.46 0 01.33 2.25 6.92 6.92 0 00.6 2.88.71.71 0 00.79.32c1.67-.25 2.46-1.86 3.68-2.83.61 1 .48 2.8.49 3.9a20.62 20.62 0 00.28 5c.17 1.38 1 3.37 2.68 2.9a1.92 1.92 0 001-.68l.06-.08a4 4 0 001.14-1.15 1.23 1.23 0 01.9.67 6.73 6.73 0 01.38 1.78 13.21 13.21 0 00.05 2.18 3.39 3.39 0 001.27 2.23 2.26 2.26 0 00.56.28 5.56 5.56 0 001.88.26 3.73 3.73 0 01.46.09 4.26 4.26 0 011.36.69l.45.46a10.93 10.93 0 012 3.75c.12.36.22.73.32 1.1.08.57.13 1.16.16 1.73.29 5 .31 10.12.44 15.17-.07 1.53-.14 3.07-.19 4.6a65.43 65.43 0 00.7 13.7c.14.78 1.4.59 1.38-.19v-.45a.61.61 0 00.39-.78c-.19-.61-.33-1.22-.46-1.84l-.36-13.17c0-.94.06-1.88.06-2.82 0-6.39 1-13.19-1.57-19.25a7.63 7.63 0 00-2.24-3.18 4.52 4.52 0 00-.86-.51 7.66 7.66 0 00-1.27-.82 7.72 7.72 0 01-2.37-1.22 2.75 2.75 0 01-.58-1.23 8.79 8.79 0 00-.14-3.27c-.27-.78-.89-2-1.77-2.25s-1.29.36-1.68.91l-.12.18a3.52 3.52 0 00-1.18 1.24 1 1 0 01-1.09-.44 2.74 2.74 0 01-.32-.81c0-.37 0-.75-.05-1.13l-.08-2.21-.14-4.41a.73.73 0 00-.24-.51 3.5 3.5 0 00-1-1.82.71.71 0 00-.85-.11 8.61 8.61 0 00-1.91 1.71 4.9 4.9 0 01-1.32 1.13 10.34 10.34 0 01-.25-2.43 5.26 5.26 0 00-.82-2.81.7.7 0 00-.95-.25c-.45.32-1 .56-1.42.85a11.26 11.26 0 00-1.63-3.6.57.57 0 00-.57-.21v-2.14a.93.93 0 00.05-.24v-.65a.74.74 0 00.93.13 1.69 1.69 0 00.4.12c1.56.21 3-1.22 4-2.24s1.7-2 2.53-3a3.72 3.72 0 01.39 1.07.7.7 0 001 .42 8.32 8.32 0 002.52-3 44.14 44.14 0 002.17-4.62c.62-1.45 1.19-2.91 1.88-4.32a20 20 0 013.3-4.7 40.36 40.36 0 015.69-5.08.73.73 0 00.29-.56 27.46 27.46 0 004.15-3.54c1.07-1.12 2-2.35 3-3.55a36.72 36.72 0 003-4.09 16.6 16.6 0 001.12-2.13c.32 1.51.75 3 1.2 4.43a.84.84 0 00.18.29c1.09 4.48 2.21 9 3.49 13.4a142.58 142.58 0 006.36 17.71c1.81 4.1 4 8.39 7.39 11.4a11.6 11.6 0 005.45 2.81 12 12 0 006.85-.91c3.67-1.56 6.94-3.94 10.36-6a7.38 7.38 0 012.05-1 .93.93 0 000 .23 4.22 4.22 0 00.18.45.09.09 0 000 .05v2.18c-.24 1.36-.36 2.74-.59 4.1a11.55 11.55 0 01-1.63 4.21.8.8 0 00-.33.19c-1.66 1.63-3.19 3.41-4.87 5a11.33 11.33 0 01-3 1.31c-2.79.76-6.31 1-8.09 3.61a.71.71 0 00.11.85l.1.11c-1.1 2-.15 4.75.39 6.76 1.12 4.11 2.28 8.2 3.17 12.37.79 3.7 1.53 7.41 2.44 11.09a84.93 84.93 0 002.48 8.29c0 3.35.84 6.7 1.22 10 .23 2.06.21 4.12.25 6.19q.06 3.51.32 7a.69.69 0 00.07.29c-.47 4.82-1.09 9.56-1.17 14.39zm11.19-31.05c-.41 0-.85.42-.68.88a2 2 0 01-.49 2.56 4.24 4.24 0 01-2.87.66 3.92 3.92 0 01-2.85-1.54 10.11 10.11 0 01-1.35-3.66 13.85 13.85 0 00-.77-2.36 17.36 17.36 0 01.13-4.38 7.25 7.25 0 011.7-4.14 2.63 2.63 0 013.15-.55c1.11.68 1 2 .44 3-.33.59.34 1.35.95 1 1-.65 2.54-1.14 3.62-.32s.42 2.35-.3 3.22a.71.71 0 00.3 1.17c1.99.5.76 4.32-.95 4.46z"/>
    <path style="fill:#231f20;" d="M452.21 309.09c-1.08-3.88-5.61-7.88-9.73-5.69-.79.42-.09 1.63.71 1.21a3.7 3.7 0 011.54-.44 1.53 1.53 0 00-.26.49 2.15 2.15 0 000 .91 2.11 2.11 0 00-.1 1.69 3.16 3.16 0 002.55 1.8c1.08.17 2.42-.14 2.78-1.27.36.5.7 1 1.06 1.55a1 1 0 01-.24.69 2.45 2.45 0 01-1.47.6 6.64 6.64 0 01-2 0 4.14 4.14 0 01-2-.83 4.52 4.52 0 01-1.34-2.09c-.29-.85-1.64-.48-1.35.37a5.48 5.48 0 004.21 3.88c1.63.3 4 .34 5.11-1.14a2.25 2.25 0 00.44-1.14.67.67 0 00.09-.59zm-191.48-63.35a4 4 0 00-2.78-3.52 5.56 5.56 0 00-4.82 1.18 5.81 5.81 0 00-1.79 2.5.7.7 0 001.35.37 4.3 4.3 0 011.37-1.82 3.43 3.43 0 00.08 1.66 1.8 1.8 0 00.91 1.09c0 .12-.06.24-.1.36a.25.25 0 010 .07 3.18 3.18 0 01-.57-.19c-.64-.26-1.2.74-.68 1.17a1.78 1.78 0 001.63.5 3.55 3.55 0 003-.86.69.69 0 00-1-1 1.82 1.82 0 01-1 .45 1.54 1.54 0 00.07-.27c0-.1 0-.19.05-.28a2.08 2.08 0 00.67-.65 3.78 3.78 0 00.46-2.71 3 3 0 01.38.24 4.22 4.22 0 011 1.12 2.47 2.47 0 01.34.82 2.21 2.21 0 010 .37.7.7 0 001.4 0 3.26 3.26 0 00.03-.6zm-36.66-1.12a48.82 48.82 0 00-1.35-4.91 18.65 18.65 0 00-2.53-5.33c-1-1.28-2.31-2.2-4-1.71a3 3 0 00-2 3.22 14.22 14.22 0 001.3 5.07 35.81 35.81 0 002 4.18c.54.92 1.12 1.8 1.58 2.77a15 15 0 011.4 5.13c.19 2.29-.75 5.08.43 7.18v.47a.72.72 0 001 .62c.21.5.94.74 1.21.13 2.39-5.25 2.18-11.32.96-16.82zm-71.59 87.02a.7.7 0 00-.95.25c-.46 1-.92 1.91-1.35 2.89a.61.61 0 001.06.61c.52-.92 1-1.85 1.49-2.8a.7.7 0 00-.25-.95zm5.52-1.49a.72.72 0 00-.86.48c-.47 1.42-1 2.83-1.36 4.29a.64.64 0 00.37.74.61.61 0 00.79-.26c.61-1.43 1.06-2.92 1.55-4.39a.7.7 0 00-.49-.86zm-13 46.16a36.26 36.26 0 01-.78 6.81 57 57 0 01-1.93 6.54c-.22.65.81 1.1 1.11.47a33.71 33.71 0 003-13.82.7.7 0 00-1.4 0zm5.71 7.12a.72.72 0 00-.7.7c-.24 2.13-.5 4.26-.63 6.4 0 .68 1.1.85 1.21.16.36-2.18.57-4.37.82-6.56a.7.7 0 00-.7-.7zm1.29 33.96a26.07 26.07 0 00-1-3.23l-1-3.2c-.27-.86-1.62-.49-1.35.37.35 1.09.71 2.18 1.06 3.27a25.45 25.45 0 001.14 3.28.62.62 0 00.79.26.64.64 0 00.36-.75zm91.91-178.65l-1.42-.64-.7-.32a2 2 0 00-1-.29.64.64 0 00-.53.3.62.62 0 000 .62 1.07 1.07 0 00.29.31l.14.08.34.18.73.32 1.41.65a.78.78 0 00.54.07.75.75 0 00.42-.32.72.72 0 00-.22-.96zm-1.57 2.87a6.45 6.45 0 01-2.25-.14 5.44 5.44 0 01-.54-.15c-.15 0-.42-.14-.5-.17-.4-.17-.76-.39-1.16-.53a.64.64 0 00-.62 1.06 3.39 3.39 0 001.15.7 8.53 8.53 0 001.29.44 8.31 8.31 0 002.63.19.73.73 0 00.7-.7.71.71 0 00-.7-.7zm1.29 5.16a.71.71 0 00-.86-.49l-1.4.47-.67.22a2.8 2.8 0 00-.81.35.65.65 0 00-.29.72.65.65 0 00.61.46 1.71 1.71 0 00.5-.06l.36-.12.67-.23 1.4-.46a.71.71 0 00.49-.86zm3.64 8.73a.72.72 0 00-1 .25 5 5 0 01-.51.86l-.07.11a.84.84 0 00-.15.18c-.11.13-.22.25-.34.37l-.35.32-.21.17.07-.06-.06.05-.11.08c-.13.09-.26.18-.4.26s-.53.29-.6.62a.64.64 0 00.29.71.83.83 0 00.75 0l.23-.13c.15-.08.29-.17.44-.27a7.51 7.51 0 00.92-.77 6.7 6.7 0 001.31-1.81.72.72 0 00-.21-.94zm1.62.5a.72.72 0 00-.86.49 10 10 0 01-.87 2.21 11 11 0 01-.62 1 6.15 6.15 0 01-.37.52 1.71 1.71 0 00-.35.63.64.64 0 00.93.72 1.81 1.81 0 00.59-.58l.37-.52a13.18 13.18 0 00.68-1.14 13 13 0 001-2.51.71.71 0 00-.5-.82zm-42.56 198.77a30.39 30.39 0 00-3.36-2.6c-1.14-.88-2.26-1.79-3.36-2.71q-3.29-2.76-6.34-5.77c-.64-.63-1.63.36-1 1q3.1 3 6.43 5.84c1.1.92 2.21 1.81 3.34 2.69a20.64 20.64 0 003.53 2.52.62.62 0 00.76-.97zm2.59-5.71a21.18 21.18 0 00-1.69-1.59l-1.8-1.59-3.54-3.13c-.67-.59-1.66.39-1 1l3.59 3.18a43.36 43.36 0 003.65 3.13c.64.43 1.25-.49.79-1zm59.3-99.06c-.65 0-1.29.17-1.94.23a16 16 0 01-1.83.05 15 15 0 01-3.69-.6.7.7 0 00-.37 1.35 16.45 16.45 0 004.06.64 12.93 12.93 0 002-.06 6.36 6.36 0 002.12-.43c.57-.3.24-1.18-.35-1.18zM287 339.74c-.75.37-1.43.89-2.15 1.32s-1.42.78-2.15 1.12a26.67 26.67 0 01-4.68 1.69 27.42 27.42 0 01-9.84.73c-.89-.09-.89 1.31 0 1.4a28.52 28.52 0 0015.13-2.57 16 16 0 004.46-2.7.63.63 0 00-.77-.99zm11.44 124.79a16.57 16.57 0 00-2.28-.89l-2.23-.8-4.54-1.62c-.85-.31-1.21 1-.37 1.34l4.46 1.6 2.15.76a17.52 17.52 0 002.32.77c.67.14 1.17-.81.49-1.16zm3.83-7.66a28.32 28.32 0 00-2.63-1.06l-2.6-1a.7.7 0 00-.37 1.35l2.55 1c.85.31 1.69.66 2.56.89a.64.64 0 00.75-.37.63.63 0 00-.26-.81zm-38.04-50.61a27.08 27.08 0 00-1.76-3.16 28.06 28.06 0 00-4.58-5.44c-.66-.6-1.65.38-1 1a26.65 26.65 0 014.42 5.23 27.61 27.61 0 011.62 2.91c.5 1.06.83 2.2 1.36 3.24.35.69 1.27.17 1.16-.49a13.4 13.4 0 00-1.22-3.29zm203.82-52.66l-.47-1.16c-.29-.75-.59-1.5-.89-2.25-.61-1.52-1.21-3.05-1.82-4.57a.72.72 0 00-.86-.49.7.7 0 00-.48.86q.92 2.33 1.85 4.66c.31.77.61 1.55.92 2.32l.47 1.17a3.3 3.3 0 00.55 1.09.64.64 0 001.09-.45 3.58 3.58 0 00-.36-1.18zm-4.34-.6c-.5-1.32-1.06-2.62-1.68-3.88-.4-.81-1.6-.1-1.21.7a38.52 38.52 0 011.59 3.68c.24.63.45 1.25.66 1.89a17.58 17.58 0 00.67 2 .64.64 0 001.18-.32 17.07 17.07 0 00-1.21-4.07zm11.12 39.18c-.15-.56-.29-1.12-.43-1.68l-.84-3.24c-.56-2.2-1.13-4.4-1.69-6.6a.7.7 0 00-1.35.37c.57 2.2 1.13 4.4 1.7 6.6.28 1.08.55 2.16.83 3.24.14.56.29 1.12.43 1.68a6.53 6.53 0 00.5 1.57.64.64 0 001.18-.32 6.48 6.48 0 00-.33-1.62zm6.01-4.78a17.92 17.92 0 00-.7-2c-.22-.64-.41-1.29-.59-1.94a27.35 27.35 0 01-.74-4 .72.72 0 00-.7-.7.7.7 0 00-.7.7 30.09 30.09 0 00.78 4.32c.18.68.38 1.35.61 2a9.24 9.24 0 00.88 2.1.64.64 0 001.16-.48zm7.75 19.31c-.37-2-.82-3.95-1.32-5.91a.7.7 0 00-1.35.38c.5 1.91.93 3.85 1.31 5.79s.53 3.94 1 5.86a.64.64 0 001.25-.17 35.27 35.27 0 00-.89-5.95zm-3.29 1.35l-.66-4.12a.7.7 0 00-.86-.49.71.71 0 00-.49.86l.65 4a34.16 34.16 0 00.71 4 .63.63 0 001.24-.17 36.51 36.51 0 00-.59-4.08zm6.02 24.56v-5.16a.7.7 0 00-1.4 0v7.63a21.76 21.76 0 00.07 2.68.64.64 0 001.27 0 42.12 42.12 0 00.06-5.15zM352.64 254.85a4.63 4.63 0 00-2.43-8.91 27.54 27.54 0 011.23-12.45c2.38.56 5.79.5 6.24-1.91a11 11 0 00-.07-2.14c0-3.42 4.07-5.1 7.4-5.89a4.6 4.6 0 012.08-.16c3.08.71 2.93 6.72 6.08 6.57 2.56-.12 3.23-4.53 5.79-4.59a4.1 4.1 0 012.81 1.7l5.79 6.22a2.34 2.34 0 01.75 1.31c0 .66-.5 1.2-.85 1.77-1.37 2.21.69 5.6 3.29 5.41 1.2-.09 2.77-.63 3.37.42a2.19 2.19 0 01.15 1.27 24.44 24.44 0 01-1.71 7 3.27 3.27 0 01-1.42 1.86 4.73 4.73 0 01-2.48 0 6.41 6.41 0 00-4.77 11.3l-10.09 4.26c-.89.37-2 .72-2.73.11a2.89 2.89 0 01-.75-1.66 9 9 0 00-2.9-5 5 5 0 00-5.54-.64c-1.67 1-3.05 3.26-4.9 2.65a3.74 3.74 0 01-1.55-1.28 11.28 11.28 0 01-2.7-4.53c-.39-1.78.27-3.9-.09-2.69zm163.74-1.74c5.46 1.62 10.55 2.92 15.69 5.37.36.17.24.33.42.69s-.14 1.06-.22 1.45a70.18 70.18 0 01-3.72 12.53c-.5 1.23-1.2 2.6-2.49 2.9a4.32 4.32 0 01-2.26-.31L512.42 272c-1.13-.37-2.39-.86-2.86-1.95a4.3 4.3 0 01.12-2.76l3.09-11.29a5.42 5.42 0 011.32-2.69c.74-.68 3.09-.31 2.29-.2z"/>
    <path style="fill:#f9f9fa;" d="M434.94 203l1.34 15.87a1.72 1.72 0 00.24.87c.39.52 1.17.41 1.8.27 9.09-2.11 18.53-2 27.87-1.8q0-9.47-1-18.9-6.12 6.44-12.53 12.56a162.54 162.54 0 00-18.27-8.87c2.15-1.15 4.69-1.25 7.12-1.36a214.46 214.46 0 0023.72-2.46l-12.49 12c-.13.12-.3.26-.48.21s-.15-.39 0-.34m72.41 99.43a2 2 0 01.45-1 2.22 2.22 0 011-.49 27.79 27.79 0 014.8-.79 4 4 0 012.68.47 4.31 4.31 0 011.37 3 1.75 1.75 0 010 1c-.3.63-1.15.68-1.85.68-2.6 0-5.19.44-8.84-3.08 1.53 9 3.07 18 4.54 27.06l33.51-4.42c-.46-7.59-1.23-15.16-2.45-22.74-11.57 1.53-23.15 3.43-34.78 4.58a.25.25 0 01-.26-.16 9 9 0 01-.19-4.13"/>
    <path style="fill:#231f20;" d="M518.45 253.28c.53-2.91 1.3-7 2.66-9.62a6.93 6.93 0 011.59-2c1.89-1.57 5.1-.49 7.21.78s2.7 3.13 2.44 5.58a35.79 35.79 0 01-2.94 9c.88.44 1.34 2.82 2 2.08.23-.26-1-1.23-.8-.95.39.54 3-7.26 3.16-9.93.12-2 0-4.25-1.16-5.9-1.41-1.94-4-2.61-6.4-2.79a8.12 8.12 0 00-3.67.39c-2.65 1.1-3.71 4.22-4.47 7s-1.61 5.82-2.29 8.68c.67-.19 1.22-.73 2.67-2.32z"/>
    <path d="M353.45 308.22c-7.74 3.91-11.95 13.62-9.69 22s10.62 14.62 19.29 14.6a21.3 21.3 0 0019.6-14.43c1.67-5.12 1.2-11.08-1.95-15.46a22.9 22.9 0 00-9.3-7.52 23.53 23.53 0 00-9.42-2.16 13.93 13.93 0 00-9.6 3.89c.09 0 .18.02 1.07-.92z" fill="#fff"/>
    <path style="fill:#231f20;" d="M349.62 319.11a1.23 1.23 0 001 .95c.47.13 1 .12 1.43.27 1.47.46 2 2.2 2.41 3.69a74.77 74.77 0 003.78 10.87.92.92 0 00.42.54c.38.17.78-.18 1-.52 2-2.83 1.74-6.71 3.32-9.8q2 4.42 4.52 8.64c.36.6.87 1.28 1.57 1.22s1.12-1 1.27-1.78a86.63 86.63 0 001.07-15.61 3.59 3.59 0 00-.42-2.08 2.54 2.54 0 00-1.74-.95 2.72 2.72 0 00-2.39.63 1.51 1.51 0 00.13 2.24c.39.24.89.25 1.22.55a1.86 1.86 0 01.39 1.5c-.13 2.85-.26 5.69-.36 8.53a42.35 42.35 0 00-2.91-5.59 12.39 12.39 0 00-3.16-3.68 52.66 52.66 0 00-2.9 8 34.62 34.62 0 00-2.58-7c-.53-1.06-1.24-2.21-2.4-2.46a4 4 0 00-1.94.21 5.93 5.93 0 00-2.62 1.29.91.91 0 00-.31.55.71.71 0 00.64.66c.31.02.64-.14-.44-.87zm63.79-108.02a6.79 6.79 0 00-2 .77c-.71.33-1.41.67-2.11 1q-2 1.05-4 2.23a69.12 69.12 0 00-7.44 5.24c-.7.57.29 1.55 1 1a66.49 66.49 0 017.26-5.08c1.24-.75 2.51-1.46 3.8-2.12.66-.34 1.33-.67 2-1a8.72 8.72 0 001.92-1 .64.64 0 00-.43-1.04zm3.95 7.77a18 18 0 00-4 1.19 30.53 30.53 0 00-3.67 1.7 32 32 0 00-6.64 4.8c-.66.62.33 1.61 1 1a31 31 0 016.35-4.59 32.24 32.24 0 013.53-1.63c1.24-.47 2.52-.8 3.77-1.24a.63.63 0 00-.34-1.23zM499.48 236a5.65 5.65 0 00-1.23-1.26l-1.35-1.23-2.78-2.51-5.48-5c-.66-.6-1.65.38-1 1l5.48 5 2.7 2.46 1.35 1.22a6.62 6.62 0 001.45 1.2.63.63 0 00.86-.88zm4.15-4.62a20.84 20.84 0 00-3.58-4.15 28.84 28.84 0 00-4.35-3.36c-.77-.48-1.47.73-.71 1.21a27.59 27.59 0 014.12 3.18 48.18 48.18 0 013.53 3.89c.47.55 1.36-.15.99-.77zm-147.27 39.77a.61.61 0 00-.77.25c-1 1.61-1.8 3.33-2.66 5a.71.71 0 00.25.95.69.69 0 00.95-.25c.89-1.72 1.84-3.44 2.59-5.23a.62.62 0 00-.36-.72zm2.8 3.49a15.52 15.52 0 01-3 7.32.72.72 0 000 1 .7.7 0 001 0 14.22 14.22 0 003.23-8.14c.01-.69-1.12-.82-1.23-.18zm165.75 74.77l-3 5.63c-1 1.87-2 3.74-2.9 5.68a.59.59 0 001 .59c1.13-1.8 2.1-3.7 3.1-5.57l3-5.63c.43-.79-.77-1.5-1.2-.7zm5.45 1.33a49.06 49.06 0 01-8.68 14.95c-.49.6.31 1.45.88.87a42.15 42.15 0 009.15-15.45c.29-.85-1.06-1.22-1.35-.37zm-141.3 14.32a39.51 39.51 0 01-8.46-3.27 30.65 30.65 0 01-7.18-5.53c-.63-.65-1.62.34-1 1a32.59 32.59 0 007.46 5.75 26.53 26.53 0 008.84 3.28c.79.11 1.15-1 .34-1.23zm3.53-5.22a36.31 36.31 0 01-6.95-3.24 29.35 29.35 0 01-5.89-4.89c-.61-.66-1.6.33-1 1a28.57 28.57 0 0013.49 8.36.63.63 0 00.35-1.23z"/>
    <path class="svg-bg" d="M364.31 242.64a6.59 6.59 0 1012.61-1.58 4.6 4.6 0 00-2-2.34 12.08 12.08 0 00-2.71-.87 7.64 7.64 0 00-5.05.79 5.76 5.76 0 00-2.85 4z"/>
    <path style="fill:#231f20;" d="M563.46 330l-2-19.32a.71.71 0 00-.51-.67c-3.74-.89-7.57-.32-11.32.19s-7.71 1.15-11.53 1.88l-2.26.46a4.34 4.34 0 00-.66-3.36 5.16 5.16 0 00-4.16-2.29 8 8 0 00-5.19 1.77c-1.26 1-2.33 2.66-1.95 4.34a2.73 2.73 0 00.42.95q1.15 7.6 2.32 15.21l.66 4.3a11.87 11.87 0 00.72 3.34 2.39 2.39 0 002.44 1.4c1.41-.08 2.82-.27 4.22-.41q8.49-.9 17-2.09c2.81-.39 5.61-.81 8.42-1.26a5.05 5.05 0 003-1.09c.78-.93.5-2.21.38-3.35zM528 308.94c1.55-.75 3.65-1 5.12.05a3.17 3.17 0 011.16 3.81v.06l-1.91.4a23.42 23.42 0 01-4.53.82 3.12 3.12 0 01-2.23-.72c-.08-.55-.17-1.11-.25-1.66v-.11a5 5 0 012.64-2.65zm34 23.42a2.24 2.24 0 01-1.31.55c-2.57.51-5.19.83-7.78 1.2q-8 1.15-16 2l-4.05.43-1.84.18c-.48.05-1.16.22-1.56-.14-.67-.61-.67-2-.8-2.79-.21-1.35-.41-2.7-.62-4.05q-1.11-7.31-2.23-14.62a5.17 5.17 0 001.29.31 17.34 17.34 0 005.2-.78c4.36-1 8.76-1.79 13.17-2.48 2.49-.39 5-.76 7.51-1a23 23 0 017.07.09q.81 7.75 1.63 15.52c.15 1.36.29 2.72.44 4.09.09.47.22 1.13-.12 1.49zM466.56 214.2q-.48-7.57-.94-15.17c0-.55-.77-1-1.19-.49l-.43.46c-8 3-16.69 1.93-25 2.59-1.65.13-4.22.28-4.38 2.44a.72.72 0 00.51.67l13.89 5.6a15 15 0 003.39 1.25 3.25 3.25 0 002.61-1.26c1.71-1.58 3.38-3.22 5-4.89 1.47-1.5 2.89-3.05 4.29-4.63l.66 10.73.19 3c0 .27.19 1 0 1.18s-.79.17-1.06.17q-3 0-6 .13a87.26 87.26 0 00-11.61 1.44c-2 .38-3.92.82-5.85 1.34-.84.22-1.67.5-2.52.68-.59.12-1.41.22-1.74-.41a3.43 3.43 0 01-.19-1.35c0-.57-.05-1.15-.07-1.72l-.15-3.44-.3-6.87c0-.89-1.43-.9-1.39 0l.28 6.63c.05 1.1.1 2.21.14 3.31s0 2.07.17 3.09c.25 1.85 1.76 2.45 3.45 2.14.95-.17 1.87-.5 2.8-.75s2.1-.53 3.15-.77a86 86 0 0112.87-1.86q3.24-.22 6.48-.2a3.72 3.72 0 002.37-.41c.84-.68.62-1.75.57-2.63zm-11.33-6l-1.11 1c-.35.32-.79.88-1.3 1a3.77 3.77 0 01-1.57-.48l-1.62-.65-6.63-2.71-6.82-2.76a2.74 2.74 0 011.35-.51 25.81 25.81 0 012.79-.23c2-.12 4.07-.16 6.11-.19a84 84 0 0011.86-.77 33.77 33.77 0 003.87-.85q-3.32 3.68-6.93 7.11zm-74.84 105.23a20 20 0 00-10-7.94 20.7 20.7 0 00-13.55-.06 19.89 19.89 0 00-3.13 1.39.65.65 0 00-.28.32A18.71 18.71 0 00342 324.23a20.69 20.69 0 0014.42 19.55 21.74 21.74 0 0012.53.28 20.14 20.14 0 0010.28-7 21 21 0 004.48-11.47 20 20 0 00-3.32-12.16zm-.74 20.5a18.82 18.82 0 01-20 9.22 19.86 19.86 0 01-10.49-5.27 19.64 19.64 0 01-5.54-10.6 17.19 17.19 0 0110.13-18.78 15.28 15.28 0 012.72-.84.61.61 0 00.48-.76 19.28 19.28 0 0110-.88 18.52 18.52 0 0110.59 6 19.13 19.13 0 014.66 10.69 18.9 18.9 0 01-2.55 11.22z"/>
  </g>
</svg>