<svg xmlns="http://www.w3.org/2000/svg" viewBox="0 0 684 684">
  <path class="svg-bg" d="M109.43 555.18c-49.94-57-91.51-120.89-92-196.63-.4-61 12.55-122.61 42-176S135.59 84.58 192.22 62C254.12 37.32 323 39.84 389.61 42.74c34.42 1.5 69.76 3.2 101.31 17 32.62 14.31 58.43 40.39 82.63 66.53 26.82 29 53.17 59.48 68.59 95.84 13.85 32.63 18.21 68.41 21.48 103.71 3.31 35.68 5.59 72.16-3 106.94-8.05 32.48-25.21 61.85-42.15 90.7-13 22.08-26.31 44.63-46 61-25.83 21.55-59.75 30.26-92.6 37.49-69.76 15.36-141.7 26.89-212.45 17.11s-129.07-50.89-157.99-83.88z" fill="#b2c4d2" id="Consulting_Circle" data-name="Consulting Circle"/>
  <g id="Redone_Black_Outline_Consult" data-name="Redone Black Outline Consult">
    <path style="fill:#f9f9fa;" d="M244.69 343.79a.76.76 0 00-.36-.24 6.67 6.67 0 00-4.28.72 42.16 42.16 0 00-3.84 1.83c-2.56 1.39-5 3-7.41 4.62-.56.38-1.13.75-1.7 1.12l-5.38 2.75c-2.66 1.35-5.29 2.86-8 4.05a6.48 6.48 0 01-4.12.62 21.94 21.94 0 01-3.23-1.41 8.36 8.36 0 00-.83-.32c-.11-.12-.24-.23-.35-.36a.63.63 0 00-1 .08 4 4 0 00-1.09 0 4.59 4.59 0 00-2.76 1.71c-1.62 2.06-1.36 4.87-.22 7.09a10.51 10.51 0 004.68 4.46c4.53 2.27 9.65 1.54 14.08-.58 3.91-1.87 7.18-4.68 10.51-7.42 1.4-1 2.77-2.08 4.13-3.18.3-.18.6-.37.89-.57a111.82 111.82 0 01-10.59 10.29 92.662 92.662 0 01-6.54 5c-1 .72-2.12 1.38-3.12 2.17a4.76 4.76 0 00-1.85 2.58 3.05 3.05 0 00-.06.6.68.68 0 00-1-.33 13.9 13.9 0 01-3.83 1.16 13.5 13.5 0 01-1.9.14c-.68 0-1.35-.11-2-.09-2.48.1-2.67 3.06-3.52 4.81a13.47 13.47 0 01-1.88 2.9 16.42 16.42 0 01-1.23 1.27 12.51 12.51 0 00-1.28 1.12c-.69.81-.74 2.12.53 2.34.41.07.76 0 1.08.28a2.1 2.1 0 01.46 1.08c.36 1.92-1 4.35.52 5.94-1 2.75-1 5.74-1.07 8.63s-.27 6-2.12 8.45a.6.6 0 00-.11.38 6 6 0 00-1.77 3.94c-.17.21-.34.42-.5.65a9.24 9.24 0 00-1 2.13.59.59 0 000 .37 6 6 0 00-.83.91c-1.18 1.59-1.69 4-.18 5.55s3.58 1.2 5.4 1.12a5.08 5.08 0 013 .47 1.77 1.77 0 01.2.17 6.61 6.61 0 01.43 1 28.77 28.77 0 011.12 6.78c.09 1.11 0 2.23.17 3.33a3.17 3.17 0 00.86 1.95.66.66 0 00.85.75v.12a.71.71 0 001 .42c2.23-1 3.42-3.29 4.19-5.46a18.31 18.31 0 001-7.22 14.92 14.92 0 00-1-4.35 11.24 11.24 0 00-8.79-8.11 9.82 9.82 0 00-4.7.44 4 4 0 010-.49 9.8 9.8 0 014.84-2.9 10.58 10.58 0 018.8 1.54 15.08 15.08 0 015.69 8.36 22.54 22.54 0 01-.28 12.08 59.13 59.13 0 01-5.16 12.06c-1 2-2.1 3.9-3.09 5.88-.49 1-1 2-1.42 2.94a18.87 18.87 0 00-1.1 2.72 3.18 3.18 0 00.16 2.44 3 3 0 002.22 1.23c2.26.43 4.52.79 6.8 1.09a123.07 123.07 0 0013.7 1h3.41a19.52 19.52 0 013.15.1c1.54.23 3.42 1.21 3.33 3 0 .9-.78 1.41-1.51 1.81a22.46 22.46 0 01-2.8 1.34 24 24 0 01-6.12 1.55c-.63.07-1.26.11-1.89.13a3.6 3.6 0 00.93-1.6l.59-.25c1-.46 2.41-1.1 2.88-2.18a1.34 1.34 0 00-.17-1.45 2.65 2.65 0 00-1.62-.62 39.89 39.89 0 00-4.36-.52 28.53 28.53 0 00-3.46 0 5.26 5.26 0 00-1-.13 3.44 3.44 0 00-1.37.25 8.09 8.09 0 00-2.63.57 3.12 3.12 0 00-1.93 2.64 3.33 3.33 0 001.59 2.74 7.69 7.69 0 004.33.84 17.62 17.62 0 004.51-.72v.09a7.75 7.75 0 01-2.23 1.07 62.07 62.07 0 01-11 2.21 77.18 77.18 0 01-11.27.59c-7.64-.16-15.21-1.7-22.87-1.43-3.73.13-7.47 1-11.2.6a23 23 0 01-9.07-3.39 42.44 42.44 0 01-4.64-3.25c-1.45-1.15-2.83-2.4-4.33-3.48a11.12 11.12 0 00-6.06-2.23 73.37 73.37 0 00-1.93-7.83A81.15 81.15 0 01134 433.6a55.14 55.14 0 012.07-11.2v.07a.71.71 0 001.1-.14l5.92-9.43c.56 1.38 1.41 3 2.92 2.11a3.81 3.81 0 001.43-2.06c.4-1 .78-2.08 1.17-3.13l4.86-13c.91-2.44 1.82-4.87 2.72-7.31a.58.58 0 000-.47q1.6-4.59 3.22-9.16c.35-1 1.42-3.48-.47-3.67a1.49 1.49 0 00-1.18.46 25.76 25.76 0 00.61-3.82.7.7 0 00-.89-.67 9.09 9.09 0 00-1.67.94c.45-1.18.88-2.36 1.28-3.55s.72-2.15 1-3.24a4.47 4.47 0 000-3.12 5.32 5.32 0 01-.44-1c.13-.38.28-.74.42-1.11 2-3.36 3.92-6.79 5.88-10.18 2.07-3.57 4.26-7.11 6-10.84a32.29 32.29 0 002.33-6.38.72.72 0 00-.68-.89 5.85 5.85 0 00-1.32.2 9.16 9.16 0 00.5-4 .71.71 0 00-1.2-.49 16.48 16.48 0 00-1.31 1.2c.11-.35.21-.69.31-1 .26-.86-1.09-1.23-1.35-.37-.35 1.17-.69 2.34-1 3.51-.44.84-.9 1.67-1.39 2.49.16-.4.34-.8.5-1.2.61-1.56 1.17-3.13 1.7-4.71a65.92 65.92 0 005.28-13.49 14 14 0 01.87-1.16 7.41 7.41 0 004 2.24 31 31 0 0013.72.28c.64-.12.61-.95.17-1.26s-1.07-.75-1.61-1.14a.63.63 0 00-.18-.61l-9.12-9.3a1 1 0 00-.08-.14.55.55 0 00-.39-.33.7.7 0 00-1.07.87c.07.12.15.24.21.36a.65.65 0 000 .63 20.88 20.88 0 001.53 2.34 19.48 19.48 0 007.1 7c-4.49 1.6-9.54-.66-13.6-2.65a9.38 9.38 0 01-.32-4.05l.62-12.48.15-3a7.68 7.68 0 00-.2-3 9.82 9.82 0 00-1.3-2.18 25.28 25.28 0 01-1.49-2.36 27.72 27.72 0 01-3-8.15c.23.35.46.7.7 1.05a.62.62 0 00.11.32c.19.27.39.53.57.8.75 1.24 1.54 2.44 2.39 3.62.61 1 1.24 2.07 1.92 3.06a16.71 16.71 0 001.42 1.84 5.83 5.83 0 002.07 1.69A2 2 0 00180 287a4.16 4.16 0 00-1-1.92c-.58-.73-1.17-1.45-1.72-2.2a53.58 53.58 0 01-5.29-8.78 52.34 52.34 0 01-3.25-8.76q-.31-5.15-.14-10.3a12.65 12.65 0 00.37-3.47c.12-.4.24-.8.38-1.2a.62.62 0 00-.46-.82l.12-.46a.72.72 0 00-.6-.88 5.12 5.12 0 01-.45-2c.2-1.6 2.88.07 3.53.42a43.11 43.11 0 014.16 2.53 40.31 40.31 0 013.87 3c1 .86 2.27 2.69 3.77 2.26a3.07 3.07 0 001.46-1.3 10.66 10.66 0 001.05-1.78 23.46 23.46 0 001.34-3.74 25.24 25.24 0 012.41-6.62 43.65 43.65 0 00.47 5 .66.66 0 000 .67c.06.12.11.25.17.37a.59.59 0 00-.25.91c.22.31.43.63.64.94.32 1.49.7 3 1.16 4.43 1.36 4.36 3.14 8.59 4.28 13 .07.29.13.58.2.87.08 1.32.13 2.64.14 4a.66.66 0 00.16.43c-.13.5-.24 1-.34 1.5-.37 1.5-.75 3-1.12 4.51a9.38 9.38 0 00-.33 1.29.74.74 0 00.2.64c-.38 1.19-.74 2.39-1.06 3.61a4.78 4.78 0 000 3c-.78-.24-1.1 1-.3 1.36l10.21 4.14.35.14c4.44 2.33 8.56 5.19 11.53 9.28a20.64 20.64 0 012.31 4.06l-3.44-1.3c-.84-.32-1.2 1-.37 1.35l4.82 1.82a.71.71 0 00.86-.86 23.48 23.48 0 00-7.31-10.41.74.74 0 00-.15-.45 13.39 13.39 0 00-4.7-3.46 30 30 0 00-10.18-4.86.76.76 0 00-.5-.96l-1.65-.67a.66.66 0 00-.3 0 2.42 2.42 0 01-.09-.59 13.62 13.62 0 01.81-3.27c.66-2.21 1.4-4.4 2.19-6.56a.55.55 0 000-.3.58.58 0 00.39-.45 27.6 27.6 0 00.53-8.59.57.57 0 00.13-.44 16.91 16.91 0 00-.89-4.35v-.1c-.18-.48-.36-1-.55-1.43a27.11 27.11 0 00-2.42-5.32c-.57-1.1-1.18-2.18-1.82-3.24a.81.81 0 00-.07-.42l-1.77-3.62a42.23 42.23 0 01-.6-7.61.71.71 0 00-1.2-.49c-2 2-2.8 4.64-3.52 7.26-.36 1.31-.71 2.63-1.2 3.91a12.2 12.2 0 01-.8 1.72c-.17.3-.36.59-.56.88s-.43.72-.72.79c-.55.14-1.41-1-1.77-1.32-.64-.59-1.29-1.15-2-1.7a46 46 0 00-4-2.91 36.7 36.7 0 00-4.42-2.47c-1.2-.57-2.83-1-3.77.28s-.24 2.67.17 4a5.8 5.8 0 00-2 3.92.33.33 0 000 .1.57.57 0 00-.23.38 25.57 25.57 0 00-.22 8.37c0 .77.13 1.53.25 2.29a14 14 0 00.65 4.95 26.46 26.46 0 00.74 2.64.53.53 0 00-.11.62c.13.32.28.62.42.94a.54.54 0 00-.18.46 29.78 29.78 0 002.93 10.78 52.64 52.64 0 003 4.85 4.55 4.55 0 01.59 2.89c-.05 1.13-.11 2.25-.17 3.37-.2 4.17-.42 8.35-.62 12.52a.58.58 0 00-.2.33q-.84 4-2 7.95a45.48 45.48 0 00-2.91 7.78c-1 2.31-1.92 4.62-2.86 6.94-.92 1.87-1.86 3.73-2.71 5.63-.4.84-.78 1.69-1.16 2.55-.92 2.11-1.71 4.26-2.43 6.44l-.24.44a.67.67 0 00-.07.51c-.43 1.33-.84 2.67-1.24 4-2.33 7.88-5 15.63-7.76 23.36s-5.58 15.45-8 23.29c-1.19 3.87-2.29 7.78-3.24 11.72q-.72 3-1.31 6c-.2 1-.38 2-.55 3a10.51 10.51 0 00-.25 2.5 60.4 60.4 0 00-2.73 22.83 87.38 87.38 0 001.85 12.66c.22 1.05.46 2.09.72 3.13h-.23v-.35a.69.69 0 00-.7-.69 6.66 6.66 0 00-5.67 4.2c-.64 1.61-.49 4.05.92 5.19a3.26 3.26 0 003.32 5.52c.09 1.65.48 3.33 2.07 4.14a2.81 2.81 0 002.48.13 3.08 3.08 0 001.51-2.15 15.1 15.1 0 00.31-4.92c2.18.06 4.39 1.38 6.08 2.71a75.26 75.26 0 008.34 6.22 24.28 24.28 0 009.51 3.37c3.89.46 7.8-.51 11.69-.61 8.05-.2 16 1.47 24.06 1.47a78.79 78.79 0 0011.68-.9c2-.29 3.94-.67 5.9-1.12a22.78 22.78 0 004.79-1.43l.43-.22a.74.74 0 00.44.19 25.7 25.7 0 0012.64-3.19c1.58-.89 2.71-2.3 2.12-4.2a4.93 4.93 0 00-4-3.23 42.61 42.61 0 00-6.78-.19c-2.43 0-4.86-.15-7.29-.33s-4.88-.44-7.31-.77c-1.21-.17-2.41-.35-3.61-.56l-1.8-.31a4.84 4.84 0 01-1.55-.39c-.81-.47-.37-1.67-.11-2.34.42-1.08.93-2.14 1.43-3.18 1-2.1 2.12-4.16 3.21-6.21a70.19 70.19 0 005.65-12.65 25 25 0 00.77-12.81 17.05 17.05 0 00-5.49-9.28 12.08 12.08 0 00-14.78-.69 4.58 4.58 0 011.73-1.77 16.7 16.7 0 013.38-1.32.62.62 0 00.78-.12l.19-.21a7.88 7.88 0 003.12-1.81 9.08 9.08 0 002-4.18c.48-1.84.88-3.71 1.32-5.57L210.4 393c.31-1.33.64-2.68.95-4 2.19-.63 4.85.75 6.44 2.15a12 12 0 012.12 2.45.68.68 0 00-.38.8 42.35 42.35 0 001.92 5.48.5.5 0 000 .17 20.47 20.47 0 001.53 3.53 13.56 13.56 0 001.41 2.16c.08.12.14.25.22.37a.61.61 0 00.47.3l.08.08a2.19 2.19 0 002.86.12c.85-.78.89-2.11 1.06-3.16.44-2.78.86-5.55 1.21-8.34a21.73 21.73 0 00-.14-8 10.69 10.69 0 00-2.63-4.87c-.55-1.16-1.49-2.61-2.65-2.31l-.24-.27c-1.07-1-2.3-.43-3.48 0a30 30 0 01-4.1 1.5 3 3 0 01-3.2-.8c-.7-1 .06-2 .79-2.68a31.92 31.92 0 013.09-2.19c2.23-1.55 4.39-3.2 6.48-4.92a114.74 114.74 0 0012.13-11.82c2-2.28 4.2-4.54 6-7l.15-.22c.27-.29.55-.58.81-.87a8.77 8.77 0 002.33-4 2.7 2.7 0 00-.94-2.87zM195 258.18c.06.3.11.6.17.89-.43-1.21-.85-2.41-1.27-3.63.39.91.75 1.83 1.1 2.74zm-58.18 217.68a1 1 0 01-.43.19 2.64 2.64 0 00.71-1 3.73 3.73 0 00.36-.32 2.07 2.07 0 01-.64 1.13zm79.45-93.23a13.14 13.14 0 003.87-1.13l2-.78a4.89 4.89 0 011-.35.82.82 0 01.78.42c.16.23.31.46.46.7s.32.47.47.71l.36.62a21.71 21.71 0 012.48 8.51 39.16 39.16 0 01-.66 4.93.67.67 0 00-.64.33l-.09.16a.56.56 0 00-.45.34 12.72 12.72 0 00-1.41 5 23.89 23.89 0 00-1.5-2.47v-.07a.6.6 0 00.38-.61 13.54 13.54 0 00-4.89-9.25 9.31 9.31 0 00-6.69-2.25 27.6 27.6 0 00.65-7.24 3.88 3.88 0 003.88 2.43z"/>
    <path style="fill:#f9f9fa;" d="M198.05 297.51a4.41 4.41 0 00-3-.81 12.06 12.06 0 00-3.39.4 2.8 2.8 0 00-1.28 4.9 4.82 4.82 0 005 .66 1.56 1.56 0 001.6-.5 1.53 1.53 0 00.14-.21 2.66 2.66 0 00.93-4.44zm67.49-17.02a13.67 13.67 0 00-5.32-9.32 7.35 7.35 0 00-5.72-1.39.63.63 0 00-.46.38 10.91 10.91 0 00-5.38 1.11 10.18 10.18 0 00-2.78 1.34 11 11 0 00-4.31 5.9 18.38 18.38 0 00-.21 8.38 17.81 17.81 0 003.1 7.38c1.55 2.09 4 3.61 4.8 6.18.61 2 .67 4.39 2.27 5.88 1.91 1.78 5.07 1.18 7.19.12a5.31 5.31 0 002.68-2.91 7.44 7.44 0 00.22-3.57c-.24-1.8-1-3.84-.86-5.74.53-1 1.07-2.13 1.57-3.23a.57.57 0 00.24-.13 7 7 0 001.54-2.28 14.7 14.7 0 001-2.58 14.1 14.1 0 00.43-5.52zm271.2 56.14c-.06-.24-.12-.49-.19-.74s-.11-.39-.17-.58l-.06-.24a88.91 88.91 0 00-5.11-14.07c-.17-.36-.36-.71-.53-1.07a80.45 80.45 0 00-10.76-17.42 45.61 45.61 0 00-10.43-9.22q-4.39-4.76-8.82-9.48c-14.21-15.12-28.77-29.89-45.07-42.81a222.53 222.53 0 00-25.35-17.5c-4.43-2.59-8.93-5-13.56-7.25-3.85-1.85-8.13-3.67-12.5-2.94a7.72 7.72 0 00-1.43.38c.21-.71.43-1.41.67-2.11a1.6 1.6 0 00.28-.48q1.17-3.1 2.32-6.21a1.18 1.18 0 00-.4-1.37.69.69 0 00.11-.13c.9-1.33.24-3.06-.85-4.06a8.31 8.31 0 00-4.38-1.79c-5.79-.88-11.56 1.81-15.3 6.17a5.61 5.61 0 00-4.82 0 1.12 1.12 0 00-.66 1 84.48 84.48 0 00-32 13.17c-1.31.9-2.61 1.88-3.95 2.79a4.33 4.33 0 01-.72.89 1.39 1.39 0 01-.21.64 1.91 1.91 0 01-.46.52l-.34.25-.15.09a.42.42 0 01-.12.08l-.16.12-.2.1a1.79 1.79 0 01-.4.09 2.1 2.1 0 01-1.86-.21c-2.8 1.12-5.59 1.44-7.46 4.1-1.68 2.4-1.91 5.64-2.73 8.52a8.32 8.32 0 01-.39 2.75 4.52 4.52 0 01-.88 1.75 2.26 2.26 0 01-1.55.79.62.62 0 01-.49-.21c-2.6 1.8-5.87 2.4-8.5 4.19a19.06 19.06 0 00-6.6 7.77 1.4 1.4 0 002.18 1.69 53.67 53.67 0 019.4-5.92 1.11 1.11 0 001.16.59 12.82 12.82 0 007.22-2.92 1.41 1.41 0 00-1.36-2.33c-.36.13-.71.24-1.07.35a1.26 1.26 0 00-.42-.54 28.71 28.71 0 005.48-8 1.5 1.5 0 00-.92-2.05 27.83 27.83 0 01.77-2.81 7.12 7.12 0 011.42-2.57c1.09-1.18 2.62-1.53 4.1-2a28.69 28.69 0 008.48-4.69 81.54 81.54 0 0117.28-9.59 82.71 82.71 0 0118.19-5.05l.45.08a15 15 0 00-1.62 7.56c.05.94 1.19 1.9 2.1 1.21a20.33 20.33 0 004.78-5.54c1.29-2.05 2.47-4.42 4.35-6a8.56 8.56 0 013.9-1.65 4.18 4.18 0 003.83.94 3.41 3.41 0 01.25.37c-.18 1-.36 2.07-.55 3.11a1.51 1.51 0 001.43 1.74 1.8 1.8 0 00-.05.19 74.55 74.55 0 00-2.35 7.62c-.31 1.24 1.42 2.51 2.33 1.36 2.64-3.33 7.44-2.12 10.86-.82a103 103 0 0112.82 6.45 209.76 209.76 0 0125 16.37c16 12.11 30.6 26.15 44.57 40.56q4.43 4.56 8.75 9.2a76.69 76.69 0 00-10.09-4 157.91 157.91 0 00-70.78-5.25c-6.29.95-12.52 2.48-18.87 3.05a60.36 60.36 0 01-9.12 0 40.37 40.37 0 00-8.37.09 24.29 24.29 0 00-15 8.81 27.93 27.93 0 00-2.69 1.89 60.91 60.91 0 00-15.8 19.25c-.2.38-.38.76-.57 1.13a.74.74 0 00-.8.48c-.39 1.18-.77 2.36-1.15 3.54-.25.55-.49 1.11-.73 1.67a1.28 1.28 0 00-.33.79c-.55 1.33-1.08 2.67-1.56 4a25.87 25.87 0 01-2.53 6c-1.35 2-3.49 3.26-5.45 4.55a144 144 0 01-24.54 12.92 9.7 9.7 0 001-3.24 21.55 21.55 0 00.19-2.55 25.22 25.22 0 00-.16-5.95 2.09 2.09 0 010-.25l-.3-10a.69.69 0 00-1.37-.13 2.56 2.56 0 00-2.2.51 27.32 27.32 0 00-3.06 2.93l-6.08 6.06c-1.52 1.5-3.29 3.26-3.38 5.54a3.81 3.81 0 003.13 3.85 2.74 2.74 0 002.09-.71c.36-.31.68-.69 1.06-1 .76-.58.87.2.89.87v4.17a6.56 6.56 0 000 1.93 1.76 1.76 0 00.9.8 5.12 5.12 0 004.88-.38c.48-.18 1-.39 1.43-.57 1.09-.44 2.17-.88 3.25-1.34q6.6-2.81 12.9-6.25a130.26 130.26 0 0012-7.35 14.07 14.07 0 004.43-4.49 39.4 39.4 0 002.29-5.83c.29-.82.61-1.64.93-2.46 0 1.81.08 4.18.08 4.52v.59q-1.46 11.41-3.9 22.67c-.06.28-.13.56-.19.85-.48 1.18-1 2.36-1.43 3.54a54.88 54.88 0 00-3.18 10.94c-.43 2.47-.77 4.95-1.23 7.41-1.19 3.77-2.45 7.51-3.81 11.23q-1.38 3.75-2.86 7.45c-1.95 4.16-4 8.28-5.69 12.55q-1.12 2.79-2 5.67c-1.17 2.68-2.35 5.35-3.54 8l-7.52 17c-2.08 4.7-4.11 9.49-7.1 13.69-.56-.19-1.26.37-.85 1l.05.09a24.77 24.77 0 01-4.55 4.6c-2.13 1.62-4.49 2.9-6.61 4.54-1.8 1.4-3.95 3.38-3.79 5.88a3.27 3.27 0 003.39 3 2.23 2.23 0 00.73-.17l.06.56c-.59 1.19-.67 2.49.37 3.36l.07.66a.72.72 0 001.06.61l1.51-.85a6.74 6.74 0 00.79-.29c.32-.15.72-.44 1.14-.7a4.87 4.87 0 000 .54c0 .14-.06.28-.08.42a2 2 0 001.53 2.33.67.67 0 00.87.14c7.62-5.33 10-16.6 5.18-24.54.52-.72 1-1.45 1.49-2.19 2.75-4.38 4.72-9.2 6.8-13.91l7.08-16a17.4 17.4 0 00.67 9 .71.71 0 00.95.45 1.63 1.63 0 00.77.37 1.47 1.47 0 00.25.08 2.3 2.3 0 00.37 0 2.05 2.05 0 00.7-.17 2.27 2.27 0 00.57-.32.76.76 0 00.24-.17 34.82 34.82 0 005.87-8.66l.15-.22a104.86 104.86 0 006.7-11.86 166.69 166.69 0 0010-26.1c2.68-9 4.79-18.24 6.72-27.46s3.54-18.78 8.76-26.83c5-7.68 12.36-14.13 14.47-23.37.78-3.39 1.25-8.74-2-11a5.08 5.08 0 00-4-.8 22.76 22.76 0 017.62-4.56c5.16-1.8 10.42-.9 15.76-.82 5.92.09 11.76-1.06 17.55-2.13a160.9 160.9 0 0169.53 2.11c7.44 1.91 15 4.37 21.73 8.28q4.1 4.43 8.17 8.88a102.65 102.65 0 0110.58 13 65.26 65.26 0 016.9 14.22 110.54 110.54 0 015.75 29.58 93.88 93.88 0 01-3.36 29.7c-1.61 5.69-3.67 11.24-5.77 16.76-1.81 4.74-3.61 9.49-5.64 14.13-2.88 6.59-6.29 13.19-11.09 18.6a1.61 1.61 0 00-.64.32 206.74 206.74 0 01-30.74 21.07 1.4 1.4 0 001.41 2.41 209.76 209.76 0 0021-13.49 1.55 1.55 0 00.78-.18 36 36 0 007.44-5.4 1 1 0 001.27-.3 114 114 0 0024.87-50.72 123 123 0 002.7-23.72c.06-1.55.09-3.1.07-4.65a107.32 107.32 0 00-3.97-27.48zM298.6 459.55q-2.34 1.86-4.75 3.65a1.62 1.62 0 00-.62.86l-.08.09a4.48 4.48 0 01.43-1c1.16-2 3.35-3.38 5.31-4.63a1.35 1.35 0 00-.29 1.03zm38.4-72.31c-1.3 3.2-2.72 6.35-4.17 9.49.58-1.4 1.15-2.8 1.7-4.2 1.19-2.52 2.35-5.06 3.39-7.64-.28.78-.58 1.57-.92 2.35zm3.74-11.09c.16-.68.32-1.35.45-2 0-.14.05-.29.08-.43.25-.79.48-1.59.72-2.38-.37 1.59-.78 3.2-1.23 4.81zm11.52-57.87l.12-1.29c.22-.45.47-.9.7-1.35-.28.88-.55 1.76-.8 2.64z"/>
    <path style="fill:#f9f9fa;" d="M443.11 341.3a.61.61 0 01.27-.46 6.24 6.24 0 01.68-.35l2.41-8.72a.5.5 0 00-1-.27l-2.76 10zm-88.95-109.25a4.66 4.66 0 00-.48-.51 1 1 0 000-.35 1.35 1.35 0 00.79-.89 1.43 1.43 0 00-1-1.72l-1.68-.54a1.31 1.31 0 00-1 .12 1.41 1.41 0 00-1.42 2.07l-.26.24a9.61 9.61 0 01-1.42-.67 1.4 1.4 0 00-1.41 2.41c.08.06.17.1.25.15a4.91 4.91 0 00-2.63 4.21 4.08 4.08 0 00.09.61 2.69 2.69 0 00.08 1.09 3.17 3.17 0 00.66 1.19 2.9 2.9 0 00.81.67 3.06 3.06 0 001.31.39 2.67 2.67 0 002.1-.8 2.57 2.57 0 00.58-.81 1.87 1.87 0 00.27-.4 2.51 2.51 0 00.27-1v-.18a2.88 2.88 0 00-.77-2.34 2.75 2.75 0 00-.63-.46.74.74 0 010-.14l.17-.08a7.54 7.54 0 011.23-.34 13.66 13.66 0 001.54.34 3 3 0 001.86.1 1.41 1.41 0 00.69-2.36z"/>
    <path style="fill:#231f20;" d="M562.29 406.65c-5-22-10.69-44.06-19.51-64.91a203.93 203.93 0 00-15.64-29.91 153.57 153.57 0 00-9.34-13.31c-1.67-2.1-3.43-4.15-5.28-6.09-.93-1-1.88-1.92-2.86-2.84a7 7 0 00-2.88-2 2.36 2.36 0 00-2.09.52 112.55 112.55 0 00-12.37-12.43c-7.05-7.25-14.34-14.28-21.76-21.11q-9.24-8.51-18.86-16.58c-6-5-12.11-10.05-18.59-14.5a81.79 81.79 0 00-23.25-11.5 1.24 1.24 0 00-1.32.35l-.56-.17a12.36 12.36 0 001.75-3.83c.93-3.5.89-8.07-1.79-10.82s-7.65-3.52-11.4-3.21a18.92 18.92 0 00-11.05 4.68 19.33 19.33 0 00-3.41 4 1.49 1.49 0 00-.62 0 27.92 27.92 0 01-4.43 1 1.46 1.46 0 00-.36-.16l-4.07-1c-2.18-.9-4.26-2.16-6.56-2.72a10.37 10.37 0 00-6.17.23 1.28 1.28 0 00-1.06.18 24.78 24.78 0 00-4.27 2.88c-1.18 1.19-1.3 2.87-1.28 4.46a10.77 10.77 0 001.38 5.78c-1.1.39-2.2.77-3.29 1.17a13.82 13.82 0 00-4.91 2.67 33.82 33.82 0 00-3.05 3.88 4.63 4.63 0 01-4.28 2c-1.88-.06-3.73-.12-5.35 1a8.08 8.08 0 00-2.83 3.85 7.27 7.27 0 00-.35 1.12 16.24 16.24 0 00-1.23 5.06v.16c0 .05 0 0 0 0a11.57 11.57 0 00-1 2.14 7.55 7.55 0 01-1.34 1.84 14.87 14.87 0 01-4.33 2.83c-3.1 1.46-6.33 2.52-9.53 3.7h-.19a10.43 10.43 0 00-6 1.74c-4 3.08-1.17 9.21 1.79 12.53.39 1.21.84 2.39 1.34 3.56a10.49 10.49 0 003.83 6 14.27 14.27 0 003.9 2.19c1.11.41 2.63.62 3.59 1.43.14 1.41 2 2.67 3.06 3.3 3.43 2.05 7.64 2.07 11.4 1A34.9 34.9 0 00346.2 272a3.3 3.3 0 001.53 1.25c1.38.56 2.75-.13 4.11.23 2.27.62 2.65 4.17 3.42 6a9.26 9.26 0 002 2.93c.38.38.85.76.84 1.34s-.71 1.46-1.09 2a34.35 34.35 0 00-3.88 8.19v.1a1.09 1.09 0 00-1 .73c-2 4.7-7.16 6.41-11.79 7.41a67.79 67.79 0 00-8.47 2 26.6 26.6 0 00-6.73 3.55c-8.88 6.45-13.48 16.65-20.68 24.64A48.9 48.9 0 01290 343.33a1.41 1.41 0 00.33 2.55c5.89 2.14 10.37 6.81 16 9.42 2.92 1.35 6.09 2.38 9.09.72 2.5-1.38 4.34-3.71 6.6-5.41a8.9 8.9 0 013.33-1.72c1.74-.4 3.37.27 5 .66a14.67 14.67 0 009.25-1.06c.67-.27 2.44-1.17 3.08-.45.47.53-.12 1.88-.27 2.45s-.38 1.42-.56 2.12a1.26 1.26 0 00-.91 1 127.62 127.62 0 00-3.8 26.87l-4.89 12.15a1.17 1.17 0 00-.07.6 122 122 0 00-7.36 13.71 167.88 167.88 0 00-6.64 17.82 89.24 89.24 0 01-6.85 16.76 1.1 1.1 0 00-1.33.69c-3.24 7.28-9.2 12.7-15.74 17a109.01 109.01 0 01-5 3.11 50.52 50.52 0 00-5.34 3.19c-3 2.31-4.53 6.88-.95 9.49 3.39 2.48 7.94 1 11.49 3 1.68.93 2 2.69 3.18 4.07 1.44 1.71 3.63 1.66 5.68 1.72 9.78.31 19.65 1 29.44.55a59.66 59.66 0 0019.08-3.68 1.65 1.65 0 00.45.11c4.52.23 8.21-2.88 10.57-6.45 2-3 3-6.42 4.64-9.56a33.61 33.61 0 001.19 5l.12.72a1.24 1.24 0 00.31.66v.07a28.73 28.73 0 001.27 2.83c.14.28.26.56.4.84a1.89 1.89 0 00.22.31c.43.74.88 1.47 1.37 2.18a35.9 35.9 0 006 7.58 1.41 1.41 0 001.65.19 40.6 40.6 0 009.85 5.27c11.36 4.22 24 3.7 35.88 2.81 4.81-.37 9.6-.89 14.38-1.53 19.55-1.17 39.11-2.51 58.53-5.11 19.59-2.63 40-7.7 53.26-23.56a57.13 57.13 0 0012-24.77c2.29-10.64.73-21.16-1.64-31.6zm-245.53-72.38a19.88 19.88 0 011-4.44 14.36 14.36 0 01.62-1.45 23.23 23.23 0 00-1.62 5.89zm8.81-18.27c-1.52 1.7-3.26 3.18-4.89 4.77a20.53 20.53 0 00-6.51 11.8 32.14 32.14 0 00-.29 6.93c.15 2.38.62 4.71.82 7.08s-.13 4.6-2.55 5.4c-1.42.47-4.47.23-4.7-1.76-.12-1 .94-2.12 1-3.19a3.24 3.24 0 00-1.07-2.67 6.73 6.73 0 00-2.81-1.28 5.13 5.13 0 01-1.45-.47 3.29 3.29 0 01-.49-.42l-.16-.22v-.07c.72-.8.23-2.51-1-2.35l-.72.13a52.65 52.65 0 003.95-3.51c4-4 7.13-8.68 10.36-13.27s6.48-8.89 10.81-12.26l.58-.43a1.25 1.25 0 00.43 1c1.41 1.34-.32 3.73-1.31 4.79zm-15-62.23c-.1-.3-.35-.86-.55-1.39a3.14 3.14 0 01.25-1.71 11.21 11.21 0 011.6-.79c.76-.38 1.53-.74 2.31-1.09l.33-.08a4.71 4.71 0 01.71 1.58 6.81 6.81 0 01-1.95 6.16c-.45.49-1 .93-1.44 1.39zm46.94 6a19.87 19.87 0 00-5.42 3.47l-.27.17a1.29 1.29 0 00-.82.19 135.22 135.22 0 01-14.78 7.4 22.15 22.15 0 01-9.53.37c-.39-.08-.88-.24-1.41-.4a18.24 18.24 0 006.51-3 25.11 25.11 0 005.89-4.13c1.83-1.72 3.54-3.91 3.32-6.55a1.41 1.41 0 00-2.6-.71c-.65 1-1.34 1.95-2.06 2.91a32.94 32.94 0 01-12 6.41c-2.2.63-4.8 1.35-7.07.69a5 5 0 01-2.75-2.14 9 9 0 01-1.66-3.21c-.14-1.14 1.41-1.91 2.13-2.66a12.21 12.21 0 002-2.82 8.75 8.75 0 00.61-6.76 7.11 7.11 0 00-.42-.94c2-.5 4.07-1.05 6.07-1.71 2.53-.83 5.14-1.7 6.72-4a7.85 7.85 0 00.92-1.83 13.12 13.12 0 001.45-4.32.72.72 0 00.28-.24 24.09 24.09 0 013.36-3.56c.6-.53-.17-1.5-.85-1.1l-.63.38c.07-.12.14-.25.22-.36a2.13 2.13 0 00.5-1 .65.65 0 00-.81-.61 2 2 0 00-.87.88c-.18.28-.36.56-.52.85l-.21.39c.07-.52.15-1 .27-1.55.07-.13.13-.26.21-.38 1.36-2.19 4.14-2.51 6.43-3.06a13.39 13.39 0 006.7-3.68 22.36 22.36 0 013.21-2.94 15.56 15.56 0 013.48-1.56 13.36 13.36 0 005.55-3.09 13 13 0 004.07-.87c1.84-.64 3.66-1.31 5.49-2l10.91-3.91-.6 2.18a1.33 1.33 0 00.05.89 1.47 1.47 0 002.73-.06c2.45-6.82 8.3-12.58 15.79-13.14a14.9 14.9 0 015.48.56 3.81 3.81 0 013.06 3.76 13.73 13.73 0 01-3.64 10.29 1.41 1.41 0 001.36 2.34 8.54 8.54 0 002-1 1.4 1.4 0 001.06.65l3.64.41c12.94 4.32 24.35 12.25 34.8 20.92 12.89 10.7 25.16 22.24 37.33 33.74l1.57 1.5a1.42 1.42 0 00.58.95c.7.52 1.39 1.06 2.08 1.59q4.17 4 8.32 8l2.43 2.6c-1.09-.14-2.18-.3-3.26-.48a1.6 1.6 0 00-.28-.22 9.47 9.47 0 00-2.66-1 102.94 102.94 0 01-14.71-6.87 12.26 12.26 0 00-3.69-1.61 16.85 16.85 0 00-4.8.28 54.11 54.11 0 01-9.94-.11 134.42 134.42 0 00-19.45-.58c-6.5.4-13 1.27-19.42 2-3.2.39-6.41.79-9.63 1a8.42 8.42 0 01-4.14-.36 6.17 6.17 0 01-2.57-2.73c-2.94-5.22-4.33-11.26-5.58-17.05-.46-2.17-1.5-4.45-3.89-5-2-.42-3.74.74-5.26 1.84-1.85 1.34-3.69 2.84-5.92 1.32a9.47 9.47 0 01-3.57-5.83c-1.23-5.39.43-10.87.83-16.26.39-5.18-.26-11-4.51-14.54a1.41 1.41 0 00-2.38 1l.45 14.77a1.35 1.35 0 00-.38.87 45.27 45.27 0 01-.62 4.51 107.92 107.92 0 01-8.42 15.86 17.38 17.38 0 01-2.48 3.61c-.47.43-.74.19-1.33.07a3.57 3.57 0 00-2.09.34zm124.22 200l11.4-5.84c-3.29 3.07-7.13 5.8-11.44 5.91zm29.9-15.77a29.09 29.09 0 01-5.75 4.37 27.77 27.77 0 01-2.88 1.46c-.26.11-.59.2-.91.3.25-.47.53-.91.81-1.36a18.3 18.3 0 002.16-2 1.6 1.6 0 00.65-.37 117.58 117.58 0 0010.82-11.5c.67-.6 1.37-1.16 2.07-1.69a28.94 28.94 0 01-6.97 10.79zm18.58-55.21a69.56 69.56 0 01-10.43 23.66 35.76 35.76 0 01-9.34 9.14c-3.73 2.47-7.28 4.73-10 8.33-2.3 3-4.47 6-6.92 8.87a1.36 1.36 0 00-.92.61c-.42.62-.87 1.22-1.32 1.81-.13.13-.25.27-.38.39-.28.29-.59.55-.88.83l-2.51 2.29a61.578 61.578 0 01-5.14 4v-.31a1.42 1.42 0 00-2.1-1.21l-5.51 3.46c.16-.45.31-.91.43-1.38.28-1.09-1-2.32-2.05-1.58l-13 9.3c.36-.92.71-1.84 1.06-2.76a1.41 1.41 0 00-2.05-1.58c-1.78 1.18-3.54 2.4-5.29 3.63a20.7 20.7 0 00.76-4.46 1.41 1.41 0 00-1.77-1.35 16 16 0 00-5.68 3.67 4.83 4.83 0 00-.42-.62 1.41 1.41 0 00-2 0L441 457l.9-3.63a1.41 1.41 0 00-2.34-1.36l-12.95 11.21c-2.7 2.34-5.47 4.84-8.75 6.25a143.27 143.27 0 007.8-14.49 28.1 28.1 0 004-9.49c.73-1.91 1.44-3.84 2.1-5.78.38-1.12-.57-1.77-1.47-1.66 0-.39 0-.78-.07-1.17a1.42 1.42 0 00-2.39-1 59.93 59.93 0 00-8.71 9.23 90.18 90.18 0 00-6.73 10.94 25.08 25.08 0 01-8.5 9.41 126.8 126.8 0 01-11.89 6.32l-14.3 7.13-2.75-4.05a30.29 30.29 0 00-3-7.38c-.19-.82-.37-1.64-.56-2.46a1.42 1.42 0 00.39-1.3c-.12-.65-.21-1.29-.29-1.93l.19-4a78.83 78.83 0 002.53-9.72c1.21-5.8 2.43-11.53 5-16.93 2.63-5.61 5.89-11 9-16.33s6.31-11 9.61-16.39 6.73-10.73 10.36-15.92c3.41-4.87 7.05-9.62 9.75-14.94 2.34-4.61 3.36-9.65 5.43-14.35a15.24 15.24 0 014-5.77c2.14-1.77 4.91-2.42 7.49-3.26a53.6 53.6 0 0016.87-9c4.2-3.33 9.37-8.95 6.33-14.66a1.41 1.41 0 00-1.58-.64c-5.51 1.8-10.28 5.1-15.11 8.22-4.15 2.68-8.53 5.33-13.42 6.27a25.77 25.77 0 00.89-9.16c-.22-2.54-.55-7.69-3.74-8.37-1.61-.34-2.9.75-3.8 2-1.2 1.6-2.31 3.28-3.55 4.86-.63.82-1.28 1.63-1.94 2.43a10.7 10.7 0 01-1.86 2.15c-.42.26-.4.22-.85-.09s-.9-.69-1.35-1l-2.56-2-6.39-4.89a18.49 18.49 0 00-4.29-4.22 1.2 1.2 0 00-1.42 0 1.42 1.42 0 00-1.56 1 13.44 13.44 0 00.64 6.9c-1.06-.48-2.13-1-3.2-1.41-2.25-1-4.55-.63-5.69 1.72s-1 5-1.2 7.44c-.09.92-.17 1.84-.26 2.76a38.22 38.22 0 00-2.62-5 1.56 1.56 0 00-.29-.33 3.62 3.62 0 00-1.23-1.2 1.91 1.91 0 00-2.77 1.15 10.83 10.83 0 00-.22 2.67c0 .91 0 1.81.07 2.71a33.19 33.19 0 00.67 4.56c.42 3.48.91 6.95 1.5 10.41L381 363c-.06.86-.12 1.72-.21 2.57a81.84 81.84 0 01-8.17 28c-2 4.14-4.27 8.18-6.54 12.19a17.75 17.75 0 00-6.57-7c-1.74-1-3.86-.81-4.74 1.18-.79 1.79-.48 4.12-.1 6 .85 4.17 3.14 7.89 4 12.05a11.29 11.29 0 01.31 2.84c0 1.38-.6 1.66-1.9 1.71a7.53 7.53 0 00-4.71 1.44c-2.57 2.06-3.3 5.82-3.06 8.95.33 4.35 2.94 8.27 2.93 12.66s-4.59 7.27-3.84 11.71c.17 1 .72 1.92 1 2.92.29 1.26-.51 2.15-1.3 3a46.32 46.32 0 01-4.52 4.45A47.43 47.43 0 01316.9 479a1.39 1.39 0 00-.75.28c-2.87.29-5.59 1.42-8.49 1.55a5.92 5.92 0 01-4.72-1.54 32.52 32.52 0 00-3.57-3.57c-.11-.09-.24-.16-.36-.24l1.83-.73 1.55-.62c.34-.14.7-.26 1-.42s.49-.29.74-.43a1.27 1.27 0 00-1-2.32 7.9 7.9 0 00-.84.2c-.27.09-.54.21-.81.32l-1.49.6-3.11 1.24a1.53 1.53 0 00-.81.6 16 16 0 00-1.81-.6l1.17-.51 1.59-.69.79-.35a4 4 0 00.87-.6 1.27 1.27 0 00.2-1.54 1.34 1.34 0 00-1.43-.58 4.13 4.13 0 00-.49.07 4.49 4.49 0 00-.56.24l-.79.35-1.59.68-3.17 1.38a1 1 0 00-.27.19l-.46.17a2.06 2.06 0 00-.86.49l-.08.1a10.05 10.05 0 01-2.34-.26q1.51-.86 3.09-1.59c.68-.31 1.21-.54 1.79-.77a16.18 16.18 0 002.19-1 1.21 1.21 0 00-.93-2.22 16.48 16.48 0 00-4.39 1.58c-.63.29-1.26.6-1.88.92a15.34 15.34 0 011.29-1.13l.09-.09c5.93-2.07 10.68-6.43 15.28-10.56s9.13-8.72 12-14.31c3-5.93 4.46-12.6 6.81-18.82a140.32 140.32 0 018.82-18.81c2.83-5.06 6-10 8.38-15.23a1.24 1.24 0 00.62-1.13v-.31c.21-.49.4-1 .6-1.51l.69-1.48a1.52 1.52 0 00-.09-1.38l.12-.56.13-.37a1.14 1.14 0 00.06-.54 33.37 33.37 0 00.57-5.19c.44-3.45.54-7 .86-10.42a40.52 40.52 0 012.56-11.07c1.43-3.68 3.23-7.21 4.62-10.91a32.18 32.18 0 002.22-11.47c0-4.26-.71-8.54-.28-12.8.42-4.07 2.34-7.61 4.77-10.83a61.62 61.62 0 017.82-8.41 62.71 62.71 0 019.35-6.95 41.18 41.18 0 0110.9-5.1 13.17 13.17 0 016.42-.16 52.25 52.25 0 006 1.46c4.22.49 8.39-.74 12.24-2.35.91-.38 1.8-.78 2.7-1.2s2.17-1.33 3.18-1.27c.82.05 1.35 1 2 1.4a4.15 4.15 0 002.59.47c2-.23 4.05-1.36 5.93-2.13l6.34-2.6c.95-.39 1.64-.88 2.64-.6s2.24.57 3.38.79c2 .39 4.07.66 6.12.91q6.88.84 13.78 1.64l3.08.37 2.46.58a78.32 78.32 0 008.66 1.92 9 9 0 004.83-.61 35.6 35.6 0 017.58 1.72c3.9 1.44 7.29 4 11.14 5.59a37.83 37.83 0 006.06 1.94 8.6 8.6 0 004.58.2 3.81 3.81 0 001.34-.74l8 6.55a1.63 1.63 0 00.76.35 45.82 45.82 0 013.33 6l-3.23-2.1c-.66-1.11-1.32-2.22-2-3.33-.78-1.28-1.9-2.75-3.62-2.24a1.43 1.43 0 00-1.87.53 2.54 2.54 0 00-.24.46 1.52 1.52 0 00-.92 2.09q4 8.13 7.93 16.26a1.4 1.4 0 002.41 0l.36-.66a124.16 124.16 0 016.83 16.61l6.38 24a80.67 80.67 0 01-1.86 26.92zm4.51-29c-.08-.62-.16-1.23-.25-1.85.21.64.41 1.29.62 1.93a1.63 1.63 0 00-.37-.09z"/>
    <path style="fill:#231f20;" d="M397.14 202.37c-2.32.15-4.32 1.58-6 3a13.24 13.24 0 00-4.23 5.94c-.85 2.69-.31 5.5.18 8.2 0 .2.05.4.08.59-.66 6.44-1.32 12.89-1.91 19.34a1 1 0 00.39.93 1.47 1.47 0 002.68-.17q3.12-8.88 6.59-17.64c1.15-2.89 2.47-5.7 3.74-8.54 1.08-2.42 3-5.29 2.83-8a3.91 3.91 0 00-4.35-3.65zM249.17 340.8c-1.43-1.4-3.78-1.57-5.66-1.37a13.61 13.61 0 00-4.31 1.24h-.21c-4.55 1.47-8.25 4.31-11.89 7.26a87.11 87.11 0 01-11 4.74 1.23 1.23 0 000-.27 216.7 216.7 0 00-7.68-28.08l.85-.22a7.31 7.31 0 002.65-.9 1.32 1.32 0 00.57-.61 12.29 12.29 0 006.9-4.54 14.5 14.5 0 002.52-11.19c-1.32-8.31-8.27-14.22-15.33-17.95a68.77 68.77 0 00-11.48-4.64c4.42-2.59 5.56-8.73 5.86-13.41a32.94 32.94 0 00-3.5-16.86c-1.85-3.68-4.39-7.36-5.61-11.36-.22-1.84-.45-3.67-.67-5.51a.73.73 0 00-1-.63 1.53 1.53 0 00-2.52.47l-2.79 7.14a38.6 38.6 0 00-2.17 6.43 14.19 14.19 0 00-.24 2.12 39.14 39.14 0 00-3.15-3.16 37.87 37.87 0 00-5.41-4 12.07 12.07 0 00-5.36-2.13 1.23 1.23 0 00-1.49.09 1.1 1.1 0 00-.76 1.35c-3.11 6.72-3.84 14.24-3.08 21.58.72 6.94 2.34 14.27 6.09 20.25a25.86 25.86 0 002.85 3.76 1.36 1.36 0 00-1.09 1.34v19.1a1.07 1.07 0 00-.92.68q-8 18.22-15.2 36.78l-1.5 2.87a88.35 88.35 0 00-7 19.64l-.4 1.57c0 .12-.08.24-.13.36-3.68 10.39-7.27 20.83-10.42 31.4s-5.31 21.27-5.4 32.29a84.52 84.52 0 002.13 20 8.51 8.51 0 00-6.17 3.69 4.72 4.72 0 00-.52 4.42 3.79 3.79 0 00.71 1.06 5.48 5.48 0 00-1 5.48 6.61 6.61 0 002.94 3.38 4.37 4.37 0 01.78.39c.25.23.25.57.35.9a5.3 5.3 0 001 1.8 5.85 5.85 0 007.24 1.26 7.1 7.1 0 003-4.14 29.81 29.81 0 0014.11 10 31.89 31.89 0 0014.78 1.06 75.55 75.55 0 007.43-1.74 27.59 27.59 0 018-.67c5.35.24 10.65.59 16 .38a125 125 0 0016-1.68 120.44 120.44 0 0015.55-3.72c1.88-.58 4-1.16 5.38-2.67a4.28 4.28 0 00.66-4.93c-2-3.7-7.59-3.9-11.21-4.43q-8.11-1.2-16.3-1.82-2.9-.21-5.79-.35c4.5-7.3 8.25-15.2 9.92-23.65 1.48-7.49 1.66-16.28-3.18-22.59a1.32 1.32 0 00-.65-.94c-.09-.06-.18-.09-.27-.14l-.09-.12a1.25 1.25 0 00-.92-.4 9.44 9.44 0 00-3.72-.78h-.05a1.46 1.46 0 00-.47-.71 70.08 70.08 0 004.64-13.64c0-.1.07-.21.1-.32q1-3.58 1.79-7.23c.17-.79.37-1.62.56-2.45.55.45 1.14.86 1.66 1.34a1.8 1.8 0 00.19.2c.86 1.39 1.78 2.75 2.74 4.08.91 1.86 1.64 3.81 2.49 5.71 1 2.24 2.28 4.93 4.5 6.22 5.84 3.39 8.84-6.1 9.18-10.15.45-5.42-.87-11.67-4.14-16.08a13.36 13.36 0 00-10.71-5.56 121.08 121.08 0 0017.48-11.83 53.51 53.51 0 008.92-8.62c2.37-3 4.72-6.7 5.3-10.55a5.72 5.72 0 00-1.26-5.09zm-21 52.83a25.62 25.62 0 00-1.82-8.51 11.39 11.39 0 00-2.64-4.17 11.15 11.15 0 013 2.43c3 3.49 4.18 8.6 4.24 13.1a15.84 15.84 0 01-1.28 6.86 7.43 7.43 0 01-1.9 2.76c-1.09.87-2.13.17-2.92-.75a14.18 14.18 0 01-1.8-2.71 1.28 1.28 0 00.86-.39 8.45 8.45 0 002.18-4.64 2.62 2.62 0 001.12-.63 4.24 4.24 0 00.91-3.35zm-8.45-81.7a19.76 19.76 0 01-.52-2c0-.17-.08-.34-.13-.51s0-.15-.07-.25a5.94 5.94 0 00.82-.94c.27-.35.53-.72.77-1.09a14.5 14.5 0 01-.17 5.76 1.58 1.58 0 01-.75-.97zM138 471.69a13.51 13.51 0 01-.31 2.77 3.65 3.65 0 01-1.53 2 3 3 0 01-4-1.05c-.47-.89-.44-1.83-1.26-2.54s-1.78-.88-2.47-1.71c-1.18-1.44-1-3.85 1-4.44 1.39-.41 1.2-2.78-.36-2.64a1 1 0 01-1.11-1.18 3.46 3.46 0 011.33-2.24 5.91 5.91 0 013.65-1.43 48.6 48.6 0 005.19 12.08 1.07 1.07 0 00-.13.38zm1.39-3.88a38.7 38.7 0 006.81 8.63 34 34 0 01-6.82-8.63zm68.88-69.7c-.19.82-.4 1.64-.6 2.46a129.3 129.3 0 01-4.78 13.8 1.14 1.14 0 000 .85 68.75 68.75 0 00-6.78 2.76 31 31 0 002.07-5.87 29.21 29.21 0 00.73-3 5 5 0 00-.6-2.81c-.43-1.1 0-2.2.37-3.27a8.06 8.06 0 00.47-3.11 1.18 1.18 0 00-1.56-1.1l.48-2.42c.22-1.11.76-2.56.22-3.66a2.25 2.25 0 00-1.43-1.14l.72-1.26a10.47 10.47 0 011-1.86 10.76 10.76 0 011.44-1 8.53 8.53 0 003-5.12c2.55.29 5.15-.56 7.6-1.57v.05c.38 5.86-.98 11.59-2.36 17.27zm37.64-51.59a9.18 9.18 0 01-2.34 3.83c-1 1.22-2.06 2.39-3.15 3.54a71.49 71.49 0 01-6.88 6.37c-2.45 1.82-4.94 3.61-7.47 5.33a1.38 1.38 0 00-.6.87c-1 1-2.08 2-3.16 2.93a49.64 49.64 0 01-7.3 5.25l-.67.38a19 19 0 01-3.81 1.39 13.92 13.92 0 01-8.28-.33c-2.7-1-4.58-3.38-7.23-4.51-1.21-.51-2.66.59-1.91 1.91 1.77 3.11 3.9 6.51 7.25 8.09a6.6 6.6 0 01-3.23 4.73c-1 .61-1.48 2.12-2 3.14-.67 1.31-1.32 2.63-2 3.92-.61 1.14 1 2.52 1.87 1.44.23-.26 1-1.27 1.21-.89s-.3 1.69-.37 2.09c-.29 1.46-.56 2.93-.86 4.39-.15.76.53 1.74 1.4 1.4l.22-.09a15 15 0 00-.84 3.72c0 1.09.75 1.92.81 2.94a8.88 8.88 0 01-.69 2.7c-1.09 3.69-2.52 7.46-5.54 10-1.23 1 .35 3 1.69 2.19 1.94-1.13 3.94-2.15 6-3.08a1.35 1.35 0 001.47.07 9.16 9.16 0 0112.12 3.58 26.27 26.27 0 011.25 4.5 1.2 1.2 0 00.34.64 39.17 39.17 0 01-1 12.05c-1.91 8.52-5.92 16.37-10.61 23.67a1.4 1.4 0 001.2 2.1c5.18.21 10.35.58 15.5 1.14q4 .43 8.07 1a42.8 42.8 0 016.75 1.2c1.12.36 3.28 1.19 3.16 2.68-.14 1.75-3 2.32-4.28 2.73a120.37 120.37 0 01-14.85 3.62 124.87 124.87 0 01-30.1 1.49 42.47 42.47 0 00-6.86 0c.47-.33.94-.67 1.39-1 1.24-1-.17-2.51-1.35-2.33l-3.85.56a3.29 3.29 0 000-.7c-.09-.69-.56-1.48-1.39-1.4a36.88 36.88 0 01-29.95-11.11 34.75 34.75 0 01-6-8.68l-.15-1.61c1 1.32 2.65 2.47 4.3 1.55a3.11 3.11 0 00.53-.41c.66 1.07 1.36 2.14 2.1 3.19a1.49 1.49 0 00-.82 2.3 26.92 26.92 0 008.82 7 33.67 33.67 0 007.26 3 1.24 1.24 0 001.32-.35 27.22 27.22 0 003.93.26 1.4 1.4 0 00.38-2.74L164 467a1.12 1.12 0 00-.67-.95 36.11 36.11 0 01-18.06-18.53 1.36 1.36 0 00-1.85-.49 3.25 3.25 0 00-1.53 2.73c-.06 1.07.35 2.18.2 3.23-.21 1.43-1.41-.8-1.63-1.25-.91-1.82-1.72-3.7-2.57-5.55a1.42 1.42 0 00-2.37-.07 57.31 57.31 0 01-1.26-13.81c.35-13.32 4.73-26 8.74-38.61 2.11-6.58 4-13.2 5.61-19.92.07-.25.13-.51.19-.77q4.24-11.94 8.81-23.76c2.7-5.18 5.52-10.29 8-15.57 1.65-3.49 3.37-7 4.85-10.52a28 28 0 002.29-8.71 1.29 1.29 0 001.16-1.33q0-9.88-.07-19.77a20.2 20.2 0 013.5.78c1.52.54 2.16-1.61 1-2.43a27.4 27.4 0 01-4.5-3.61 22.93 22.93 0 01-3.27-4.83A42.6 42.6 0 01166.9 272c-1.35-6.66-1.7-13.77 0-20.39a9.45 9.45 0 011.15 5.34 54.64 54.64 0 00.12 6.65 28.88 28.88 0 004.71 12.68 28.1 28.1 0 005.08 5.69c.69.58 1.68-.41 1-1a27.21 27.21 0 01-7.82-11.08 27.7 27.7 0 01-1.6-6.59c-.24-2.25-.06-4.48-.08-6.74s-.4-4.77-2.06-6.58a30.28 30.28 0 011.46-3.84c1.52.19 3.21 1.46 4.37 2.2a33.33 33.33 0 014.2 3.18c.28.24.53.5.8.75a.71.71 0 000 .57 56 56 0 015.01 28.16c-.11 1.32-.27 2.64-.47 3.95s-.6 2.7-.7 4.06c0 .75 1 .75 1.2.17a17.28 17.28 0 00.81-3.64c.19-1.21.35-2.44.47-3.66a56.21 56.21 0 00.24-7.45 57.34 57.34 0 00-2.39-14.54q-.81-2.69-1.88-5.26a36.13 36.13 0 012.62 3.4 43.32 43.32 0 002 5.62c1.85 4.39 3.6 8.89 3.55 13.73a14.47 14.47 0 01-4.89 11.15c-1.38 1.16.6 3.1 2 2 6-5 6.87-13.65 5.36-20.83a37 37 0 00-5.45-12.88 13.6 13.6 0 010-6.65 86.85 86.85 0 013.92-10.54 18.22 18.22 0 001.09 4.93.78.78 0 00.57.46 60.37 60.37 0 003.23 6.37 46 46 0 013.46 7.26 31.38 31.38 0 011.64 8.25 30.69 30.69 0 01-.62 8.39 14.05 14.05 0 01-2.75 6.25 6.32 6.32 0 01-2.62 2 .67.67 0 01-.19.05l-.19-.13v-.07a2.9 2.9 0 010-1 8 8 0 01.43-2.06c.4-1.27 1-2.47 1.41-3.72a15.27 15.27 0 00.77-4.18 38.88 38.88 0 00-1.28-9.83q-1.09-5.1-2.63-10.08c-.26-.86-1.61-.5-1.34.37.94 3.09 1.77 6.21 2.47 9.37a42.83 42.83 0 011.4 9.48 14.06 14.06 0 01-.74 4.5c-.47 1.35-1.1 2.64-1.5 4a8.37 8.37 0 00-.42 2.91.63.63 0 000 .89l.1.09a.76.76 0 00.3.75 4.26 4.26 0 002.61.81c6.82 2.13 13.61 5 18.93 9.82a21.44 21.44 0 016.29 9.29c.05.17.09.36.14.53a.63.63 0 00-.2.17c-.62.74-1.24 1.48-1.84 2.24a12.38 12.38 0 01-1.48-.53l-1.58-.87c-.14-.14-.29-.27-.42-.42-.58-.68-1.56.31-1 1a6.41 6.41 0 003.05 2 5.56 5.56 0 00.89.51l.06.27a.68.68 0 00-.29.54c-.07 1.54-.17 3.68-1.84 4.37-1.51.63-2.46-1.15-3-2.24-.4-.81-1.61-.1-1.21.7.87 1.74 2.41 3.71 4.62 2.87a4.05 4.05 0 002.45-3 2.31 2.31 0 00.18.35 2.6 2.6 0 001.38 1.08 11.13 11.13 0 01-.66 1.45 11.56 11.56 0 01-5 4.78.67.67 0 00-.49-.05L212 321a1.37 1.37 0 00-1.43-.11c-1.83 1-4.29.62-6.28.41a37 37 0 01-12.05-3.49c-1.92-.95-3.64-2.37-5.58-3.23a1.43 1.43 0 00-.9-.09c-1.43-1.24-2.8-2.56-4.11-3.92a1.4 1.4 0 00-2.37 1l-.3-.19c-1.55-1-2.87 1.4-1.41 2.41l.53.37c-.79-.21-1.58-.4-2.39-.55-1.44-.27-2.62 1.84-1.08 2.55a78 78 0 0132.12 27.41 77 77 0 014.78 8.26 6.4 6.4 0 00-.26 2.18 15.75 15.75 0 01-3.84-.85 1.26 1.26 0 00-.76 0 7.3 7.3 0 00-2.77-1.24 1.41 1.41 0 00-1.71 1.72c.92 6.12 8.84 6.65 13.46 5.06a28.29 28.29 0 007.28-3.93A35.51 35.51 0 00228 352c2.5-1.6 4.71-3.56 7-5.38a82.6 82.6 0 003.52-2.34 1.57 1.57 0 002.41 0 2.78 2.78 0 014.97 2.24z"/>
    <path style="fill:#231f20;" d="M200.18 298.81l-.12-.14a6.09 6.09 0 00-2.55-1.88 6.27 6.27 0 00-4.08-1 6.48 6.48 0 00-4.85 3.23.7.7 0 001.21.71 4.9 4.9 0 01.68-.94 2.58 2.58 0 00.92 1.59.66.66 0 01-.33.12.7.7 0 00-.35 1.3 6.59 6.59 0 003.54 1.64 3.08 3.08 0 002.83-1.46c.43-.79-.77-1.5-1.21-.71a1.74 1.74 0 01-1.87.73 4 4 0 01-1.61-.71c.08-.07.15-.16.23-.24a3.77 3.77 0 003.32-.39 2.24 2.24 0 00.89-2.29 12.58 12.58 0 011.24.69.69.69 0 00.35.1c.22.15.44.3.65.46a.71.71 0 00.92.06.7.7 0 00.19-.87zm64.7-9.56a14.21 14.21 0 002.33-7.65 12.75 12.75 0 00-2.61-7.54 10.31 10.31 0 00-3.18-2.77 12.94 12.94 0 00-4.53-1.28c-2.9-.36-6-.22-8.56 1.35a11.8 11.8 0 00-4.5 5.35c-2.21 5.11-1 10.69 1.75 15.33a31.84 31.84 0 002.8 3.93c.48.58 1 1.23 1.54 1.82a5.31 5.31 0 00.83 3.93 6.28 6.28 0 00.63 2.69 5.78 5.78 0 005.12 3.28 6.51 6.51 0 005.85-3.47 7.12 7.12 0 00-.6-7.19.7.7 0 00.11-.37c-.09-2.76 1.65-5.11 3.02-7.41zM247.22 292c-2.63-4.1-4.11-9-2.48-13.81a9.75 9.75 0 0111-6.92 14 14 0 014.19.85 8.5 8.5 0 013.26 2.43 11.39 11.39 0 012 10.84 20.4 20.4 0 01-2 3.8c-1.27 2.08-2.6 4.24-2.8 6.7a.47.47 0 00-.17.07 10.29 10.29 0 01-3.24 1.46c-.22-.74-.42-1.49-.62-2.23s-.23-1.58-.34-2.36a27.43 27.43 0 00-.57-3.63 4.25 4.25 0 00-.33-.78c.3-1.88 2.29-3.63 1.05-5.54a3.08 3.08 0 00-4.75-.28c-1.4 1.69-.6 4.21 1.11 5.31a4.49 4.49 0 011.18.88 6 6 0 00.08 1 56.93 56.93 0 001.23 5.77 5.24 5.24 0 01.06 2.36 13.92 13.92 0 01-3.34-.33 13.76 13.76 0 01-2.19-2.33 30.94 30.94 0 01-2.33-3.26zm6.84-4.81a3.44 3.44 0 00-.42-.29 2.58 2.58 0 01-1.44-2 1.67 1.67 0 01.94-1.83 1.78 1.78 0 011.88.46c.64.82-.19 2-.58 2.75a7.43 7.43 0 00-.38.94zm7.18 16.09a4.6 4.6 0 01-1.17 1.65c.09-.47-.24-1-.81-.79-1.31.52-2.85 1.19-4.29.86a2.56 2.56 0 01-1.77-1.33l.54.07a5.3 5.3 0 002.9-.24l.23-.11a2.59 2.59 0 00.38-.17 3.12 3.12 0 00.45-.29c.05 0 .11-.06.17-.11l.15-.11c.59-.5-.22-1.58-.85-1.09a4.09 4.09 0 01-1.5.72h-.29a6.31 6.31 0 01-1.23 0 3.65 3.65 0 01-1.23-.45 3.49 3.49 0 01-.77-.66v-.1a2.59 2.59 0 01.44-1.3c.32-.32 1 0 1.41 0a2.1 2.1 0 001.58-.36 11.44 11.44 0 001.22-.27c.16 0 .31-.1.47-.15a15 15 0 003.51-1 5.74 5.74 0 01.46 5.26zm89.94-67.07c-.14-.2-.29-.4-.45-.59a1.21 1.21 0 00-.16-.16 5.23 5.23 0 00-4.41-1.94 3.88 3.88 0 00-3.5 3.84.72.72 0 00.7.7.71.71 0 00.7-.7 2.38 2.38 0 011.54-2.26 3.56 3.56 0 000 2.43 2.72 2.72 0 00.11.25c-.37.34-.8.6-.77 1.19a1.48 1.48 0 00.91 1.11 3 3 0 004.12-1.59.7.7 0 00-.49-.85.71.71 0 00-.86.48 1.45 1.45 0 01-1 .81 1.79 1.79 0 01-.69 0 1.06 1.06 0 01-.34-.12 2.72 2.72 0 00.3-.29 1.51 1.51 0 001.16-.75 2.61 2.61 0 00.12-2.37 3.9 3.9 0 011.38 1l.05.06a3.61 3.61 0 01.33.44c.54.75 1.74.1 1.25-.69zm3.82-12.37a.39.39 0 00-.11-.17.51.51 0 00-.37-.15.53.53 0 00-.37.15l-.76.69a.52.52 0 00-.11.19.51.51 0 000 .44.42.42 0 00.11.18.57.57 0 00.81 0l.69-.76a.52.52 0 00.16-.37.46.46 0 00-.05-.2zm3.73.95a.66.66 0 00-.72-.3c-.17.08-.36.14-.52.23l-.33.22-.74.49-1.46 1a.7.7 0 10.71 1.2l1.45-1 .72-.48.36-.23a3.81 3.81 0 00.43-.37.67.67 0 00.1-.76zm1.12 3.33a.65.65 0 00-.72-.29 3.29 3.29 0 00-.85.34l-.76.38-1.47.74a.7.7 0 00-.26 1 .71.71 0 001 .25l1.48-.74.72-.36.37-.18a2.67 2.67 0 00.43-.32.65.65 0 00.06-.82zm1.78 10.11c-.2-.39-.74-.45-1.12-.53l-.93-.18-1.92-.39a.71.71 0 00-.86.49.7.7 0 00.49.86l2 .39 1 .19.61.1h.21a.72.72 0 00.5-.22.62.62 0 00.02-.71zm-1.92 3.9a2.68 2.68 0 00-.87-.61l-.81-.46-1.66-.92a.71.71 0 00-1 .25.72.72 0 00.25 1l1.69.94.85.47c.13.07.26.14.4.2a1.4 1.4 0 00.33.15 1.43 1.43 0 00.35.06.61.61 0 00.56-.38.62.62 0 00-.09-.7zm-.94 4.06a2.47 2.47 0 00-.65-.68l-.66-.55-1.31-1.09a.73.73 0 00-.49-.21.69.69 0 00-.49.21.71.71 0 000 1l1.32 1.1.64.54.33.28a1.86 1.86 0 00.28.21 1.79 1.79 0 00.32.13.63.63 0 00.66-.23.64.64 0 00.05-.71zm52.67-13.84a1.85 1.85 0 00-.55-.53l-.48-.33-.93-.64-1.89-1.29a.69.69 0 00-.95.25.72.72 0 00.25 1l1.86 1.27.9.61a3.34 3.34 0 001.08.62.63.63 0 00.66-.22.6.6 0 00.05-.74zm6.34-2.15a10 10 0 00-1.68-1.26c-.55-.4-1.09-.81-1.62-1.24q-1.61-1.3-3.09-2.76c-.64-.63-1.63.36-1 1 1 1 2.08 1.94 3.18 2.83.57.46 1.14.9 1.72 1.32a7.6 7.6 0 001.86 1.18c.65.2 1.02-.63.63-1.07zm11.99 5.42a8.4 8.4 0 00-1.32-1l-1.26-.92-2.56-1.88a.71.71 0 00-1 .25.73.73 0 00.25 1l2.53 1.84 1.22.89a7.4 7.4 0 001.33.9.64.64 0 00.82-.16.65.65 0 00-.01-.92zm-2.14 4.31a8.44 8.44 0 00-.78-.68l-.81-.64-1.64-1.27a.8.8 0 00-.49-.2.72.72 0 00-.49.2.71.71 0 000 1l1.66 1.29.81.64c.32.24.63.46 1 .67a.64.64 0 00.77-1zm10.91 9.41a13.48 13.48 0 00-1.71-1.39l-1.68-1.27a.68.68 0 00-.95.25.71.71 0 00.25.95l1.65 1.26a12.43 12.43 0 001.68 1.19.63.63 0 00.76-1zm6.86-4.66a2.67 2.67 0 00-.72-.57l-.71-.48-1.34-.9-2.77-1.85a.7.7 0 00-.95.25.72.72 0 00.25 1l2.76 1.85 1.34.9a5.86 5.86 0 001.52.9.65.65 0 00.72-.29.66.66 0 00-.1-.81zm24.79 17.41a1.65 1.65 0 00-.71-.77l-.74-.53-1.52-1.1-3-2.16a.71.71 0 00-1 .25.73.73 0 00.25 1l3 2.13 1.48 1.06.73.53a1.58 1.58 0 00.91.43.63.63 0 00.6-.84zm-10.87-.98a5 5 0 00-1.08-1l-1.12-.93-2.21-1.84a.71.71 0 00-1 0 .69.69 0 000 1l2.21 1.85 1.09.9a5.82 5.82 0 001.23.94.68.68 0 00.77-.1.65.65 0 00.11-.82zM506 357.77c-.07-.89-1.47-.9-1.39 0a17.81 17.81 0 01-1.28 8.42c-.37.92-.89 1.75-1.29 2.65-.26.6.5 1.37 1 .77a14.52 14.52 0 002.48-5.64 19 19 0 00.48-6.2zm6.69-.46c-.15-.89-1.5-.51-1.35.37a18.77 18.77 0 01-.56 8.61c-.28.93-.68 1.8-1 2.72-.22.7.78 1.08 1.16.49a15 15 0 001.82-5.95 20.72 20.72 0 00-.07-6.24zm6.69-2.31a.72.72 0 00-.7-.69.7.7 0 00-.7.69 24.84 24.84 0 01.08 3.34c0 .56-.08 1.11-.14 1.67a9.18 9.18 0 00-.2 1.64c0 .58.9.94 1.18.33a6.12 6.12 0 00.4-1.85c.07-.55.12-1.1.15-1.66a25.13 25.13 0 00-.07-3.47zm-8.27 39.85c-.51.8-.9 1.67-1.34 2.51s-.93 1.72-1.41 2.57c-1 1.68-2 3.32-3 4.92-.5.75.71 1.45 1.2.7q1.64-2.44 3.09-5a33.68 33.68 0 002.65-5.22c.21-.69-.82-1.06-1.19-.48zm-14.05 3.38c-.49.65-.92 1.33-1.4 2s-1 1.28-1.53 1.89a26 26 0 01-3.56 3.31.73.73 0 00-.25.95.71.71 0 001 .25 27.23 27.23 0 003.84-3.52 18.27 18.27 0 003-4.23.63.63 0 00-1.1-.65zm-11.88 25.34c-1.36 1.07-2.62 2.28-3.91 3.44l-3.87 3.48c-.67.6.32 1.59 1 1l3.88-3.48c1.28-1.16 2.61-2.29 3.82-3.53.57-.61-.29-1.4-.92-.91zM360.2 336.93a45.18 45.18 0 01-1.18 5.15c-.24.83-.5 1.65-.79 2.47-.14.4-.29.81-.45 1.21a4.08 4.08 0 00-.41 1.31.64.64 0 001.08.44 3.49 3.49 0 00.61-1.2c.17-.43.33-.87.49-1.31.29-.81.55-1.63.8-2.46a44.63 44.63 0 001.19-5.24c.15-.88-1.19-1.25-1.34-.37zm5.49-.54a42.09 42.09 0 01-.52 5.6q-.23 1.35-.54 2.7c-.1.44-.22.89-.33 1.33a5.32 5.32 0 00-.31 1.41.64.64 0 001.18.32 4.57 4.57 0 00.47-1.36c.13-.47.25-.95.36-1.43.21-.93.4-1.87.55-2.81a46.37 46.37 0 00.54-5.76c.03-.9-1.37-.9-1.4 0zm5.97 7.17c-.24 1-.48 2-.71 3a24.79 24.79 0 00-.65 3.08.63.63 0 00.55.62.65.65 0 00.7-.46 22.09 22.09 0 00.76-2.93l.69-2.95c.21-.86-1.14-1.23-1.34-.36zm-.8 31.76v-3.35c-.05-2.18-.18-4.37-.39-6.55-.08-.88-1.48-.89-1.4 0 .21 2.18.34 4.37.39 6.55v3.23a16.15 16.15 0 000 3.26c.13.64 1.05.56 1.22 0a11.38 11.38 0 00.18-3.14zM364.3 382a12.18 12.18 0 00-.53-2.74.7.7 0 00-1.35.37 10.51 10.51 0 01.48 2.41 10.1 10.1 0 010 1.23c0 .45-.09.88-.07 1.32a.64.64 0 001.25.17 4.34 4.34 0 00.21-1.39 10.43 10.43 0 00.01-1.37zm-22.47 23.49l-.25 4.24-.12 2.07a12 12 0 00-.06 2.16.64.64 0 00.55.62.63.63 0 00.7-.45 11.13 11.13 0 00.2-2.16l.12-2.16.25-4.32c.05-.9-1.34-.89-1.39 0zm-3.69-5.7c-.37 2-.71 4.11-1 6.17-.14 1-.28 2-.4 3a16.92 16.92 0 00-.31 3.16.64.64 0 001.25.17 18.58 18.58 0 00.41-3c.13-1 .27-2.06.41-3.09q.44-3 1-6c.15-.92-1.2-1.3-1.36-.41zm-170.47-66.54a.71.71 0 00-.86.49 28.91 28.91 0 01-1.44 3.09q-.41.76-.87 1.5a4.48 4.48 0 00-.87 1.62c-.07.52.58.75 1 .55a1.83 1.83 0 00.65-.73c.18-.26.34-.52.5-.78.32-.51.62-1 .9-1.55a29.36 29.36 0 001.52-3.33.71.71 0 00-.53-.86zm1.81 3.22a2.89 2.89 0 00-.6 1c-.14.29-.29.58-.43.88q-.45.93-.87 1.89c-.57 1.28-1.09 2.59-1.56 3.91a.71.71 0 00.49.86.72.72 0 00.86-.49 52.782 52.782 0 012.35-5.59 6.47 6.47 0 00.85-2c.04-.61-.7-.77-1.09-.46zM162 349.08a4.31 4.31 0 00-.76 1.16c-.23.4-.45.81-.67 1.23-.41.77-.8 1.55-1.18 2.34a62.88 62.88 0 00-2.11 5c-.32.84 1 1.21 1.35.37q.92-2.46 2-4.82c.38-.79.78-1.57 1.19-2.34.19-.36.38-.72.58-1.08a4.65 4.65 0 00.62-1.24.64.64 0 00-1.02-.62zm-6.39 32.26a15.77 15.77 0 00-.76 2.51l-.66 2.47a.7.7 0 101.34.37c.22-.82.44-1.64.67-2.47a17.27 17.27 0 00.59-2.56.64.64 0 00-1.18-.32zm-2.81-1.93a9.52 9.52 0 00-.9 2c-.22.65-.43 1.3-.61 2a31.79 31.79 0 00-.83 4.22c-.05.37.36.7.7.7a.72.72 0 00.7-.7 27.8 27.8 0 01.8-3.92c.18-.63.37-1.26.59-1.89a18.5 18.5 0 00.67-1.94.62.62 0 00-1.12-.47zm-2.5-2.03a35.63 35.63 0 00-1.05 4.34c-.32 1.45-.65 2.9-1 4.35-.2.88 1.15 1.25 1.34.38.34-1.48.67-3 1-4.44a34.24 34.24 0 00.91-4.46c.09-.75-.97-.78-1.2-.17zm-.79 18.27a.72.72 0 00-.7.7 30.18 30.18 0 01-.76 4.33c-.17.71-.37 1.4-.6 2.09s-.53 1.41-.71 2.14a.64.64 0 001.16.49 17.13 17.13 0 001.52-4.42 32.93 32.93 0 00.79-4.63.7.7 0 00-.7-.7zm-4.22 1.87q-.67 2.58-1.36 5.15l-.66 2.53c-.11.42-.23.84-.34 1.26a4.83 4.83 0 00-.27 1.35.65.65 0 001.19.32 4.42 4.42 0 00.43-1.3l.31-1.17.69-2.62c.45-1.71.9-3.43 1.36-5.14a.7.7 0 00-1.35-.38zm-6.48 39.34l-.38-2.57c-.25-1.72-.51-3.44-.76-5.15a.7.7 0 00-.86-.49.73.73 0 00-.49.86l.75 5.05c.12.83.25 1.65.37 2.48a12.93 12.93 0 00.44 2.56.64.64 0 001.25-.17 12.46 12.46 0 00-.32-2.57zm138.7-160.03l-3.35.43a.51.51 0 00-.5.5c0 .24.22.54.5.5l3.35-.43a.51.51 0 00.5-.5c-.01-.24-.23-.53-.5-.5zm-7.2-17.04a6.38 6.38 0 00-.53 1.12c-.15.35-.29.71-.44 1.06l-.87 2.13a.7.7 0 00.49.86.73.73 0 00.86-.49c.28-.7.57-1.39.86-2.09l.42-1a6 6 0 00.37-1.08.64.64 0 00-1.16-.51zm-12.41-5.64a.49.49 0 00-.61.35l-.84 5a.52.52 0 00.35.61.51.51 0 00.62-.35c.27-1.68.55-3.35.83-5a.51.51 0 00-.35-.61zm-10.53 6.51c-.15-.27-.3-.53-.48-.79l-.51-.71-1-1.47a.7.7 0 10-1.2.71l1.06 1.49c.17.24.34.49.52.73a7.29 7.29 0 00.66.81.63.63 0 001-.77zm-11.32 7.77a.67.67 0 00-.22-.19 1 1 0 00-.24-.11l-.27-.11-.54-.22-1.09-.43a.73.73 0 00-.54.07.72.72 0 00-.32.42.73.73 0 00.07.54.84.84 0 00.42.32l1.06.42.53.21a1.38 1.38 0 00.69.17.64.64 0 00.45-1.09zm-1.17 13.11a.71.71 0 00-.79-.32l-3.29 1.23a.71.71 0 00-.48.86.7.7 0 00.86.49l3.29-1.23a.72.72 0 00.51-.68.62.62 0 00-.1-.35z"/>
  </g>
</svg>