<svg xmlns="http://www.w3.org/2000/svg" viewBox="0 0 684 684">
  <path class="svg-bg" d="M426.9 27c-72.5-4-145.7-14.66-211 14.27-111.61 49.48-199 138-205.38 259.9s48.79 240.38 145.37 315.07c26.23 20.28 66.91 24.08 99.14 31.84 43.09 10.37 76.51 16.1 120 7.81C441.16 643.31 510.8 629 560.87 584.1c48.54-43.54 83-85.13 91.76-156.37 13.21-107.27 27.49-201.87-44.63-296.46C565.72 75.78 481.59 30 426.9 27z" fill="#b2c4d2" id="Design_Circle" data-name="Design Circle"/>
  <g id="Redrawn_Black_Outlines_Design" data-name="Redrawn Black Outlines Design">
    <path style="fill:#f9f9fa;" d="M454.08 347.05h-.31a3.16 3.16 0 00-2.52-.63 6.86 6.86 0 00-4.41 1 4.73 4.73 0 00-1.77 2.14 3.59 3.59 0 00-1.1 3.64 26.19 26.19 0 01-4.89-8.6 41.25 41.25 0 01-1.39-7.64c-.49-3.34-1-6.68-1.5-10-2.26-14.44-5.26-29.06-12-42.16a43.5 43.5 0 00-2.71-5.83 1.62 1.62 0 00-.1-.18c-.48-.88-1-1.74-1.46-2.57-3.5-6-7.42-11.71-11.11-17.55q-2.2-3.48-4.38-7-1.29-2.24-2.74-4.37a45.74 45.74 0 00-3.16-7.4 1.18 1.18 0 00.07-.82c-1.18-4.58 1.24-8.54 2.57-12.78a13.88 13.88 0 00.57-6.58c-.48-2.72-2-5.33-3.09-7.82-1.3-2.85-2.34-5.8-3.62-8.66-.8-1.81-1.92-3.75-1.41-5.8.62-2.48 2.67-4.81 4.24-6.77s3.27-3.89 4.92-5.81c3.36-3.9 6.65-8 8.69-12.72 1.56-3.66 2.72-8.29 1.13-12.14-1.83-4.46-6.66-4.39-10.54-2.85a21.24 21.24 0 00-10.21 8.3 42 42 0 00-3.6 7 35.05 35.05 0 001.54-12 58.91 58.91 0 00-1.39-10c-.51-2.15-1.45-6.38-4.29-6.54-1.42-.08-2.45 1-3.2 2.07-1.66 2.38-2.48 5.34-3.28 8.08a90.38 90.38 0 01-3.62 9.65 36 36 0 00-2.94 9.94c-.76 6.45-.91 13.14.74 19.45.32 1.21 1 3 .16 3.75a5.54 5.54 0 01-2.38.94c-1.7.41-3.38.78-5 1.35a67.76 67.76 0 00-10.64 5 29.06 29.06 0 00-8.39 6.64 12.3 12.3 0 00-2.69 4.64 7.18 7.18 0 00-.3 2.63 1.44 1.44 0 001.4 1.4h.76c-.35.88-.8 1.74-1.09 2.62-.5 1.56-.36 3.21-.68 4.79a3.4 3.4 0 00-1.58 4c.53 1.77 2 3.23 3.36 4.43s2.59 2.09 3.88 3.15c1.49 1.24 3.43 2.87 3.72 4.92s-.74 4.49-1.35 6.46c-.49 1.58-1.11 3.12-1.7 4.66a77 77 0 00-4.15 12.88c-.7 3.56-1.07 8 1.55 10.76v.09c0 3 .89 5.87 1.31 8.82a11.43 11.43 0 00-7-.75c-2.61.47-5.1 1.3-7.67 1.24a8.47 8.47 0 002.63-6.44 1.42 1.42 0 00-1.4-1.39 12 12 0 01-4.31-.95c-1.8-.62-3.56-1.35-5.38-1.91-2.22-.68-5-1.27-7.13-.21-.78-.41-1.56-.81-2.3-1.25-1.57-.94-3.07-2-4.6-3a33.18 33.18 0 01-4.38-3.26c-.17-.15-.32-.3-.48-.46a1.13 1.13 0 00-.23-1 58.15 58.15 0 00-8.05-8.91 17.59 17.59 0 00-3.81-3 1.38 1.38 0 00-1.93 1.78.57.57 0 00-.11.11 1.4 1.4 0 00.11 1.83c3 3.19 6.16 6.28 9.33 9.32a1.33 1.33 0 00.65.36l.66.7a19 19 0 003.86 3.36 1.24 1.24 0 00.77.16c2.05 1.51 4.24 2.86 6.36 4.21a22.3 22.3 0 002.09 1.16c-.72 1.67.39 3.33 2 4.28a22.69 22.69 0 007.7 2.32 28.89 28.89 0 005.65.59 11.82 11.82 0 01-1.63 1.34 1.41 1.41 0 00.33 2.55 15.79 15.79 0 008.49 0c2.5-.57 5.14-1.46 7.7-.65a7.22 7.22 0 011.81.88 3.55 3.55 0 01.44.35 22.13 22.13 0 00.45 6.69 1.4 1.4 0 002.33.62 12 12 0 011.4-1.36c2 5.19.32 11.24 1 16.66.15 1.1 1.48 2 2.39 1a25 25 0 011.68-1.91c1.14 3.15 1.29 6.7 1.5 10a96.61 96.61 0 001.47 12.81 53.6 53.6 0 004.28 13.44c.92 1.86 2 3.67 2.79 5.58.51 1.21.9 2.48 1.4 3.7 1.21 3 2.93 6.28 6.53 6.59a1.34 1.34 0 001.2-.69c1.37-2.88.42-6.09-.34-9a71.69 71.69 0 01-1.66-11.4 119.38 119.38 0 01-.79-12.82q0-3 .3-5.89a2.15 2.15 0 002.76.09c1.65-1 2.49-2.76 3.17-4.53l.36-.4c.14 4 1.35 8.2 5.41 9.08a1.42 1.42 0 001.58-.64c.24-.56.46-1.13.64-1.7a1.82 1.82 0 00.49-1.91c.7-3.37.61-6.86.85-10.32a26.21 26.21 0 011-5.31c1.17-1.73 3.09-4.24 3.76-6.7.4-.85.78-1.72 1.1-2.62.39-1.07-.8-2-1.76-1.68a1.7 1.7 0 00-.1-.14 1.4 1.4 0 00-1.69-.22 15 15 0 00-3.52 2.52 1.4 1.4 0 00-1.13.36c-2.55 2.31-4.06 5.6-5.4 8.71-1.22 2.82-2.55 5.63-3.65 8.5-.11.28-.21.58-.32.89a4 4 0 01-1.5 1 7.17 7.17 0 00-.69-3.3 1.1 1.1 0 00-.26-.31c.39-2.32.81-4.64 1.29-6.94a46.77 46.77 0 001.06-7.25c.1-2.15 0-4.66-1.5-6.39-1.58-1.89-4.12-1.89-6.28-1.11a11.19 11.19 0 000-2.89 1.4 1.4 0 00-2.05-.83 7.76 7.76 0 00-1.28 1.21 4.69 4.69 0 00-.41-1.81 2.74 2.74 0 00-1.72-1.38 9.07 9.07 0 00-.26-3.36 1.43 1.43 0 00-2.7 0 1.26 1.26 0 00-.6.17 6.6 6.6 0 00-1.16-3 1.42 1.42 0 00-1.91-.5A7.66 7.66 0 00356 283c0-.85.07-1.7.11-2.5.12-2.21.31-4.42.35-6.64.05-3.39-.08-8.2-3.85-9.6a1.4 1.4 0 00-1.58.65 23.83 23.83 0 00-1.58 6.17 15 15 0 01-1.25 4.64c-1.8-2.48-.62-7.06 0-9.59a125.22 125.22 0 014.61-13.13 51.07 51.07 0 001.89-6 8.67 8.67 0 00-.36-6.24c-1.95-3.76-6.2-5.68-9-8.72a4.39 4.39 0 01-1.38-2.21.37.37 0 01.1-.3c.36-.44 1-.48 1.29-1a6.66 6.66 0 00.54-2.84 11.47 11.47 0 01.48-3c.39-1.15.93-2.2 1.27-3.32a9.11 9.11 0 003-1.31 1.41 1.41 0 00-1.08-2.56c-.87.24-1.69.53-2.53.77a1.56 1.56 0 00-.83-.06 5 5 0 01-.57 0 3.93 3.93 0 01.23-.71 10.8 10.8 0 012.28-3 31 31 0 016.26-4.52 58.18 58.18 0 0118.6-7.2 1.23 1.23 0 00.86-1.84 4.34 4.34 0 001.22-4.09c-.27-1.79-.89-3.51-1.23-5.28a41.4 41.4 0 01-.37-10.07 41 41 0 011.27-9.74 81.9 81.9 0 013.45-8.67c1.29-3 2-6.15 3.06-9.22.58-1.72 1.26-3.86 2.65-5.13h.05c.25.22.14.11.34.43a12.55 12.55 0 011.34 3.51 52 52 0 011.43 9.12c.92 12.09-6.35 22.65-9.9 33.75-.45 1.4 1.35 2.24 2.34 1.36 6.79-6.11 8.56-15.68 12.3-23.62 1.79-3.82 4.08-7.49 7.73-9.77 2.55-1.59 8.46-4.69 10.37-.67 1.63 3.42 0 8.12-1.51 11.27-2.18 4.51-5.49 8.32-8.74 12.08-1.61 1.87-3.21 3.74-4.71 5.69s-3.2 4.1-3.93 6.51a8.59 8.59 0 00.65 6c1 2.37 2 4.74 3 7.1 1.31 3.1 3 6.07 4.1 9.24a10.79 10.79 0 01-.14 7.05c-1 3.23-2.42 6.23-2.77 9.44-2.5.95-4.76 2.56-7.15 3.72a19.91 19.91 0 01-3.09 1.27 1.24 1.24 0 00.27-1.69 3.23 3.23 0 01-.22-.41l-.07-.21s-.06-.32-.07-.34a2.35 2.35 0 010-.26v-.36a1.64 1.64 0 00.14-.22c.41-.79.88-1.55 1.35-2.3a39 39 0 002.6-3.42 14.81 14.81 0 001.72-2.24 9.23 9.23 0 001.74-3.06 1.38 1.38 0 00-2.08-1.51 1.42 1.42 0 00-1.8.51c-1.18 1.61-1.73 3.58-2.7 5.31-.13.23-.27.44-.4.66s-.43.5-.63.76l-.57.75a18.34 18.34 0 01-1.87 1.87 19.63 19.63 0 01-4.35 2.67c-1.45.68-.43 3 1.07 2.55a10 10 0 001.17-.4 1 1 0 000 .16l-.94 1a.7.7 0 00.14 1.09c2.28 1.56 5.16.86 7.59-.14a.55.55 0 00.47.24.57.57 0 00.56-.69c1.53-.7 3-1.53 4.47-2.35.85-.48 1.71-1 2.61-1.38a12.14 12.14 0 00.13 1.69c-.28 4.25-2 8.37-1.87 12.68.17 5.63 4 10 5.51 15.23.74 2.56 1.31 5.24 2.94 7.4.07.25.16.49.22.71.2.72.41 1.45.67 2.16a8.37 8.37 0 002.28 3.7.71.71 0 001.1-.14c1.19-1.68.86-3.83 1.52-5.66a41.3 41.3 0 014.72 8.59 23.89 23.89 0 011.29 10.57c-.2 2.21-.52 4.38-.59 6.6s0 4.52.12 6.78a21.18 21.18 0 00.78 5.66 3.56 3.56 0 001.33 1.9h.08a1.72 1.72 0 00.56.22 4.11 4.11 0 003.05-1 33.75 33.75 0 003-2.47 7.85 7.85 0 01.49.78c-.4 3.33.89 7.08 2.46 9.86a12.3 12.3 0 00.66 1.54 1.21 1.21 0 00.59.57 5.94 5.94 0 00.77.82.72.72 0 001 0c2.51-2.51 2.5-6 1.94-9.26-.27-1.6-.6-3.2-.93-4.79a10.89 10.89 0 00-.94-2.84 1.16 1.16 0 00.11-.59 28 28 0 00-.4-3.17c0-.53-.1-1.05-.17-1.58 1.22 4.18 2.23 8.42 3.09 12.67 1.07 5.31 1.94 10.66 2.74 16 .39 2.62.77 5.25 1.16 7.87a34 34 0 001.06 5.76 30.45 30.45 0 005.54 9.81c2.13 2.52 5.24 5.18 8.77 4.76a6.83 6.83 0 004.63-2.78 2.6 2.6 0 00.67-.76 5 5 0 001.14-1.64 2.15 2.15 0 00.16-1.4 6.82 6.82 0 00.25-1c.34-2.31-.81-4.79-3.37-5.01zm-79.59 12.36a5.9 5.9 0 010 1.68 3 3 0 01-.77-.53 1.56 1.56 0 00.77-1.15zm7.14-119.11c.47-.47.93-1 1.4-1.43a5.08 5.08 0 00.5 1.06 1.32 1.32 0 00.78.6 5.26 5.26 0 01-2.68-.23zm42 70.05a4.35 4.35 0 00-.34-.41 6 6 0 00.42-.57c.06.13.12.26.17.4a6.19 6.19 0 00-.28.58z"/>
    <path style="fill:#f9f9fa;" d="M382.87 216.66c-.36-1.69-2.1-2.81-3.63-3.33a7.72 7.72 0 00-4.18-.17 3.68 3.68 0 00-1.34.67 2.88 2.88 0 00-.85.89 3.61 3.61 0 00-.62.49 1.42 1.42 0 00-.22 1.69 6.23 6.23 0 002.72 2.21c.21.15.43.29.64.41a6.79 6.79 0 004.45.88 3.92 3.92 0 001-.1 2.7 2.7 0 002-2.21 3 3 0 00.03-1.43zm-68.26 101.86c-.35-.38-.68-.78-1-1.17a1.41 1.41 0 00-.17-.72q-18.69-36-36.94-72.25t-35.92-72.49q-10-20.5-19.85-41.09a1.39 1.39 0 00-1.57-.64A494.58 494.58 0 00152 154.28q-9.24 4.09-18.3 8.58a1.23 1.23 0 00-.39 2 1.41 1.41 0 00-.09 1.4q18.12 38.13 36.48 76.13 10.9 22.56 21.9 45.07a27.47 27.47 0 001.45 3.13c.3.56.6 1.12.91 1.67q6.3 12.9 12.62 25.8 10.45 21.27 21 42.52a1.43 1.43 0 001.91.5q33.59-14.6 66.36-31 9.25-4.62 18.44-9.38a1.41 1.41 0 00.32-2.18zM229.49 358l-.33-.66a6.38 6.38 0 001.45.16zm80.68-38.33a6.61 6.61 0 00.74-1.26l.5.63zm5.02-94.9q-8.76-20.42-18.38-40.44a2.81 2.81 0 00-3.16-1.29 118.3 118.3 0 00-11.55 5 7.65 7.65 0 00-3.72 3.23 2.71 2.71 0 00-1.39.35 2.85 2.85 0 00-1 3.82q9.52 20.46 20.01 40.36a2.83 2.83 0 003.82 1l14.33-8.21a2.88 2.88 0 001.04-3.82z"/>
    <path style="fill:#231f20;" d="M384.33 217.83c0-.14 0-.28-.05-.42a.4.4 0 00.14-.11c.88-1.08-.24-2.19-1.05-2.91a11 11 0 00-3-1.88 10.56 10.56 0 00-7-.39.77.77 0 00-.37 1.14 1.27 1.27 0 00.13.19 2.9 2.9 0 001 .67.62.62 0 00.48.19h.9a.64.64 0 01.2 0 1.56 1.56 0 00-.28.23 2.68 2.68 0 00-.7 1.83 2.51 2.51 0 002.34 2.58 2.69 2.69 0 002.82-2.33 2.66 2.66 0 000-.68l2.82 1.12c0 .05.06.1.08.16a2 2 0 01-1 2.58 13.31 13.31 0 01-2.42.41c-.3 0-.61-.05-.89-.09a8.76 8.76 0 01-2.81-.68 13.22 13.22 0 01-2.34-1.59c-.7-.55-1.69.43-1 1a14.57 14.57 0 002.79 1.89 9.44 9.44 0 002.65.7.56.56 0 00.19.37 3.31 3.31 0 00.78.47.69.69 0 00.68.6 5.61 5.61 0 005.13-3.4 1.3 1.3 0 01.08-.17.64.64 0 000-.27c0-.1.08-.2.1-.3a.73.73 0 00-.4-.91zm-70.03 92.24c-8.18-8.18-10.95-19.95-15.31-30.31-5.19-12.29-11.57-24.09-17.56-36l-36.87-73.32q-10.41-20.7-20.81-41.39a.7.7 0 00-.79-.32 585.38 585.38 0 00-64.73 21.7q-8.88 3.57-17.65 7.42a.71.71 0 00-.35.6 12.85 12.85 0 002.38 7.72.49.49 0 00.2.18l23.73 50.81 22 47a.74.74 0 00.41.88l3.15 6.74 5.66 12.22c-.68.4-.32 1.58.48 1.28h.1q9.61 20.58 19.22 41.15l6.36 13.6c1.06 2.27 2.11 4.54 3.17 6.8.71 1.51 1.36 4.12 3.27 4.51a5.09 5.09 0 002.85-.62c1.12-.44 2.23-.9 3.33-1.35q3.32-1.37 6.6-2.78 6.62-2.85 13.13-5.87c17.48-8.1 34.54-17.06 51.54-26.1l6.35-3.38a.71.71 0 00.14-1.17zm-70.57-138.19q-15.81 6.09-31.57 12.3l-7.78 3.08a10 10 0 00-1.57-3.53 6.72 6.72 0 01-.94-2.36 11 11 0 01.06-2.92c.42-3.76.88-7.51 1.33-11.27l3.57 3.79a.7.7 0 001.09-.14 23 23 0 001.73-3.34l1.65 1.23-.43 4.05c-.1.9 1.3.89 1.4 0l.41-3.81a.53.53 0 00.37-.44 1.13 1.13 0 000-.18 3.83 3.83 0 000-.47 72.8 72.8 0 011.46-11.78c1.24 2.28 2.47 4.56 3.71 6.83a.7.7 0 001.3-.35A7 7 0 01220 160c.64.81 1.27 1.63 1.9 2.44a.71.71 0 001.17-.31c.26-.9.73-2.5 1.84-2.64a5.62 5.62 0 012.3.66l2.7 1 10.22 3.67zM225.78 137l.18-.05a1.1 1.1 0 00.14-.09L239.24 163l-10.36-3.71c-.94-.34-1.88-.73-2.85-1a2.76 2.76 0 00-2.13.13 4 4 0 00-1.73 2.13l-1.82-2.33a.7.7 0 00-1.1.14 8.8 8.8 0 00-.8 2l-3.57-6.58a.7.7 0 00-1.27.17 73.43 73.43 0 00-1.82 12.61.78.78 0 00-.3.53v.09l-1.78-1.32c-.39-.3-.88 0-1 .42a21 21 0 01-1.49 3.1l-3.94-4.19a.71.71 0 00-1.19.5c-.51 4.28-1 8.55-1.52 12.83a2.29 2.29 0 000 .25q-4.6-10.65-9.71-21.06c-1.14-2.32-2.31-4.63-3.48-6.93-.06-.19-.12-.38-.16-.57a.64.64 0 00-.31-.41l20.74-6.8 13.08-4.28 4.68-1.33a.62.62 0 00.37-.39zm-83.13 25.77l-.51-1.09a.62.62 0 00-.19-.25 11.48 11.48 0 01-.31-2.5 587.8 587.8 0 0163.46-23.56q8.81-2.7 17.68-5.11l2.7 5.37-6.5 2.07a.93.93 0 00-.26.15l-25.84 8.47L160.29 157zm19.43 41.58l-2.23-4.77c8.31-2.23 15.65-6.93 23.76-9.67 2-.68 4.51-1 6-2.7.59-.68-.4-1.67-1-1-1.25 1.44-3.43 1.7-5.16 2.28-2 .65-3.9 1.43-5.8 2.26-3.89 1.68-7.68 3.61-11.6 5.22a56 56 0 01-6.75 2.31l-1.63-3.48a117.3 117.3 0 0012.41-4.8c2-.91 4-1.88 6-2.91 1-.53 2-1.08 3-1.64a13.38 13.38 0 002.88-1.76.64.64 0 00-.62-1.06 16.76 16.76 0 00-3 1.61c-.93.53-1.87 1-2.82 1.54-2 1-4 2-6 2.92a116.82 116.82 0 01-12.45 4.82.26.26 0 00-.09.05l-.83-1.77a.65.65 0 00.42-.07c3.85-2.09 7.79-4 11.79-5.83q3-1.35 6-2.58c1-.41 2.06-.82 3.09-1.21l1.55-.59a6.6 6.6 0 001.47-.61c.47-.32.36-1.25-.32-1.18a12.76 12.76 0 00-3.07 1c-1 .4-2.06.8-3.09 1.22q-3.1 1.24-6.16 2.62-6.12 2.73-12 5.92a.69.69 0 00-.22.19l-1.8-3.85a.71.71 0 00.67 0c4.1-1.77 8.21-3.5 12.41-5q3.09-1.11 6.23-2.11c1.06-.33 2.13-.66 3.2-1a16 16 0 003.13-1 .64.64 0 00-.32-1.18 13.15 13.15 0 00-3.18.81c-1.07.31-2.14.64-3.2 1q-3.25 1-6.46 2.19c-4.23 1.54-8.38 3.29-12.52 5.07a.57.57 0 00-.33.36q-1.84-3.93-3.67-7.86c3.71-1.48 7.4-3 11.07-4.61l5.43-2.34 2.7-1.19a12.45 12.45 0 002.8-1.34c.56-.44-.07-1.14-.61-1.06a11.66 11.66 0 00-2.67 1.1l-2.7 1.18-5.42 2.35q-5.46 2.34-11 4.57a.88.88 0 00-.23.14l-1.53-3.27q10.72-4.09 21.66-7.56c.86-.27.49-1.62-.37-1.34q-11 3.49-21.88 7.63l-2-4.18-2-4.23L175 153.61l10.48-3.43c.22.47.43.95.65 1.42a14.12 14.12 0 001.26 2.77.68.68 0 00.37.31q6.18 12.33 11.67 25c1.18 2.72 2.32 5.44 3.44 8.18q-11.38 4.51-22.74 9.1-9 3.61-17.92 7.28a1.48 1.48 0 00-.13.08zm22.23 47.59q15.47-7.12 31.15-13.72 15.91-6.69 32-12.83 9.11-3.48 18.28-6.77c.84-.3.48-1.65-.37-1.34q-16.41 5.9-32.61 12.34-16 6.41-31.88 13.34-8.62 3.78-17.19 7.72-6.67-14.29-13.36-28.6-3.86-8.25-7.7-16.49 15.92-6.51 31.89-12.9t32.1-12.69l11-4.24a.52.52 0 00.49 0l5.31-2.09a.63.63 0 00.33-.29l.65-.27 15.45 30.72 18.43 36.66q1.77 3.51 3.56 7h-.06q-14.44 7.14-29.16 13.78a3.26 3.26 0 00-.7-2.3c-1.14-2.48-2.27-5-3.41-7.45-1.08-2.72-2.16-5.44-3.21-8.17a.7.7 0 00-.73-.46c-.18-.4-.36-.8-.55-1.19l9.53-4.07 18-7.71c.83-.36.12-1.56-.7-1.21l-27.43 11.73-.18-.39c-.37-.82-1.58-.11-1.2.71a2.14 2.14 0 00.1.22l-3.35 1.43-22.95 9.81c-.37-.4-1.06-.05-1.13.49l-7.86 3.36-17.14 7.32q-2.71-5.71-5.4-11.48zm62.89.22q1.94 4.85 4 9.68a.5.5 0 00.08.12l-1.78.8q-12.36 5.53-24.88 10.68-3.7-10.1-8.13-19.89l5.13-2.19 21.14-9zm-51.79 23.52l-5.12-10.95 24.87-10.63c.1.22.19.44.29.65a.73.73 0 000 .65l7.84 18.57c-2.24.92-4.47 1.83-6.72 2.73q-8.7 3.49-17.48 6.78zM207 300.43q-3.66-7.86-7.34-15.71 12.4-4.72 24.69-9.72l.14-.06 7.14-3q16.41-6.92 32.56-14.46 9.18-4.27 18.24-8.77 3.51 6.85 7 13.74a.7.7 0 00-.65 0l-31.8 14.71-31.8 14.72-17.88 8.28a.58.58 0 00-.3.27zM262.83 336c-8.59 4.12-17.27 8.05-26.07 11.7l-3.13 1.3c-1.06.43-2.89 1.57-3.75.32a19.57 19.57 0 01-1.49-3.05l-1.59-3.4q-3.12-6.71-6.26-13.4-6.54-14-13.1-28a.68.68 0 00.52 0l31.81-14.72 31.8-14.75 17.88-8.28a.6.6 0 00.34-.38c2.24 4.53 4.42 9.08 6.48 13.69 2.71 6.08 4.82 12.39 7.38 18.53 2.25 5.38 5 10.6 9 14.87-16.46 8.73-32.96 17.51-49.82 25.57z"/>
    <path style="fill:#231f20;" d="M529.64 357.56c-10.65-14.85-31.34-14.76-47.75-16.4-4.46-.45-8.83-1.29-13.27-1.93a107.27 107.27 0 00-18.53-1 18.66 18.66 0 00-5.48.71 2.51 2.51 0 00-2.27 0 .65.65 0 00-.55.49 1.75 1.75 0 00-.18.29.75.75 0 00-.56.47 5.19 5.19 0 00.26 3.24 3.61 3.61 0 00-.3 2.11v.31a.71.71 0 00.6.69.48.48 0 00.18.06 2.93 2.93 0 001.79.36 10 10 0 003.94-1.21l1-.29a13.17 13.17 0 00-4.92 2.93 4.22 4.22 0 00-.55.8 19.86 19.86 0 00-1.83-1 7.36 7.36 0 01-1.23-1.93c-.12-15.79-3.69-31.24-8.68-46.15a224.58 224.58 0 00-8.85-22.4q-2.54-5.5-5.38-10.87c-1.91-3.57-4-7-5.92-10.59s-3.92-7.43-5.63-11.24c-1.44-3.19-2.78-6.62-5.18-9.23-1.22-1.32-3.19.66-2 2 2.05 2.22 3.22 5.26 4.44 8 1.43 3.18 3 6.27 4.63 9.38l.36.7a.74.74 0 00-.07.43c.2 1.16.42 2.32.64 3.48a10 10 0 001.42 6.61.7.7 0 001.28-.54c-.48-2-.89-4.06-1.29-6.11v-.11c3 5.51 6.15 10.91 8.86 16.58a213.72 213.72 0 0113 34.32.62.62 0 00-.2.31 20.14 20.14 0 00-.39 10.25c.18.82 1.31.56 1.37-.18l.44-5.36v-.38c.45 1.77.88 3.55 1.27 5.33a130.14 130.14 0 012.27 13.28.31.31 0 000 .44 115.08 115.08 0 01.75 12.74 1.28 1.28 0 001 1.28 7.39 7.39 0 001 1.33l.54.62a4 4 0 002.76 2 15.57 15.57 0 00.36 2.64 23.09 23.09 0 001.52 4.59c.2.44.43.88.66 1.31-1.3.84-2.17 2.21-3.33 3.21a22.58 22.58 0 01-2.4 1.58c-.92.58-1.83 1.19-2.74 1.79a70.91 70.91 0 01-9.9 5.32 125.66 125.66 0 01-18.61-.2.76.76 0 00-.16-.06h-.48a.71.71 0 00-.55-1.11c-3.7-.22-7.38-.68-11.06-1.08l-10-1.07c-1.2-.26-2.4-.53-3.59-.83a48.88 48.88 0 01-5-2.43 52.78 52.78 0 01-10.07-7.17 40.12 40.12 0 01-6.28-7.31 3.9 3.9 0 00-.2-.47 2.24 2.24 0 00-.58-.78c-.45-.76-.88-1.53-1.28-2.33a.72.72 0 00-.14-.19c-.39-1.56-1-3.05-1.5-4.58a.69.69 0 00-.54-.48v-.08a.75.75 0 00.09-.77c-.15-.36-.3-.74-.45-1.11a.33.33 0 000-.1c0-.2-.08-.39-.11-.59 0-1.35 0-2.7.05-4.05a.67.67 0 00-.84-.66c-.1-.63-1.05-.65-1.3-.13-.72-2-1.42-3.92-2.06-5.91l-.24-1.29a52.14 52.14 0 00-1.89-6.59c0-.31-.08-.61-.11-.92a2.12 2.12 0 00-.54-1.29 108.69 108.69 0 01-2.12-12.15 95.87 95.87 0 01-.61-10.17.69.69 0 00-.95-.63 9.83 9.83 0 011.62-4.09c.39 1.18.78 2.37 1.06 3.58 0 .6.06 1.19.13 1.78a.88.88 0 00.21.42.28.28 0 010 .09v.46c0 1.84-.52 3.68 0 5.5a.64.64 0 00.71.47.7.7 0 001.22 0c.29-.61.57-1.24.84-1.87.07 1.15.18 2.3.3 3.45a43 43 0 00.9 10.38.41.41 0 000 .09v.29a.71.71 0 001.05.6 9.82 9.82 0 002.42-1.61c.65 3.86.94 7.76 1.47 11.63a54 54 0 001.19 6.31c.3 1.14.66 2.27 1 3.4 1.38 5 2.66 10.26 5 15 1 1.94 2.34 4.29 4.55 5a.7.7 0 00.79-1c-2.7-5.38-5.44-10.76-7.2-16.54-.46-1.48-.83-3-1.17-4.48s-.87-3.12-1.35-4.66a34.1 34.1 0 01-1.2-4.54 26.7 26.7 0 01-.25-3.69c-.07-2.73 0-5.77-1.45-8.21a.71.71 0 00-.9-.27.69.69 0 00-.51.2l-.16.17-1.35.79c0-5.11.1-10.36-.93-15.38v-1a.63.63 0 00-.78-.65h-.27c-.21-.64-1.31-.41-1.33.3v.95a7.31 7.31 0 00-1.16 1.7c-.08-.79-.14-1.58-.17-2.37v-1.85a19.36 19.36 0 00-.07-3.57 40 40 0 00-.4-5v-.19a.56.56 0 00-.53-.49 6.36 6.36 0 00-.19-.62.71.71 0 00-1.35 0c-.13.34-.29.69-.46 1 .12-2.78.45-5.55.6-8.33a1.13 1.13 0 001.25-.39c.47-.55.88-1.53 1.4-2.28.28 1.4.39 2.84.62 4.27a20.75 20.75 0 001.17 4.37c.46 1.18 1.4 2.44 2.85 2.11a2.3 2.3 0 001.28-.9c.13.85.17 1.73.26 2.56a11.5 11.5 0 001.23 4.68 1.28 1.28 0 001.71.44 4.35 4.35 0 001.33-1 7 7 0 001.39 3.27c1.45 1.6 3.58 1.28 5.47.86a20.6 20.6 0 005.93-2.16c.89-.52 1.81-1.26 2.83-.61a9.55 9.55 0 012.17 2.18c.77 1.07.33 2.63.05 3.81-.36 1.49-.71 3-1.06 4.49-.74 3.19-1.9 6.27-2.53 9.48-1.25 6.39-.87 13.1-.58 19.56l.09 1.39c-.14 1.61-.23 3.23-.23 4.85a40.63 40.63 0 001.78 11.42 14 14 0 00.55 1.7 1.25 1.25 0 102.3-1A21.59 21.59 0 01377 344c-.14-3-.33-6-.36-9.07v-1.69c.15-1.06.31-2.11.5-3.14.46-2.57 1-5.11 1.63-7.62v.79c.22 3 .77 6.17 2.54 8.63a1.6 1.6 0 00.45.42l.15.2a1.25 1.25 0 00.39.76 5 5 0 003.27 1.62c2.46.94 4.34-.15 5.77-2.19a17.73 17.73 0 003.25-6.74c1-3.33 1.46-6.77 2.26-10.14a21.56 21.56 0 011.35-4l1.54-1.39c1.55-1.4 3.73-3.06 4.38-5.14a2.58 2.58 0 00.06-1.42 4.21 4.21 0 00.05-.62 1.43 1.43 0 00-1-1.34 2.3 2.3 0 00-.35-.1 8 8 0 00-.7-.52 1.29 1.29 0 00-1.63.21 7.36 7.36 0 00-4 1.49 1.22 1.22 0 00-.79.41 20.88 20.88 0 00-1.32 1.66 15.12 15.12 0 00-2.57 4.91 1.49 1.49 0 000 .65l-.47 1.1c0 .11-.09.22-.14.34a1.09 1.09 0 00.23 1.24c-.21.6-.42 1.2-.6 1.8a1.09 1.09 0 000 .44c-.14.45-.27.91-.4 1.37a30.21 30.21 0 00-2.32 7.93c-.1.36-.19.71-.28 1.07a14.62 14.62 0 01-3.43 5.17l-.13-.18a7.24 7.24 0 01-1-1.77 1.23 1.23 0 00-.53-.57 21 21 0 01-1.28-5.7c-.32-2.59-.73-5.12-.21-7.72a28.75 28.75 0 01.74-2.83c.29-.76.59-1.52.9-2.27a47.8 47.8 0 013.91-7.68c.14-.21.27-.43.42-.63l.23-.35c.39-.55.79-1.09 1.2-1.61.69-.89-.54-2.15-1.25-1.25-.5.63-1 1.29-1.46 2l-.56.85c-.29.44-.58.87-.86 1.32l-.45.76c-.28.48-.56 1-.82 1.46-.17.3-.33.61-.49.92s-.3.59-.44.89a74.55 74.55 0 00-4.38 10.89c-.59 1.91-1.14 3.83-1.63 5.75a40.35 40.35 0 01.56-8.43c.6-3.21 1.77-6.3 2.6-9.46.69-2.6 1.87-5.66 1.48-8.38a7.59 7.59 0 00-3.61-5.16c-2.38-1.48-4.28.18-6.32 1.26a16.38 16.38 0 01-3.14 1.07 9 9 0 01-3.35.59c-1-.16-1.24-1.15-1.48-2a16.61 16.61 0 00-1-3 1.28 1.28 0 00-2-.26c-.36.41-.67.86-1 1.26a20.23 20.23 0 01-.36-3.48 10.58 10.58 0 00-1.14-4.66 1.38 1.38 0 00-1.85-.49 3.11 3.11 0 00-1.07 1c-.09.13-.28.37-.44.61-.14-.39-.24-.8-.35-1.2-.83-2.88-.69-6-1.81-8.79a1.36 1.36 0 00-1.63-.93 4.18 4.18 0 00-2.17 1.66c.12-2.33-.21-4.71-.2-7v-.09c1.74-4.73 5.62-8.78 9.48-11.74a36 36 0 018.62-4.93c4.29-1.69 8.77-2.81 13.12-4.34 3.32-1.18 6.24-3.21 9.4-4.72a.24.24 0 00.12 0 .67.67 0 00.41-.06 26.16 26.16 0 012.53-1.15.75.75 0 00.37-.33c.26-.16.53-.32.78-.51a.72.72 0 00.31-.5c.33-.21.67-.4 1-.63l.05-.05c4.15-1.78 7-6.13 8.46-10.33a18.36 18.36 0 001-8.5 24.39 24.39 0 00-4.1-9.87 42.58 42.58 0 00-4.23-5.34l-.24-.29a.66.66 0 00-.13-.78c-1-1.06-2.05-2.13-3.07-3.19a.69.69 0 00-.3-.18l-1-1.18a3.6 3.6 0 011.21-1.42c.66-.52 1.38-.95 2.05-1.46.3-.23.59-.49.89-.75 1.21-.87 2.4-1.78 3.55-2.74 3.3-2.73 5.8-6.36 8.14-9.9 1.71-2.6 3.44-5.21 4.93-7.94a36.56 36.56 0 001.75-3.62 18.32 18.32 0 001-1.93c.12-.3.22-.6.31-.91a17.56 17.56 0 00.9-3.2.64.64 0 00.19-.48c0-1.6.27-3.32-.35-4.81 0-.17-.09-.34-.15-.5-.57-3.28-1.95-6.27-5.8-6a.94.94 0 00-.24.06 7.44 7.44 0 00-4.85 0 .75.75 0 00-.28.18c-.37.16-.74.34-1.1.53a39.34 39.34 0 00-6.93 4.12 19.18 19.18 0 00-5.81 7.25 37.07 37.07 0 000-10.83 30.91 30.91 0 00-1.54-6 11.49 11.49 0 00-.64-1.63 31 31 0 00-2.91-5.3.71.71 0 00-1.2 0 59.09 59.09 0 00-4.93 7.79 55.36 55.36 0 00-4.08 5.67 47.14 47.14 0 00-5.36 13.42c-1.57 6.77-2.4 14.15-1 21a19.09 19.09 0 003.65 8.23c-.41 0-.8.07-1.2.13a.67.67 0 00-.6-.13c-1.18.26-2.37.56-3.55.9a10.52 10.52 0 00-1.2.3.57.57 0 00-.19.1 57.29 57.29 0 00-8.1 3.15l-.27.13a39.92 39.92 0 00-4.55 2.11c-.91.5-1.79 1.05-2.66 1.62a33 33 0 00-2.77 1.89c-2.37 1.82-4.64 4.11-5.55 7-1 3.14.12 6.19 2.05 8.67a18.14 18.14 0 00-.21 2.07v1.06a1.82 1.82 0 01-1.08 1.19s-.06 0-.09.06a9.1 9.1 0 01-1.87-5 .71.71 0 00-1.38-.19c-2.43 6.24 4 12 9 14.47a15.46 15.46 0 003.64 1.28l.41.31a3.78 3.78 0 00-.86 1.86c-1.25 5.18-3 10.25-4 15.5-.82 4.66-2.44 9.64-1.77 14.42 0 .36-.05.72-.07 1.08a82.8 82.8 0 00-.19 12.89c-.14.63-.26 1.25-.38 1.88a.5.5 0 000-.12c-.09-1.89-2.25-2.54-3.83-2.09-2.49-.89-5.64-.06-8.13.41a28.26 28.26 0 01-3.66.51 11.32 11.32 0 01-2.33-.16c-1.4-.2-3-.49-3.82 1a2 2 0 00.58 2.62 28.53 28.53 0 01-4.78-2.24c-2.2-1.33-5-3.62-4.87-6.48a3.56 3.56 0 012.4-3 8.49 8.49 0 015.32-.26c2 .5 3.94 1.39 5.95 2a21.82 21.82 0 005.9 1.21 21.27 21.27 0 005.06-.8 14.16 14.16 0 004.48-1.74 6.18 6.18 0 001.6-1.5c.54-.72-.67-1.41-1.2-.7-1 1.34-2.87 2-4.42 2.38a21.18 21.18 0 01-5.52 1 22.23 22.23 0 01-6.56-1.48 33.78 33.78 0 00-6.58-1.94 9.25 9.25 0 00-4.95.82v-.15a5.9 5.9 0 00-1.93-2.7 39.61 39.61 0 00-3.6-2.86 82.9 82.9 0 01-8-7.14.65.65 0 00-.2-.55c-1.33-1.33-2.47-2.83-3.72-4.23a14.48 14.48 0 00-4.16-3.56.74.74 0 00-.85.11c-.86.71-2.11 1.64-2.07 2.9s1.15 2.11 1.92 2.86c2.07 2 3.6 4.68 6.06 6.24.08.15.15.3.24.44 1 1.54 2.68 2.48 4 3.74 2.83 2.76 5.64 5.85 9.19 7.7a.64.64 0 00.46.06 4.72 4.72 0 00-.21 1.22c-.09 3.28 2.76 5.93 5.3 7.52a35.92 35.92 0 009.29 3.83 29.92 29.92 0 008.74 1.58 6.11 6.11 0 001.48 0 5.42 5.42 0 003.29-.95l.35-.14a8.38 8.38 0 001.81-.52 4.41 4.41 0 00.59-.26 5.62 5.62 0 00.89-.49q-.11 1.29-.09 2.58a.67.67 0 00.18.42c-.08.52-.14 1-.18 1.57a.57.57 0 00.12.44 17.55 17.55 0 00-.25 1.75 35 35 0 00.5 9.14 3.43 3.43 0 00.06.34c.07 2.1.21 4.18.39 6.27a81.16 81.16 0 001 11.43 48.73 48.73 0 001.89 7.64.91.91 0 00.19.31c.49 2.18 1 4.37 1.53 6.54.79 3.23 1.67 6.44 2.25 9.72.63 3.61 1 7.54-.18 11.08-.21.58.43 1 .91.82a18.52 18.52 0 01-2.34.43 2.12 2.12 0 00-1.42-.29c-1.88.24-3.79.31-5.67.54-2 0-3.94-.06-5.91 0l-1.57.1c-.21 0-.41.05-.62.06h-1a.81.81 0 00-.21.1.57.57 0 01-.75 0c-1.21.09-2.43.19-3.64.31 1.16-.19 2.33-.35 3.49-.5a.75.75 0 01.19-1 2.82 2.82 0 011.52-.32c.67 0 1.31-.17 2-.22s1.43 0 2.14 0 1.52-.16 2.29-.22 1.64-.22 2.46-.32a18.87 18.87 0 012.38-.1c.77 0 1.54 0 2.3-.05h.18a4.6 4.6 0 001.79-1.79.7.7 0 01-.07-.32 69.57 69.57 0 00-.66-9.78c-.11-.71-.18-1.42-.27-2.13s-.3-1.51-.43-2.27c-.09-.6-.18-1.2-.28-1.8a7.16 7.16 0 00-.48-.61 1.39 1.39 0 00-.69-.91 1.48 1.48 0 00-.29-.12h-.14a9.25 9.25 0 00-2.23 0h-.76c-3.37 0-6.73-.12-10.1-.17a207.36 207.36 0 00-22.15.9l-.71.06c-3.18 0-6.36.11-9.54.24s-6.44.32-9.66.55a.76.76 0 00-.66.58h-1.44c-3.08.65-6.14 1.33-9.2 2.05a52.68 52.68 0 00-6.4 1.87c-2.36.89-4.69 1.89-7 3a20.85 20.85 0 00-6.08 3.11c-.31.22-.62.46-.93.7l-.11.06a43.19 43.19 0 00-9.64 7.57 11.5 11.5 0 00-2.51 3.37 9.71 9.71 0 00-.2 10 19.57 19.57 0 002.37 5c5.32 8 15.49 10.84 24.3 12.89q5.49 1.26 11 2.3a1.28 1.28 0 00.9 1.29c-1.3 3.91 0 8.49.75 12.39 1 5.27 1.28 10.72 1.88 16.06 1.34 12 3.12 23.88 5 35.78s4.19 23.46 6.05 35.23c.93 5.93 1.76 11.88 2.37 17.85.53 5.27.78 10.5.87 15.79a12.63 12.63 0 001 5.3c1 2.12 2.86 3.52 4.62 5a70.09 70.09 0 0013.15 9.07 82 82 0 0015.42 5.54 149.45 149.45 0 0016.05 3.48 119.3 119.3 0 0017.52 1.08c5.91 0 11.86.21 17.77.11s11.55-1 17.3-1.75 11.41-.78 17.09-1.59a129.19 129.19 0 0016.27-3.53c5.36-1.47 10.73-3 16-4.76a76.59 76.59 0 0012.39-5.41c3.39-1.84 6.95-3.89 9.61-6.73a10.07 10.07 0 001.86-2.62 1.39 1.39 0 001-.93c2.36-7 .84-14.9 0-22-1-9.06-1.48-18.21-2.21-27.29-.78-9.72-1.51-19.43-2-29.17-.23-4.93-.49-9.86-.68-14.8-.16-4.45-.13-8.9-.25-13.35-.09-3.3-.3-6.7-.36-10.11a1.9 1.9 0 00.61-.24c-.1-1.7-.19-3.4-.16-5.11 0-1 .06-2 .1-3a18.93 18.93 0 01.16-3.28c0-.76.07-1.51.09-2.27a4.66 4.66 0 00-.27-.74.74.74 0 01.11-.85.79.79 0 00.2-.31.72.72 0 011.27-.4V397a1.13 1.13 0 00-.36-1l1.51-.05a.67.67 0 01.5-.74c1.07-.22 2.11-.54 3.17-.8.53-.13 1.07-.24 1.61-.32a3 3 0 011.73.05 1.09 1.09 0 01.1.11c3.77-.78 7.53-1.62 11.25-2.59a128.93 128.93 0 0018.51-6.1c5.84-2.5 12.05-5.78 15.8-11.1s2.91-11.77-.77-16.9zm-165.22-10.22c.95 2.16 2 4.29 3 6.4a16.18 16.18 0 01-1.34-2.22 39.7 39.7 0 01-2.4-5.81c.32.54.5 1.09.74 1.63zM340 227.52c0-.15-.06-.3-.1-.45a16.13 16.13 0 001 1.6.62.62 0 000 .33 8.88 8.88 0 00.49 1.24 10 10 0 01-1.39-2.72zm3.89 2.75c-.23-.45-.44-.9-.65-1.35l.32-.24a4.4 4.4 0 00.34.77c1.33 2.21 4.5 3 6 .58a.7.7 0 00-.79-1 4.55 4.55 0 01-3-.11 3.14 3.14 0 01-1.24-2.5c0-.16 0-.34-.05-.51.05-.53.05-1.06.07-1.6a.73.73 0 00.2-.77 2.38 2.38 0 01.23-.45 9.76 9.76 0 012.52-2.18.7.7 0 00-.7-1.21c-.52.28-1 .57-1.57.83a1.94 1.94 0 01-1 .29c-.37-.07-.64-.45-.84-.74a4.66 4.66 0 01-.83-2.05 6.18 6.18 0 01.14-2.32.58.58 0 00.18-.17 34.53 34.53 0 0113.08-11.3 62.46 62.46 0 019.72-3.29 30.42 30.42 0 018.53-1.21.68.68 0 00.43-1.22 7.45 7.45 0 00-.39-3.31c-.18-.6-.39-1.2-.62-1.79.07-.2.12-.41.17-.61l.27-.29a4.22 4.22 0 001.12-2.86c0-1.2-.34-2.35-.43-3.54a35.57 35.57 0 010-4c.18-1.49.37-3 .55-4.47a80.73 80.73 0 012.12-12.4c.09-.27.17-.56.27-.83a39.26 39.26 0 014.23-8.66c.5-.77-.69-1.41-1.21-.71a30 30 0 00-4.71 10 48.18 48.18 0 00-1.48 5.91 78.53 78.53 0 00-1.06 8.93c-.06.8-.1 1.6-.12 2.41l-.24 2a43.06 43.06 0 00-.28 4.68c0 .65 0 1.31-.07 1.95l-.06-.16a23.33 23.33 0 01-1.07-5.38c-.25-2.24-.36-4.5-.39-6.75a52.68 52.68 0 01.51-7.94c.81-2.77 1.75-5.51 2.68-8.24.83-2.44 1.75-4.84 2.78-7.2a33.94 33.94 0 012.52-3.66 51 51 0 003.14-4.2 12.92 12.92 0 001.32-2.56q.61 2.66 1.31 5.3c1 5.86 2.35 11.74.85 17.62a50.43 50.43 0 01-2.17 6c-.8 2-1.6 4-2.39 6.06s-1.41 3.84-2.16 5.74c-.46 1.17-1 2.29-1.52 3.44a28.3 28.3 0 00-1.67 4.53 6.2 6.2 0 000 4c.2.46.79.39 1.1.14a10.17 10.17 0 002.47-3.13c2.94-3 4.33-7.24 5.42-11.23a119.3 119.3 0 014.38-14.07c.34-.85.72-1.68 1.12-2.51a.73.73 0 001.06-.37 15.61 15.61 0 012.37-4.38.68.68 0 00.47-.17c.58-.49 1.17-1 1.78-1.42a24 24 0 018.49-4 12.48 12.48 0 011.64-.29c.79 0 1.59.08 2.39.1a4.87 4.87 0 011.72.71c1.49 1 1.91 2.89 2 4.6v.59a13.36 13.36 0 01-1.3 6.46v.1c-1.09 2.42-2.3 4.78-3.3 7.23-.39.62-.8 1.23-1.23 1.82.6-1.28 1.17-2.57 1.64-3.9a25.62 25.62 0 001.7-7.91c0-2.23-.53-4.76-2.84-5.63a3.45 3.45 0 00-.52-.16 4.62 4.62 0 00-1.09-.33c-2.85-.46-5.5 1.14-7.63 2.87a22.19 22.19 0 00-5.06 5.26c-.68.87-1.35 1.76-2 2.68a24.53 24.53 0 00-4.22 10.55v.19c-.09.81 1.14.89 1.37.18 1.57-4.75 3.59-9.76 6.75-13.79.71-.82 1.45-1.61 2.21-2.36.49-.49 1-1 1.58-1.47a11 11 0 017.22-2.53 3.19 3.19 0 01.57.12 3 3 0 01.45.27 3.35 3.35 0 011.09 2.18 13.43 13.43 0 01-.72 5.72c-.35 1.18-.74 2.34-1.06 3.53-.4 1.52-.76 3.06-1.17 4.58-.08.25-.15.5-.23.76-.63 1.25-1.3 2.48-2 3.68-.32.55-.66 1.07-1 1.6l-.32.34c-2.27 2.37-4.7 4.57-7.08 6.83-1.23 1.17-2.45 2.36-3.73 3.48-1 .65-2.07 1.26-3.15 1.83a14.08 14.08 0 01-5 1.43 33.43 33.43 0 00-5.07.8.71.71 0 00-.49.86c.73 2.51 3.25 2.73 5.44 2.17a23.13 23.13 0 006.1-2.68 2.55 2.55 0 000 1.16 2.32 2.32 0 00.24.53.65.65 0 00.08.48 17.46 17.46 0 001.39 2.11l1 1.48a.71.71 0 00.16.45c.22.24.43.5.64.75.66.79 1.3 1.6 2 2.37 1.87 3.52 3.85 7 4.45 11a17.21 17.21 0 01-3.61 13c-1.45 1.86-3.09 3.56-4.66 5.33l-.14.08a.68.68 0 00-.33.11l-.75.53-.22.13a22.06 22.06 0 01-3.29 1.39 12.82 12.82 0 001.94-1.46c.12-.12.23-.25.34-.37a17.74 17.74 0 002.7-1.78 19.64 19.64 0 005.58-7.85 6 6 0 00.23-4.72.7.7 0 00-1.1-.14 1.79 1.79 0 00-.13.14.73.73 0 00-.76.46l-.49 1.12a51 51 0 00-3.13 5.36l-.35.57a80.14 80.14 0 01-8.63 6.72l-.73.33a.55.55 0 00-.35.42l-.7.49a8.06 8.06 0 00-1.3 0 .69.69 0 00-.13 1.36.73.73 0 00.49.68l.29.1c-.91.09-1.83.17-2.75.21a62.12 62.12 0 01-17.37-2c-1.39-.34-2.77-.67-4.18-.87a11.63 11.63 0 00-2-.18 4.35 4.35 0 00-.41-.34.62.62 0 00-.32-.54 36.64 36.64 0 01-8.91-7.2zm-45.4 34.49v.08c-1.6-1.36-2.81-3.23-4.24-4.73-.43-.46-.9-.88-1.33-1.33a2.78 2.78 0 01-.75-1c-.13-.52.62-1.17 1.2-1.63a15.17 15.17 0 013.6 3.23c.91 1 1.77 2.11 2.7 3.14a19 19 0 00-1.18 2.24zm154.15 79.51a6.47 6.47 0 01.88 0 1.75 1.75 0 011.14.35 3.44 3.44 0 00-.38-.11 7.16 7.16 0 00-2.69 0zm-8.54 5.93a2.45 2.45 0 01.22-.5c.69-1.12 2.42-2 3.66-2.53a13.47 13.47 0 015-1.37 4 4 0 011 .07 1.4 1.4 0 01.67.31.82.82 0 01.21.44 2.5 2.5 0 01-.2 1.17c-.21.63.52 1 1 .79a2.54 2.54 0 013 1c.07.38.12.76.16 1.14-.23.73-.94 1.41-.87 2.24 0 .52.19 1 .26 1.52h-.06a2.67 2.67 0 00-.17.5 7.64 7.64 0 01-.52 1 6.7 6.7 0 01-2.89 2.51 12.06 12.06 0 01-4 1 7.2 7.2 0 01-3.33-.12 2 2 0 01-1.12-1.39c-.36-1.08-.53-2.21-.78-3.31-.27-1.45-.34-3.14-1.24-4.47zM303.77 370c.3-1.68 1.71-2.84 2.92-3.92a14.89 14.89 0 015.15-2.63 20.54 20.54 0 016.42-1.37 13.72 13.72 0 002.77-.47 3 3 0 011.06-.17 2.27 2.27 0 001.13-.05c.46-.22 1.16.28.79.79a1.93 1.93 0 01-2 .65h-.27a4.85 4.85 0 01-.63.16c-.44.09-.85.25-1.29.33-1 .15-2 0-3 .2a20.83 20.83 0 00-3.21.77 18.52 18.52 0 00-5.49 2.38 17.31 17.31 0 00-1.8 1.63 3.68 3.68 0 00-1.22 2.06.56.56 0 01-.55.5 4.08 4.08 0 00.4 1.81.68.68 0 01.64.15 16 16 0 003.82 2.79 24.6 24.6 0 004.91.68c1.37.07 2.73.06 4.1.06a10 10 0 002.68 0c3.17.05 6.34.13 9.51.22h.47c.71.05 1.43.06 2.15.05 5.08.13 10.16.17 15.24 0H353c1.31 0 2.6-.1 3.9-.06a10 10 0 003.66-.36c3.37-.1 6.74-.19 10.11-.23 6.69-.1 13.38 0 20.08 0h7.23l1.2.16a2.35 2.35 0 01.85-.08h1.76c1 0 1.91-.09 2.87-.13l.29-.17a.7.7 0 00.42.17q13.74.54 27.48 0a56.22 56.22 0 0013-.25.55.55 0 00.48.17 52.92 52.92 0 008.19-1.5 38.6 38.6 0 007.68-2.74 5.84 5.84 0 001.11-.75 4.46 4.46 0 002.36-2.63 3.89 3.89 0 00.87-1.15c.1-.14.21-.28.3-.42a.42.42 0 000-.5 3.34 3.34 0 00-.09-1.37c.31-1.72-1.59-3.48-3.3-4.15a8.08 8.08 0 00-3.87-.34 23.26 23.26 0 00-2.63-.3 9.25 9.25 0 014.91-.69.55.55 0 00.5-.19 16.52 16.52 0 015.86 3.57 5.58 5.58 0 01.91 3.19c-.14 2.85-2.76 5-5 6.33a29.81 29.81 0 01-9.17 3.43 81.55 81.55 0 01-10.79 1.34.72.72 0 00-.45.2l-6 .11c-2.46 0-4.92.14-7.38.24-4.57 0-9.14.05-13.71.11-2.26 0-4.53 0-6.8.06-5.63-.45-11.24-.84-16.9-.1a5.48 5.48 0 00-1.69.52 65.27 65.27 0 00-7.26.39c-3.2 0-6.4.08-9.6.15-16.73.34-33.46.81-50.19.68a1.47 1.47 0 00-.74.18c-2.28-.39-4.54-.84-6.78-1.38l-1-.25a3.8 3.8 0 01-1.71 0c-.53-.07-1.06-.15-1.58-.24a17.4 17.4 0 01-3.05-.64 16.59 16.59 0 01-4.65-3.25.56.56 0 01-.19-.61c-.12-.12-.25-.24-.36-.37a2.84 2.84 0 01-.44-.7 4.56 4.56 0 01-.14-.52 2 2 0 01.33-1.23.72.72 0 01-.11-.32zm2 153.8c0-.9-.05-1.8-.1-2.7.11.65.23 1.3.36 1.94-.11.27-.19.52-.27.77zm89.85 30.2a104.07 104.07 0 01-11.29.39l1.63-.13c3.6-.3 7.18-.33 10.76-.39zm33.21-3.94c-1.24.26-2.49.48-3.74.68 1.63-.33 3.25-.69 4.85-1.07 1.27-.31 2.52-.65 3.77-1l.31.19c-1.72.44-3.45.85-5.19 1.21zM474 396.62c-.09.24-.17.49-.25.73a1.36 1.36 0 00-.63 0c-1.07.25-2.14.53-3.2.8a5.76 5.76 0 00-3.61.94c-3.48.94-7 1.89-10.46 2.74-2.63.63-5.25 1.13-7.89 1.54a27.7 27.7 0 00-12.72 1.31c-5.38.34-10.76.55-16.14.73-6.23.22-12.46.57-18.7.7-5.81.13-11.61 0-17.4-.2a5.28 5.28 0 00-.88 0c-6.77-.3-13.54-.81-20.3-1.43-2.24-.14-4.48-.29-6.71-.48q-7.17-.62-14.3-1.66c-2.33-.34-4.64-.59-7-.7s-4.59-.18-6.86-.48c-2-.27-4-.67-6.06-1-5.26-.52-10.54-1-15.73-2-.2 0-.39-.08-.59-.12l-2.57-.85a4.47 4.47 0 00-1.76-.24q-2.27-.69-4.5-1.6l-.38-.15c5 .82 10.1 1.57 15.15 2.29l1.74.25a.52.52 0 01.38-.09c2.69.24 5.36.63 8 1.07s5.37 1.05 8.1 1.29c2.27.2 4.55.23 6.82.38s4.64.52 6.95.84q7.19 1 14.42 1.58l2.79.2q9.95.49 19.93.51c8.55.57 17 1 25.63-.13l4.24-.59c17.1-.81 34.19-2.3 51.12-4.49 4.52-.59 9-1.24 13.54-2a1.46 1.46 0 00-.17.31z"/>
    <path style="fill:#231f20;" d="M316.73 226.9l-6.9-16.2a.72.72 0 00-.48-1.11l-4-9.38-5.71-13.4a14 14 0 00-1.34-2.92 2.37 2.37 0 00-2.39-.87 18.33 18.33 0 00-3.06.94c-1.05.37-2.1.76-3.13 1.17a90.27 90.27 0 00-13.59 6.71.72.72 0 00-.26 1q1.14 2.63 2.5 5.13 6.6 14.83 13.51 29.54 2.25 4.8 4.56 9.58a.71.71 0 00.95.25q9.69-4.41 19.08-9.44a.73.73 0 00.26-1zM282 202.57l-.42-.95c.19-.16.4-.3.6-.44h.21a.66.66 0 00.56 0l.25-.12a7.49 7.49 0 002.53-1.29l.15-.11a.35.35 0 00.08-.1l1-.47a.59.59 0 00.25-.21 76.76 76.76 0 0113.09-5.08l1.08 2.71-18.38 8.25zm6 13q-2.21-4.78-4.39-9.56l19.1-8.67c1.18 2.78 2.37 5.57 3.56 8.35a13.38 13.38 0 00-1.7 1 .57.57 0 00-.34-.51l-3-1.46c-.69-.33-1.48-.79-2.16-.19-.25.23-.59 1.24-.84 1.23s-.42-.28-.53-.37l-.7-.39-1.29-1c-.58-.45-1.39-.78-1.85 0a1.87 1.87 0 00-.19 1 12.54 12.54 0 01-.06 1.62q0 .42-.12.84c0 .06-.07.2-.1.32l-.07-.06a2 2 0 00-.55-.34c-.93-.32-1.38.37-1.51 1.17a16.82 16.82 0 01-2.36 6.16.57.57 0 00-.1.31l-.56.25a.54.54 0 00-.32.32zm15.48-8.16l-1.22.74q-2.25 1.34-4.58 2.58c-2.21 1.19-4.47 2.28-6.75 3.33a17.44 17.44 0 001.72-5.05V209a3.54 3.54 0 00.43.25 1.17 1.17 0 001.26-.2c.73-.66.73-2.09.77-3v-.79l.39.27.73.57c.75.58 1.74 1.59 2.76 1a1.94 1.94 0 00.68-.82c.07-.15.13-.31.21-.46s.05-.1.06-.11c.2 0 .7.34.89.43l.88.43zm-15.08 9a.7.7 0 00.62 0q4.77-2.07 9.37-4.52 2.26-1.22 4.48-2.53c.74-.43 1.47-.88 2.2-1.33a19.51 19.51 0 001.76-1.09c.45 1.05.9 2.11 1.34 3.16a177.75 177.75 0 01-18.2 9.65c-.6-1.05-1.13-2.17-1.65-3.3zm5.77 12.37c-.76-1.61-1.5-3.22-2.25-4.83a58.82 58.82 0 008.42-4c1.38-.76 2.75-1.53 4.15-2.24s2.91-1.36 4.38-2c.71-.32.21-1.5-.53-1.25a52.59 52.59 0 00-8.42 4.14 56.44 56.44 0 01-8.53 4.06h-.06c-.26-.56-.52-1.11-.77-1.66a178.84 178.84 0 0018.16-9.6l.72 1.71 1.46 3.42a.63.63 0 00-.33 0 28.8 28.8 0 00-6.41 3.68 22.19 22.19 0 01-3.13 1.82c-1 .46-2.62.78-3.21 1.83a.64.64 0 00.87.87c.51-.23.95-.61 1.47-.84s1.12-.44 1.67-.7a23.14 23.14 0 003-1.77 27.37 27.37 0 016.07-3.54.7.7 0 00.4-.35l.78 1.84q-8.93 4.94-17.99 9.45zm32.13-78.1c-3.34.64-5.87-2.33-7.78-4.6a.57.57 0 00-.8-.11.63.63 0 00-.5.64 14.07 14.07 0 01-3.28 9.28.72.72 0 000 1c1.23 1 2.84 0 4.23-.08a9 9 0 014.74.9.71.71 0 001-.61 8.07 8.07 0 013-5.24c.67-.49 0-1.3-.61-1.18zm-3.56 5.44a10.23 10.23 0 00-3.54-.74 9.92 9.92 0 00-2.24.18c-.36.07-.71.17-1.07.26l-.19.06a15.57 15.57 0 002.85-7.65c1.7 1.87 3.72 3.58 6.18 3.87a9.45 9.45 0 00-1.99 4.02zM210.87 357.15a.7.7 0 00-1.19-.49c-1.35 1.35-3.34 1.4-5.12 1.11-2.23-.37-4.29-1.36-6.5-1.75-.65-.12-1.19.84-.49 1.15l.33.14a.66.66 0 000 .37 12.55 12.55 0 01-3.05 11.93c-.62.65.36 1.63 1 1 3.78-4 9.73-3.47 14.69-3a.69.69 0 00.7-.7 83.89 83.89 0 01-.37-9.76zm-12.65 10.08a13.93 13.93 0 001.15-9.39c.74.23 1.48.44 2.21.65a20.3 20.3 0 003.25.72 7.69 7.69 0 004.63-.67q0 3.81.31 7.61c-3.84-.35-8.05-.51-11.55 1.08zm90.54-63.17q-5.7-10.83-10.67-22a.7.7 0 00-.95-.25 237.75 237.75 0 01-32 16.31q-4.69 2-9.49 3.72a.76.76 0 00-.16 1.32.61.61 0 000 .61 110.74 110.74 0 019.12 19.23.7.7 0 00.86.49 285.39 285.39 0 0033.78-13.78q4.68-2.26 9.26-4.7a.7.7 0 00.25-.95zm-34 14.65q-4.52 1.69-9.08 3.22a111.84 111.84 0 00-9-18.87c0-.05-.07-.07-.1-.11A240.78 240.78 0 00269 288.12q4.14-2.28 8.17-4.72 4.69 10.52 10 20.71a283.44 283.44 0 01-32.4 14.6zM216.48 204a5.84 5.84 0 00-5.5-4.71 7.81 7.81 0 00-4.59 1.66 5.49 5.49 0 00-2.49 3.88 7.49 7.49 0 003.8 7.33 6.77 6.77 0 007.76-1.07 6.08 6.08 0 001.02-7.09zm-5.54-1a.69.69 0 010-.2.89.89 0 01.24-.41.85.85 0 01.38-.24 1 1 0 01.72.1.84.84 0 01.22.19l.09.07a1.26 1.26 0 01.13.17.78.78 0 01.08.18 1.25 1.25 0 010 .19v.07a1.8 1.8 0 01-.08.39.76.76 0 00-.06.16v-.19a1 1 0 01-.12.45.83.83 0 01-.7.38h-.08a.82.82 0 01-.21 0 .7.7 0 01-.24-.13h-.07a1.14 1.14 0 01-.11-.11.72.72 0 01-.2-.49.3.3 0 010-.1.77.77 0 01-.07-.16.85.85 0 010-.23s.07-.09.08-.09zm-2.23 2.37s-.06.14-.08.17a1 1 0 01-.13.16l-.06.08a.87.87 0 01-.31.18h-.27a.57.57 0 01-.29 0h.13-.34l-.2-.08a.8.8 0 01-.21-.15.75.75 0 01-.14-.17.47.47 0 010-.09.39.39 0 010-.09.91.91 0 010-.49 1.3 1.3 0 01.32-.54 1 1 0 01.4-.25 1.12 1.12 0 01.31-.05h.28a1.07 1.07 0 01.22.1h.08a.83.83 0 01.28.28.17.17 0 000 .05.18.18 0 01.05.07l.07.16a.75.75 0 010 .21 1.11 1.11 0 010 .19v.1zm5 .77a6.19 6.19 0 01-.08 1 3.33 3.33 0 01-.33 1 1.85 1.85 0 01-.65.79 2.93 2.93 0 01-1.89.49 2.89 2.89 0 01-1.8-.86.71.71 0 010-1 .69.69 0 011 0l.16.14.29.17h.83a2.62 2.62 0 00.33-.09h.06l.12-.06.1-.06.07-.06.05-.06v-.08a.61.61 0 01.07-.14v-.07a3.19 3.19 0 00.11-.33v-.89a.82.82 0 01-.08-.55.72.72 0 01.86-.49.8.8 0 01.59.56 2.07 2.07 0 01.23.6zm23.07-10a3.21 3.21 0 00-2-.66h-.39v-.1l-.54-1.13a.69.69 0 00.68-1.21 4.2 4.2 0 00-1.43-.37 10.14 10.14 0 00-1-2 .64.64 0 00-1.16.49 9.67 9.67 0 00.8 1.85 2.15 2.15 0 00-1 1.39c-.3 1.58 1.32 2.38 2.64 2.49h.23c.32.67.63 1.33.95 2a2.66 2.66 0 01-2 .33.72.72 0 00-.86.49.71.71 0 00.49.85 4.11 4.11 0 001 .12 6.39 6.39 0 002.23-.12l.16.32a.69.69 0 001.2 0 2.15 2.15 0 00.18-1.28 2.44 2.44 0 00-.18-3.46zm-.69 1.8a1.31 1.31 0 01-.12.35h-.05a.48.48 0 00-.26-.09l-.6-1.27c.64.07 1.15.3 1.03 1.01zm-4.09-3.32a.59.59 0 01.24-.39l.54 1.15c-.35-.1-.86-.31-.78-.76zm-41.62 23.8a4.61 4.61 0 00-1.78-1.78l.9-2.16a.7.7 0 00-.4-.83.7.7 0 00-.87.29 2 2 0 01-3.17-.42.74.74 0 00-1.11-.35.7.7 0 00-1.09.85 2.55 2.55 0 01-1.21 3.44.69.69 0 00-.32.79.73.73 0 00.67.51c.93.12 2.31.29 2.67 1.33a1.9 1.9 0 01-.25 1.31 2.31 2.31 0 00-.15 1.61.71.71 0 00.86.49 1.65 1.65 0 001.15-1.43c.08-.5 0-1.25.32-1.68s1-.44 1.5-.5a6.46 6.46 0 002-.52.7.7 0 00.28-.95zm50.38-17.22a157.28 157.28 0 01-21.9 10.8c-7.52 3.13-15.15 6-22.61 9.27-2.07.91-4.13 1.84-6.16 2.82a48.65 48.65 0 00-6.2 3.24.64.64 0 00.64 1.1c1.87-.79 3.64-1.85 5.46-2.74s3.68-1.75 5.54-2.58c3.74-1.67 7.53-3.23 11.32-4.76 7.55-3 15.15-6 22.51-9.46a126.84 126.84 0 0012.11-6.49.7.7 0 00-.71-1.2zm3.46 4.63l-44.45 18.91-12.6 5.36c-.83.35-.12 1.56.7 1.21l44.46-18.91 12.6-5.36c.82-.35.07-1.56-.71-1.21zm1.1 3.54l-43.16 18.2-12.16 5.14c-.82.34-.46 1.69.37 1.34l43.16-18.2 12.17-5.13c.81-.35.45-1.72-.38-1.35zm182.09 95.52a27.68 27.68 0 01-1-5.25c-.08-.85-.13-1.71-.13-2.56v-1.31c0-.17.08-.34.13-.5a.59.59 0 00-.09-.56 2.21 2.21 0 000-.37c-.16-.68-1-.52-1.23 0a3.44 3.44 0 00-.16 1.24 13.84 13.84 0 001.23 9.84.7.7 0 001.25-.53zm-21.47-38.84c-.52-1.76-1-3.52-1.55-5.29a.7.7 0 00-1.39.24 17.87 17.87 0 00.87 5.71.69.69 0 001.21.22.67.67 0 00.86-.88zm6.06 14.01a.71.71 0 00-1.35 0v.19a.71.71 0 00-.56.67 17 17 0 00.71 6.26.74.74 0 00.86.48.48.48 0 00.29 0 .65.65 0 00.47-.61 2.88 2.88 0 00-.13-.76 15.22 15.22 0 00-.29-6.23zm8.39 22.56a19.24 19.24 0 00-.57-3.28.7.7 0 00-.77-.5.69.69 0 00-.59.61.64.64 0 00-.3.55 25.74 25.74 0 00.91 5.15.68.68 0 001.06.36.62.62 0 00.33 0 .64.64 0 00.47-.61 16.89 16.89 0 00-.54-2.28zm2.15 20.15a11.85 11.85 0 01-.36-1.54c0-.15 0-.29-.05-.44v-2.58a.7.7 0 10-1.39 0 12.27 12.27 0 000 2.57v2.93a.69.69 0 00.9.64 1.78 1.78 0 00.28.38.64.64 0 001.08-.45 6.24 6.24 0 00-.46-1.51zm5.88-4.68a.74.74 0 00-.21 0c0-.12 0-.23-.08-.35a.71.71 0 00-1.38.19 16.75 16.75 0 000 2.65c0 .47.08 1 .16 1.44a9.58 9.58 0 00.05 1.42.7.7 0 001.37.19c0-.13 0-.25.07-.37a.49.49 0 00.06-.27v-.07a10.45 10.45 0 00.13-2.9c.1-.36.21-.71.34-1.06a.71.71 0 00-.51-.87zM427.6 340a.9.9 0 000-.33v-.1c.06-.82-1.13-.9-1.37-.19a4.39 4.39 0 00-.35 1.37.55.55 0 00.15.36 43.43 43.43 0 00-.48 7.29.7.7 0 001.4 0l.59-7.92c.01-.19.03-.35.06-.48zm5.4-3.07a.7.7 0 00-1.37-.18 9.79 9.79 0 00-.46 5.14.6.6 0 00.12.24q-.12 1.37-.15 2.73a.7.7 0 001.37.19 22.43 22.43 0 00.49-8.12z"/>
  </g>
</svg>