<svg width="24" height="24" viewBox="0 0 24 24" fill="none" xmlns="http://www.w3.org/2000/svg">
  <g class="favicon">
    <path d="M16.8838 13.0141C16.8059 12.6653 16.7107 12.322 16.5332 11.98C16.3496 11.6466 16.1254 11.386 15.9198 11.1245C15.7141 10.863 15.5159 10.6111 15.3834 10.3451C15.3515 10.2807 15.3237 10.2142 15.3003 10.146C15.289 10.1125 15.2799 10.0795 15.2713 10.0465C15.2639 10.0168 15.2584 9.98653 15.2548 9.95602C15.2427 9.85876 15.2708 9.7226 15.3211 9.58236C15.4224 9.29871 15.5856 9.0006 15.7332 8.69252C15.8916 8.37762 16.0241 8.04922 16.1293 7.71086C16.2382 7.35783 16.2902 6.98831 16.283 6.61745C16.283 6.57221 16.2786 6.52381 16.276 6.47721L16.2661 6.34557C16.2587 6.26369 16.2527 6.1809 16.2475 6.09676C16.2362 5.92938 16.2271 5.76019 16.2185 5.59145L16.1739 4.5754C16.1479 3.89683 16.1206 3.21826 16.1055 2.53969L16.0925 2L15.6977 2.31667C15.5796 2.41322 15.467 2.51684 15.3605 2.627C15.2553 2.73421 15.1548 2.84505 15.0596 2.96086C14.8661 3.19033 14.697 3.44106 14.5553 3.70864C14.4129 3.97569 14.3122 4.26478 14.257 4.565C14.2338 4.7145 14.2248 4.86603 14.2302 5.01738C14.2377 5.16564 14.2612 5.31255 14.3003 5.45529C14.2891 5.31047 14.2915 5.16486 14.3076 5.02055C14.3265 4.87925 14.3588 4.74028 14.4042 4.60571C14.4961 4.34113 14.6276 4.09346 14.7938 3.87195C14.9588 3.6504 15.1445 3.44644 15.3479 3.26305C15.4284 3.18931 15.512 3.1201 15.5973 3.05269L15.6544 4.59848L15.6977 5.62131C15.7063 5.79231 15.7159 5.96331 15.7276 6.13567C15.7327 6.22102 15.7392 6.30772 15.747 6.39579L15.7522 6.46093L15.7561 6.51838C15.7583 6.55683 15.7622 6.59483 15.7618 6.63329C15.7675 6.94451 15.7237 7.25457 15.6319 7.55071C15.5351 7.85993 15.4135 8.16003 15.2682 8.44779C15.1254 8.74862 14.9605 9.04221 14.8319 9.39779C14.7713 9.57512 14.7128 9.77824 14.7375 10.0212C14.7436 10.0755 14.7532 10.1293 14.7665 10.1822C14.7791 10.2315 14.7929 10.2799 14.8098 10.327C14.841 10.4191 14.8784 10.5089 14.9215 10.5957C15.0916 10.935 15.3111 11.2096 15.5202 11.4738C15.7293 11.738 15.9392 11.989 16.0804 12.2478C16.2215 12.5065 16.3081 12.821 16.376 13.134C16.4462 13.4433 16.4811 13.7602 16.4799 14.0781C16.4773 14.2256 16.4496 14.3758 16.4163 14.3948C16.325 14.5024 16.2198 14.5961 16.1037 14.6735C15.8661 14.8327 15.5903 14.9449 15.3306 14.9281C15.197 14.937 15.0628 14.9257 14.9323 14.8947C14.7864 14.8555 14.6453 14.7987 14.512 14.7255C14.3687 14.6531 14.2258 14.5649 14.0687 14.4907C13.9893 14.4527 13.9057 14.4254 13.8198 14.4093C13.7768 14.4029 13.7332 14.4013 13.6899 14.4047C13.6479 14.4099 13.6067 14.4209 13.5674 14.4373C13.7366 14.4274 13.8704 14.5237 13.986 14.6309C14.1016 14.7381 14.2163 14.8635 14.3418 14.9838C14.4728 15.1112 14.6182 15.2213 14.7747 15.3118C14.9439 15.4127 15.1331 15.4717 15.3276 15.4841C15.7068 15.4723 16.0751 15.3491 16.3903 15.1285C16.5496 15.0227 16.6933 14.8933 16.8172 14.7445L16.8418 14.7133C16.8492 14.7042 16.8635 14.6811 16.8739 14.6653C16.8841 14.6493 16.8932 14.6325 16.9011 14.6151C16.9085 14.5993 16.9176 14.5816 16.9228 14.5667C16.9444 14.5113 16.9608 14.4539 16.9717 14.3952C16.9905 14.2963 17.0009 14.1957 17.0029 14.0949C17.0045 13.7309 16.9646 13.3681 16.8838 13.0141V13.0141Z" fill="currentColor"/>
    <path d="M11.383 7.35184C11.4185 7.70017 11.4626 8.05393 11.5804 8.41403C11.6852 8.72753 11.7683 9.04736 11.8687 9.38258C11.9706 9.71736 12.0926 10.0451 12.2341 10.3638C12.3726 10.6805 12.5215 10.9872 12.673 11.2921L12.7882 11.5183L12.8462 11.6318C12.86 11.6592 12.8724 11.6873 12.8834 11.716C12.9232 11.8305 12.9306 11.9546 12.9046 12.0733C12.8748 12.222 12.8313 12.3673 12.7748 12.5072C12.7168 12.6574 12.6514 12.8107 12.5847 12.9654C12.4514 13.2749 12.3163 13.5902 12.1916 13.9105C12.1289 14.0724 12.07 14.2271 12.0107 14.3981C11.9468 14.5885 11.9147 14.789 11.9159 14.9907C11.9189 15.1875 11.9297 15.3852 11.9973 15.5635C12.059 15.7372 12.1355 15.9048 12.2258 16.0642C12.3992 16.3695 12.6053 16.6532 12.8401 16.9097C13.0668 17.1609 13.3096 17.3954 13.567 17.6118C13.1743 17.0658 12.8146 16.4872 12.6046 15.8801C12.5542 15.7331 12.5162 15.5817 12.4912 15.4277C12.4752 15.2766 12.4358 15.136 12.4362 14.9921C12.4355 14.8535 12.4575 14.7158 12.5012 14.585C12.5531 14.4357 12.6142 14.2746 12.6743 14.1208C12.7955 13.8105 12.9263 13.5042 13.0605 13.1934C13.1276 13.0374 13.1951 12.8799 13.2587 12.7144C13.329 12.5406 13.3825 12.36 13.4185 12.1751C13.4375 12.0708 13.4445 11.9645 13.4393 11.8585C13.4329 11.7457 13.41 11.6346 13.3713 11.5291C13.3523 11.4789 13.3306 11.4298 13.3064 11.3821L13.2497 11.2699L13.1358 11.0464C12.9873 10.747 12.8419 10.4466 12.7094 10.1417C12.5755 9.84179 12.4601 9.53323 12.3639 9.21791C12.27 8.90396 12.1813 8.56603 12.0713 8.23715C11.9769 7.9517 11.9328 7.62508 11.9003 7.29801C11.8678 6.97093 11.8549 6.63572 11.8501 6.30277C11.8416 5.63147 11.866 4.96016 11.9233 4.29148C11.9501 3.9816 11.9843 3.67308 12.0306 3.36998C12.0998 3.63386 12.1903 3.89113 12.3012 4.13903C12.4258 4.42041 12.5735 4.68189 12.7111 4.93477C12.7808 5.06098 12.8466 5.18539 12.9085 5.3107C12.941 5.37312 12.9678 5.43646 12.9951 5.50024C13.0094 5.53191 13.0176 5.55815 13.0289 5.58755L13.0587 5.67803L13.1787 6.06843C13.2181 6.20415 13.2531 6.33986 13.2847 6.48146C13.3492 6.76148 13.4003 7.04784 13.4492 7.33555C13.4981 7.62327 13.5423 7.9137 13.5791 8.20458C13.6159 8.49546 13.6561 8.78815 13.6903 9.08129C13.7375 8.4932 13.7553 7.90103 13.7505 7.30615C13.7466 7.00893 13.7345 6.71081 13.7103 6.41043C13.6986 6.26024 13.6834 6.10915 13.6618 5.95805C13.6438 5.8014 13.61 5.64718 13.5609 5.49798C13.5471 5.45908 13.5328 5.42153 13.5176 5.38262C13.5025 5.34372 13.4839 5.30255 13.4674 5.26817C13.4336 5.19986 13.4025 5.12974 13.3683 5.06234C13.3016 4.92662 13.231 4.79362 13.1605 4.66515C13.0185 4.40729 12.8817 4.1621 12.7709 3.90967C12.5423 3.40843 12.4245 2.86331 12.367 2.2992L12.344 2.07798L12.1328 2.05672C12.0806 2.05196 12.028 2.06033 11.9795 2.08115C11.9463 2.09597 11.9153 2.11595 11.8878 2.14041C11.8535 2.1711 11.8236 2.20674 11.799 2.24627C11.7675 2.2971 11.7408 2.35104 11.7194 2.40731C11.6849 2.49742 11.656 2.58975 11.6328 2.68372C11.5895 2.86196 11.5562 3.03477 11.528 3.20803C11.473 3.5541 11.4354 3.89791 11.4055 4.24172C11.3465 4.9295 11.3212 5.61998 11.3297 6.31046C11.3358 6.65562 11.3505 7.0026 11.383 7.35184Z" fill="currentColor"/>
    <path d="M9.98293 16.0142C10.1233 15.9534 10.2594 15.8823 10.3903 15.8016C10.4571 15.757 10.5207 15.7073 10.5803 15.6527C10.6383 15.603 10.6933 15.55 10.7474 15.4971C10.8561 15.3913 10.9574 15.2791 11.0544 15.1637C11.2479 14.9347 11.4257 14.6916 11.5864 14.4363C11.3834 14.6543 11.1743 14.8638 10.9561 15.0597C10.8457 15.156 10.7362 15.2524 10.6215 15.3401C10.5643 15.3854 10.5067 15.427 10.4483 15.4664C10.4193 15.4844 10.3881 15.5093 10.3617 15.5224C10.3353 15.5356 10.3041 15.5505 10.2751 15.5632C10.0241 15.6663 9.74007 15.7342 9.46302 15.8084C9.18596 15.8825 8.90025 15.9499 8.61799 16.0309C8.476 16.0703 8.33401 16.1133 8.18986 16.1644C8.03781 16.2152 7.89104 16.2819 7.75176 16.3634C7.60673 16.447 7.47234 16.5493 7.35176 16.6679C7.23053 16.7888 7.12488 16.9256 7.03748 17.075C6.86958 17.3704 6.76777 17.7017 6.73964 18.044C6.72424 18.2094 6.72251 18.3759 6.73444 18.5416C6.74094 18.6235 6.7496 18.7054 6.76172 18.7868C6.76475 18.8072 6.76778 18.8266 6.77124 18.8461L6.75219 18.857C6.68884 18.8954 6.62743 18.9372 6.56821 18.9823C6.44665 19.0746 6.33733 19.1834 6.2431 19.3057C6.14437 19.434 6.07201 19.5821 6.03055 19.7409C5.99165 19.9015 5.98987 20.0694 6.02535 20.2308C6.03488 20.2706 6.04397 20.305 6.05739 20.3475C6.07181 20.3922 6.09206 20.4345 6.11756 20.4733C6.16327 20.545 6.22213 20.6065 6.29072 20.6543C6.41465 20.736 6.55254 20.7919 6.69678 20.8189C6.83279 20.8465 6.97191 20.8532 7.10977 20.8388C7.17798 20.8327 7.24533 20.8187 7.31064 20.7972C7.37603 20.7781 7.43691 20.745 7.48942 20.7C7.36735 20.7556 7.23531 20.7493 7.1102 20.7357C6.98557 20.7191 6.8634 20.6863 6.74657 20.638C6.63584 20.5953 6.53399 20.5308 6.44657 20.448C6.41067 20.4126 6.38132 20.3705 6.35999 20.324C6.35118 20.3044 6.3452 20.2835 6.34224 20.262C6.33877 20.2381 6.33488 20.205 6.33185 20.1779C6.32312 20.0676 6.33803 19.9567 6.37547 19.8531C6.41291 19.7496 6.47195 19.6561 6.5483 19.5794C6.62713 19.495 6.71619 19.4216 6.81323 19.3614C6.86258 19.3294 6.91344 19.3002 6.96561 19.2736C7.01489 19.2479 7.06564 19.2254 7.11756 19.2062L7.30068 19.1424L7.26215 18.9162C7.25306 18.8624 7.2418 18.7873 7.23574 18.7208C7.22968 18.6543 7.22492 18.5828 7.22319 18.5136C7.21959 18.3762 7.22581 18.2388 7.2418 18.1024C7.27013 17.8392 7.3511 17.5852 7.47947 17.3569C7.60848 17.1351 7.78817 16.9503 8.00241 16.819C8.11463 16.749 8.23238 16.6892 8.35436 16.6403C8.48423 16.5878 8.6167 16.538 8.75176 16.4878C9.02232 16.3892 9.29808 16.2924 9.57427 16.1852C9.71136 16.1318 9.84758 16.0748 9.98293 16.0142Z" fill="currentColor"/>
    <path d="M15.6015 16.7859C15.3827 16.4105 15.1196 16.0653 14.8184 15.7585C14.9374 16.1838 15.0941 16.581 15.2344 16.9741C15.378 17.354 15.4955 17.7442 15.5859 18.1417C15.6671 18.5315 15.6978 18.9309 15.6772 19.3292C15.6591 19.7363 15.5863 20.1466 15.5132 20.5832C15.7846 20.2353 15.9783 19.8285 16.0803 19.3925C16.1834 18.944 16.188 18.4769 16.0937 18.0263C15.9964 17.5873 15.8301 17.1681 15.6015 16.7859Z" fill="currentColor"/>
    <path d="M11.188 20.3811C11.1559 20.2748 11.1326 20.1659 11.1183 20.0554C11.0924 19.8271 11.0971 19.5961 11.1321 19.3691C11.1675 19.1359 11.2234 18.9067 11.2992 18.6842C11.374 18.4615 11.466 18.2456 11.5746 18.0387L11.633 17.9301C11.6474 17.9032 11.6538 17.8723 11.6512 17.8416C11.6486 17.8108 11.6373 17.7816 11.6186 17.7577C11.5999 17.7338 11.5748 17.7163 11.5465 17.7075C11.5182 17.6988 11.488 17.6991 11.4598 17.7084L11.352 17.7442C10.8907 17.9431 10.4611 18.2143 10.078 18.5485C9.8895 18.7132 9.718 18.898 9.56633 19.1C9.41601 19.3006 9.29372 19.5225 9.20312 19.7591C9.31976 19.5415 9.46553 19.3424 9.63603 19.1678C9.80468 18.9953 9.99043 18.8419 10.1901 18.7105C10.3881 18.5788 10.5959 18.4638 10.8114 18.3667C10.8841 18.3336 10.959 18.3029 11.0339 18.273C10.9971 18.3635 10.962 18.454 10.9291 18.5476C10.8435 18.7938 10.7798 19.0478 10.7391 19.3063C10.6971 19.5712 10.6903 19.841 10.7187 20.1079C10.7355 20.2443 10.7634 20.379 10.8023 20.5105C10.8442 20.6426 10.8976 20.7704 10.962 20.8923L10.9737 20.9122C10.9923 20.9434 11.0192 20.9681 11.0512 20.9833C11.0831 20.9985 11.1187 21.0035 11.1533 20.9977L13.6901 20.5756H11.265C11.2354 20.5126 11.2096 20.4476 11.188 20.3811V20.3811Z" fill="currentColor"/>
  </g>
  <defs>
    <style>
      .favicon {
        fill: #433f49;
      }
      @media (prefers-color-scheme: dark) {
        .favicon {
          fill: #FFFAF5;
        }
      }
    </style>
  </defs>
</svg>
