<svg xmlns="http://www.w3.org/2000/svg" viewBox="0 0 254.1 420">
  <path fill="currentColor" d="M251.4 243.47c-1.8-7.71-4-15.3-8.1-22.86-4.24-7.37-9.42-13.13-14.17-18.91s-9.33-11.35-12.39-17.23a35.8 35.8 0 01-1.92-4.4c-.26-.74-.47-1.47-.67-2.2a15.16 15.16 0 01-.38-2c-.28-2.15.37-5.16 1.53-8.26 2.34-6.27 6.11-12.86 9.52-19.67a138.75 138.75 0 009.15-21.7 73.86 73.86 0 003.55-24.17c0-1-.1-2.07-.16-3.1l-.23-2.91c-.17-1.81-.31-3.64-.43-5.5-.26-3.7-.47-7.44-.67-11.17L235 56.93c-.6-15-1.23-30-1.58-45L233.12 0 224 7a89.68 89.68 0 00-7.79 6.86c-2.43 2.37-4.75 4.82-6.95 7.38a93.49 93.49 0 00-11.65 16.53 63.51 63.51 0 00-6.89 18.93 50.66 50.66 0 00-.62 10 43.54 43.54 0 001.62 9.68 48.87 48.87 0 01.17-9.61 47.22 47.22 0 012.23-9.17 58.8 58.8 0 019-16.22 94.2 94.2 0 0112.8-13.46c1.86-1.63 3.79-3.16 5.76-4.65L223 57.44l1 22.61c.2 3.78.42 7.56.69 11.37q.18 2.83.45 5.75l.12 1.44.09 1.27c.05.85.14 1.69.13 2.54a61.92 61.92 0 01-3 20.28 127.32 127.32 0 01-8.4 19.83c-3.3 6.65-7.11 13.14-10.08 21-1.4 3.92-2.75 8.41-2.18 13.78a25.79 25.79 0 00.67 3.56c.29 1.09.61 2.16 1 3.2a46.68 46.68 0 002.58 5.94c3.93 7.5 9 13.57 13.83 19.41s9.68 11.39 12.94 17.11 5.26 12.67 6.83 19.59a89 89 0 012.4 20.87c-.06 3.26-.7 6.58-1.47 7a34.3 34.3 0 01-7.22 6.16c-5.49 3.52-11.86 6-17.86 5.63a32.24 32.24 0 01-9.2-.74 44.93 44.93 0 01-9.71-3.74c-3.31-1.6-6.61-3.55-10.24-5.19a24 24 0 00-5.75-1.8 13.92 13.92 0 00-3-.1 11.1 11.1 0 00-2.83.72c3.91-.22 7 1.91 9.67 4.28s5.32 5.14 8.22 7.8a50.64 50.64 0 0010 7.25 29.37 29.37 0 0012.77 3.81 46.62 46.62 0 0024.55-7.86 45.25 45.25 0 009.86-8.49l.57-.69c.17-.2.5-.71.74-1.06a8.7 8.7 0 00.63-1.11c.17-.35.38-.74.5-1.07a20.42 20.42 0 001.13-3.79 38 38 0 00.72-6.64 101 101 0 00-2.75-23.89z"/>
  <path fill="currentColor" d="M124.34 118.3c.82 7.7 1.84 15.52 4.56 23.48 2.42 6.93 4.34 14 6.66 21.41a184.55 184.55 0 008.44 21.69c3.2 7 6.64 13.78 10.14 20.52l2.66 5 1.34 2.51a19.64 19.64 0 01.86 1.86 14 14 0 01.49 7.9 52.29 52.29 0 01-3 9.59c-1.34 3.32-2.85 6.71-4.39 10.13-3.08 6.84-6.2 13.81-9.08 20.89-1.45 3.58-2.81 7-4.18 10.78a38.87 38.87 0 00-2.19 13.1c.07 4.35.32 8.72 1.88 12.66a68.8 68.8 0 005.28 11.07A103.3 103.3 0 00158 329.58a167 167 0 0016.79 15.52c-9.07-12.07-17.38-24.86-22.23-38.28a58.78 58.78 0 01-2.62-10c-.37-3.34-1.28-6.45-1.27-9.63a26.9 26.9 0 011.5-9c1.2-3.3 2.61-6.86 4-10.26 2.8-6.86 5.82-13.63 8.92-20.5 1.55-3.45 3.11-6.93 4.58-10.59a62.88 62.88 0 003.69-11.92 29.36 29.36 0 00.48-7 24.38 24.38 0 00-1.57-7.28 31.69 31.69 0 00-1.5-3.25l-1.31-2.48-2.63-4.94c-3.43-6.62-6.79-13.26-9.85-20a171.12 171.12 0 01-7.98-20.42c-2.17-6.94-4.22-14.41-6.76-21.68-2.18-6.31-3.2-13.53-3.95-20.76s-1.05-14.64-1.16-22a434.38 434.38 0 011.69-44.46c.62-6.85 1.41-13.67 2.48-20.37a107 107 0 006.25 17c2.88 6.22 6.29 12 9.47 17.59 1.61 2.79 3.13 5.54 4.56 8.31.75 1.38 1.37 2.78 2 4.19.33.7.52 1.28.78 1.93l.69 2 2.77 8.63c.91 3 1.72 6 2.45 9.13 1.49 6.19 2.67 12.52 3.8 18.88s2.15 12.78 3 19.21 1.78 12.9 2.57 19.38c1.09-13 1.5-26.09 1.39-39.24-.09-6.57-.37-13.16-.93-19.8-.27-3.32-.62-6.66-1.12-10a49.26 49.26 0 00-2.33-10.17c-.32-.86-.65-1.69-1-2.55s-.78-1.77-1.16-2.53c-.78-1.51-1.5-3.06-2.29-4.55-1.54-3-3.17-5.94-4.8-8.78-3.28-5.7-6.44-11.12-9-16.7-5.28-11.08-8-23.13-9.33-35.6l-.53-4.89-4.88-.47a7.58 7.58 0 00-3.54.54A8.31 8.31 0 00136 3.1a10.94 10.94 0 00-2.05 2.34A20.47 20.47 0 00132.11 9a50.24 50.24 0 00-2 6.11c-1 3.94-1.77 7.76-2.42 11.59-1.27 7.65-2.14 15.25-2.83 22.85a447.24 447.24 0 00-1.75 45.73c.14 7.63.48 15.3 1.23 23.02zM144 12.06zM92 309.79a75 75 0 009.41-4.7 36.39 36.39 0 004.39-3.29c1.34-1.1 2.61-2.27 3.86-3.44 2.51-2.34 4.85-4.82 7.09-7.37a142.78 142.78 0 0012.29-16.08c-4.69 4.82-9.52 9.45-14.56 13.78-2.55 2.13-5.08 4.26-7.73 6.2-1.32 1-2.65 1.92-4 2.79-.67.4-1.39.95-2 1.24s-1.33.62-2 .9c-5.8 2.28-12.36 3.78-18.76 5.42s-13 3.13-19.52 4.92c-3.28.87-6.56 1.82-9.89 2.95a55 55 0 00-10.12 4.4 45.58 45.58 0 00-9.24 6.73 44.58 44.58 0 00-7.26 9 50.39 50.39 0 00-6.88 21.42 64 64 0 00-.12 11c.15 1.81.35 3.62.63 5.42.07.45.14.88.22 1.31l-.44.24a49.11 49.11 0 00-4.25 2.77 39.3 39.3 0 00-7.51 7.15 26.46 26.46 0 00-4.91 9.62A23.08 23.08 0 00.58 403c.22.88.43 1.64.74 2.58a11.3 11.3 0 001.39 2.78 14.41 14.41 0 004 4 26.26 26.26 0 009.38 3.64 32.93 32.93 0 009.54.44 21.67 21.67 0 004.64-.92 11.33 11.33 0 004.13-2.15c-2.82 1.23-5.87 1.09-8.76.79a34.8 34.8 0 01-8.4-2.16 21.27 21.27 0 01-6.93-4.2 9.29 9.29 0 01-2-2.74 4.86 4.86 0 01-.41-1.37c-.08-.53-.17-1.26-.24-1.86a16.47 16.47 0 015-13.23 29.88 29.88 0 016.12-4.82 39.93 39.93 0 013.52-1.94 31 31 0 013.51-1.49l4.23-1.41-.89-5c-.21-1.19-.47-2.85-.61-4.32s-.25-3.05-.29-4.58a61 61 0 01.43-9.09 41.75 41.75 0 015.49-16.48 34.65 34.65 0 0112.08-11.89 52.87 52.87 0 018.13-3.95c3-1.16 6.06-2.26 9.18-3.37 6.25-2.18 12.62-4.32 19-6.69q4.75-1.77 9.44-3.78zM221.79 326.85a115.79 115.79 0 00-18.09-22.71c2.75 9.4 6.37 18.18 9.61 26.87a189.55 189.55 0 018.12 25.81 98.41 98.41 0 012.11 26.25c-.42 9-2.1 18.07-3.79 27.72a66.7 66.7 0 0013.1-26.32 67.52 67.52 0 00.31-30.2 90.09 90.09 0 00-11.37-27.42zM119.85 406.32a43.18 43.18 0 01-1.61-7.2 54.83 54.83 0 01.32-15.17 84.52 84.52 0 013.86-15.14 95.4 95.4 0 016.36-14.27l1.35-2.4a3.4 3.4 0 00-4-4.9l-2.49.79a113.47 113.47 0 00-29.43 17.78A81.27 81.27 0 0082.39 378 59.49 59.49 0 0074 392.57a57.92 57.92 0 0110-13.07 76.83 76.83 0 0112.8-10.11 102 102 0 0114.35-7.6c1.68-.73 3.41-1.41 5.14-2.07-.85 2-1.66 4-2.42 6.07a93.75 93.75 0 00-4.39 16.77 64.74 64.74 0 00-.47 17.72 53.17 53.17 0 001.93 8.9 50.1 50.1 0 003.69 8.44l.27.44a4.12 4.12 0 004.15 1.89l58.6-9.33h-56.02a36.15 36.15 0 01-1.78-4.3z"/>
</svg>